<svg xmlns="http://www.w3.org/2000/svg" width="280" height="63"><path fill="none" d="M-.294.75h280v63h-280z"/><g font-weight="400" letter-spacing="0" word-spacing="0"><path style="line-height:125%" d="M262.87 26.78c0 8.808-7.118 15.948-15.9 15.948-8.78 0-15.898-7.14-15.898-15.947 0-8.806 7.118-15.946 15.9-15.946 8.78 0 15.9 7.14 15.9 15.947z" font-size="133.522" fill="#840808" stroke="#782121" stroke-width=".6737746499999999" stroke-linecap="round" stroke-linejoin="round" font-family="Sans"/><path d="M57.158 26.517V43.58c0 4.87-1.78 9.037-5.336 12.5-3.558 3.466-7.794 5.198-12.71 5.198-3.37 0-6.273-.574-8.707-1.72-2.434-1.148-4.635-3.033-6.6-5.654l4.07-2.81c1.36 1.873 2.952 3.22 4.777 4.04 1.825.818 3.978 1.228 6.46 1.228 3.37 0 6.308-1.23 8.813-3.687 2.505-2.458 3.757-5.35 3.757-8.672a11.4 11.4 0 0 1-.07-1.054v-2.212c0-.726.023-1.44.07-2.14-.843.982-2.27 1.79-4.283 2.42-2.014.632-3.934.948-5.76.948-4.868 0-8.742-1.51-11.622-4.53-2.88-3.02-4.32-6.8-4.32-11.34 0-4.306 1.558-7.97 4.672-10.99 3.113-3.02 6.87-4.528 11.27-4.528 4.448 0 8.146 1.428 11.095 4.283 2.948 2.857 4.423 6.742 4.423 11.657zM41.64 15.564c-2.95 0-5.478 1.03-7.585 3.09-2.106 2.06-3.16 4.586-3.16 7.582 0 2.95 1.03 5.408 3.09 7.374 2.06 1.966 4.612 2.95 7.655 2.95 2.996 0 5.524-1.008 7.584-3.02 2.06-2.014 3.09-4.542 3.09-7.585 0-2.855-1.04-5.3-3.125-7.337-2.085-2.036-4.6-3.054-7.55-3.054z" style="text-align:start;line-height:125%;-inkscape-font-specification:Rondalo" font-size="136.321" fill="#1c1c24" font-family="Rondalo"/><path d="M67.962 27.852v13.623h-5.126v-12.71-1.58-1.088c0-3.512.293-6.05.878-7.62.585-1.567 1.51-2.983 2.774-4.248 1.544-1.545 3.16-2.633 4.845-3.266 1.686-.632 3.7-.948 6.04-.948v5.126c-1.78 0-3.29.258-4.53.773-1.24.515-2.26 1.486-3.055 2.914-.796 1.427-1.3 2.667-1.51 3.72-.21 1.053-.316 2.4-.316 4.038v1.264zM95.13 15.564c-2.95 0-5.48 1.03-7.586 3.09-2.107 2.06-3.16 4.586-3.16 7.582 0 2.996 1.042 5.536 3.125 7.62 2.083 2.083 4.623 3.125 7.62 3.125 2.995 0 5.523-1.076 7.583-3.23 2.06-2.153 3.09-4.752 3.09-7.795 0-2.9-1.054-5.358-3.16-7.37-2.108-2.014-4.613-3.02-7.514-3.02zm15.58 8.23l7.17 17.822-6.25-.14-3.23-7.024c-1.357 2.248-3.23 4.062-5.618 5.442-2.388 1.38-4.94 2.072-7.653 2.072-4.4 0-8.158-1.557-11.272-4.67-3.114-3.113-4.67-6.846-4.67-11.2 0-4.306 1.556-7.97 4.67-10.99 3.114-3.02 6.87-4.528 11.27-4.528 3.887 0 7.257 1.264 10.112 3.792 2.855 2.528 3.986 5.578 5.47 9.424zM176.137 28.343h-22.61c-1.03 0-1.79.047-2.282.14-.492.094-.785.422-.88.985-.28 1.497.658 3.147 2.81 4.95 2.153 1.8 4.4 2.702 6.742 2.702 1.498 0 3.042-.35 4.633-1.052 1.078-.468 1.14 1.46 2.403.524l4.268 1.02c-1.777 1.498-3.556 2.598-5.335 3.3-1.778.702-3.815 1.054-6.11 1.054-4.305 0-7.968-1.58-10.988-4.74-3.02-3.16-4.53-6.94-4.53-11.34 0-4.214 1.545-7.82 4.635-10.815 3.09-2.994 6.788-4.492 11.094-4.492 4.402 0 8.206 1.58 11.412 4.74 3.207 3.16 4.81 6.917 4.81 11.27 0 .795-.023 1.38-.07 1.755zm-5.968-5.758c-.517-2.06-1.675-3.744-3.478-5.055-1.802-1.31-3.873-1.966-6.213-1.966-2.296 0-4.508.82-6.638 2.457-2.13 1.64-3.102 3.277-2.914 4.916.047.234.066.508.44.6.375.095.988.032 1.456.032H167.992c.796 0 1.584.15 1.982.01.397-.14.28-.59.195-.993zM185.624 23.007v18.468h-4.845V21.252c0-3.792 1.333-6.624 4.002-8.497 2.34-1.64 5.36-2.458 9.058-2.458 3.652 0 6.648.866 8.988 2.597 2.67 1.967 4.003 4.753 4.003 8.358v20.223h-5.125V23.64c0-2.857-.714-4.928-2.142-6.216-1.428-1.287-3.335-1.93-5.723-1.93-2.294 0-4.237.643-5.828 1.93-1.592 1.288-2.388 3.148-2.388 5.583zM218.405 1.45v4.424c0 .7.012 1.462.035 2.28.024.82.106 1.324.246 1.51.188.188.54.293 1.054.317a36.89 36.89 0 0 0 1.684.036h4.565v5.268h-4.354c-.655 0-1.31.01-1.967.034-.657.023-1.03.22-1.124.596-.047.14-.07.516-.07 1.125V25.674c0 2.013.187 3.558.56 4.635a9.956 9.956 0 0 0 1.546 2.878c.374.563 1.252 1.242 2.634 2.038 1.38.796 2.516 1.194 3.405 1.194v5.265c-2.34-.234-4.422-.83-6.248-1.79-1.826-.96-3.394-2.376-4.706-4.25-.983-1.403-1.638-2.83-1.965-4.282a20.047 20.047 0 0 1-.49-4.424V21.39v-.42-1.053-1.194c0-1.45-.07-2.388-.21-2.808-.14-.42-.75-.63-1.828-.63h-1.264v-5.27h.913c1.218 0 1.897-.116 2.04-.35.092-.093.162-.42.21-.983.046-.562.07-1.054.07-1.475V1.45z" style="text-align:start;line-height:125%;-inkscape-font-specification:Rondalo" font-size="136.321" font-family="Rondalo"/><path style="text-align:start;line-height:125%;-inkscape-font-specification:Rondalo" d="M67.962 27.852v13.623h-5.126v-12.71-1.58-1.088c0-3.512.293-6.05.878-7.62.585-1.567 1.51-2.983 2.774-4.248 1.544-1.545 3.16-2.633 4.845-3.266 1.686-.632 3.7-.948 6.04-.948v5.126c-1.78 0-3.29.258-4.53.773-1.24.515-2.26 1.486-3.055 2.914-.796 1.427-1.3 2.667-1.51 3.72-.21 1.053-.316 2.4-.316 4.038v1.264zM95.13 15.564c-2.95 0-5.48 1.03-7.586 3.09-2.107 2.06-3.16 4.586-3.16 7.582 0 2.996 1.042 5.536 3.125 7.62 2.083 2.083 4.623 3.125 7.62 3.125 2.995 0 5.523-1.076 7.583-3.23 2.06-2.153 3.09-4.752 3.09-7.795 0-2.9-1.054-5.358-3.16-7.37-2.108-2.014-4.613-3.02-7.514-3.02zm15.58 8.23l7.17 17.822-6.25-.14-3.23-7.024c-1.357 2.248-3.23 4.062-5.618 5.442-2.388 1.38-4.94 2.072-7.653 2.072-4.4 0-8.158-1.557-11.272-4.67-3.114-3.113-4.67-6.846-4.67-11.2 0-4.306 1.556-7.97 4.67-10.99 3.114-3.02 6.87-4.528 11.27-4.528 3.887 0 7.257 1.264 10.112 3.792 2.855 2.528 3.986 5.578 5.47 9.424zM176.137 28.343h-22.61c-1.03 0-1.79.047-2.282.14-.492.094-.785.422-.88.985-.28 1.497.658 3.147 2.81 4.95 2.153 1.8 4.4 2.702 6.742 2.702 1.498 0 3.042-.35 4.633-1.052 1.293-.52 1.868.01 3.595.565l3.076.98c-1.777 1.497-3.556 2.597-5.335 3.3-1.778.7-3.815 1.053-6.11 1.053-4.305 0-7.968-1.58-10.988-4.74-3.02-3.16-4.53-6.94-4.53-11.34 0-4.214 1.545-7.82 4.635-10.815 3.09-2.994 6.788-4.492 11.094-4.492 4.402 0 8.206 1.58 11.412 4.74 3.207 3.16 4.81 6.917 4.81 11.27 0 .795-.023 1.38-.07 1.755zm-5.968-5.758c-.517-2.06-1.675-3.744-3.478-5.055-1.802-1.31-3.873-1.966-6.213-1.966-2.296 0-4.508.82-6.638 2.457-2.13 1.64-3.102 3.277-2.914 4.916.047.234.066.508.44.6.375.095.988.032 1.456.032H167.992c.796 0 1.584.15 1.982.01.397-.14.28-.59.195-.993zM185.624 23.007v18.468h-4.845V21.252c0-3.792 1.333-6.624 4.002-8.497 2.34-1.64 5.36-2.458 9.058-2.458 3.652 0 6.648.866 8.988 2.597 2.67 1.967 4.003 4.753 4.003 8.358v20.223h-5.125V23.64c0-2.857-.714-4.928-2.142-6.216-1.428-1.287-3.335-1.93-5.723-1.93-2.294 0-4.237.643-5.828 1.93-1.592 1.288-2.388 3.148-2.388 5.583zM218.405 1.45v4.424c0 .7.012 1.462.035 2.28.024.82.106 1.324.246 1.51.188.188.54.293 1.054.317a36.89 36.89 0 0 0 1.684.036h4.565v5.268h-4.354c-.655 0-1.31.01-1.967.034-.657.023-1.03.22-1.124.596-.047.14-.07.516-.07 1.125V25.674c0 2.013.187 3.558.56 4.635a9.956 9.956 0 0 0 1.546 2.878c.374.563 1.252 1.242 2.634 2.038 1.38.796 2.516 1.194 3.405 1.194v5.265c-2.34-.234-4.422-.83-6.248-1.79-1.826-.96-3.394-2.376-4.706-4.25-.983-1.403-1.638-2.83-1.965-4.282a20.047 20.047 0 0 1-.49-4.424V21.39v-.42-1.053-1.194c0-1.45-.07-2.388-.21-2.808-.14-.42-.75-.63-1.828-.63h-1.264v-5.27h.913c1.218 0 1.897-.116 2.04-.35.092-.093.162-.42.21-.983.046-.562.07-1.054.07-1.475V1.45z" font-size="136.321" fill="#1c1c24" stroke="#1c1c24" font-family="Rondalo" stroke-width=".65099"/><path d="M188.084 290.035c.518 0 1.67-2.28 3.46-6.836 1.27-3.29 3.16-8.512 5.67-15.667 2.51-7.156 4.515-12.666 6.015-16.53h8.393l-23.8 62.227-23.542-62.228h8.83a4370.26 4370.26 0 0 0 7.877 22.763c3.865 10.846 6.23 16.27 7.097 16.27z" style="-inkscape-font-specification:Rondalo" font-family="Rondalo" transform="matrix(.73073 0 0 .5017 -8.99 -115.283)" font-size="86.549" fill="#1c1c24" stroke="#1c1c24"/></g></svg>