<?xml version="1.0" encoding="utf-8"?>
<!-- Generator: Adobe Illustrator 16.0.0, SVG Export Plug-In . SVG Version: 6.00 Build 0)  -->
<!DOCTYPE svg PUBLIC "-//W3C//DTD SVG 1.1//EN" "http://www.w3.org/Graphics/SVG/1.1/DTD/svg11.dtd">
<svg version="1.1" id="Layer_1" xmlns="http://www.w3.org/2000/svg" xmlns:xlink="http://www.w3.org/1999/xlink" x="0px" y="0px"
	 width="237.175px" height="61.277px" viewBox="25.697 0 237.175 61.277" enable-background="new 25.697 0 237.175 61.277"
	 xml:space="preserve">
<path fill="none" d="M-0.294,0.75h280v63h-280V0.75z"/>
<g>
	<path fill="#840808" stroke="#782121" stroke-width="0.6738" stroke-linecap="round" stroke-linejoin="round" d="M262.87,26.78
		c0,8.808-7.118,15.948-15.899,15.948s-15.898-7.141-15.898-15.947c0-8.806,7.117-15.946,15.9-15.946
		c8.779,0,15.899,7.14,15.899,15.947L262.87,26.78z"/>
	<path fill="#1C1C24" d="M57.158,26.517V43.58c0,4.87-1.78,9.037-5.336,12.5c-3.558,3.466-7.794,5.197-12.71,5.197
		c-3.37,0-6.273-0.573-8.707-1.719c-2.434-1.148-4.635-3.033-6.6-5.654l4.07-2.811c1.36,1.873,2.952,3.221,4.777,4.04
		c1.825,0.818,3.978,1.228,6.46,1.228c3.37,0,6.308-1.229,8.813-3.687c2.505-2.458,3.757-5.35,3.757-8.672
		c-0.04-0.351-0.063-0.702-0.07-1.054v-2.213c0-0.726,0.023-1.439,0.07-2.139c-0.843,0.981-2.27,1.789-4.283,2.42
		c-2.014,0.631-3.934,0.947-5.76,0.947c-4.868,0-8.742-1.51-11.622-4.529c-2.88-3.021-4.32-6.801-4.32-11.341
		c0-4.306,1.558-7.97,4.672-10.99c3.113-3.02,6.87-4.528,11.27-4.528c4.448,0,8.146,1.428,11.095,4.283
		C55.682,17.717,57.157,21.602,57.158,26.517L57.158,26.517z M41.64,15.564c-2.95,0-5.478,1.03-7.585,3.09
		c-2.106,2.06-3.16,4.586-3.16,7.582c0,2.95,1.03,5.408,3.09,7.374c2.06,1.967,4.612,2.951,7.655,2.951
		c2.996,0,5.524-1.009,7.584-3.021c2.06-2.014,3.09-4.542,3.09-7.585c0-2.855-1.04-5.3-3.125-7.337
		C47.104,16.582,44.589,15.564,41.64,15.564L41.64,15.564z"/>
	<path d="M67.962,27.852v13.623h-5.126V28.765v-1.58v-1.088c0-3.512,0.293-6.05,0.878-7.62c0.585-1.567,1.51-2.983,2.774-4.248
		c1.544-1.545,3.16-2.633,4.845-3.266c1.686-0.632,3.7-0.948,6.04-0.948v5.126c-1.78,0-3.29,0.258-4.53,0.773
		c-1.24,0.515-2.26,1.486-3.055,2.914c-0.796,1.427-1.3,2.667-1.51,3.72c-0.21,1.053-0.316,2.4-0.316,4.038v1.264V27.852z
		 M95.13,15.564c-2.95,0-5.48,1.03-7.586,3.09c-2.107,2.06-3.16,4.586-3.16,7.582c0,2.996,1.042,5.536,3.125,7.62
		c2.083,2.084,4.623,3.125,7.62,3.125c2.995,0,5.523-1.075,7.583-3.229c2.06-2.153,3.09-4.752,3.09-7.795
		c0-2.9-1.054-5.358-3.16-7.37c-2.108-2.014-4.613-3.02-7.514-3.02L95.13,15.564z M110.71,23.794l7.17,17.822l-6.25-0.14
		l-3.23-7.024c-1.357,2.248-3.23,4.062-5.618,5.442c-2.388,1.379-4.94,2.071-7.653,2.071c-4.4,0-8.158-1.557-11.272-4.67
		c-3.114-3.112-4.67-6.846-4.67-11.2c0-4.306,1.556-7.97,4.67-10.99c3.114-3.02,6.87-4.528,11.27-4.528
		c3.887,0,7.257,1.264,10.112,3.792C108.094,16.898,109.225,19.948,110.71,23.794L110.71,23.794z M176.137,28.343h-22.609
		c-1.03,0-1.791,0.047-2.282,0.14c-0.492,0.094-0.785,0.422-0.88,0.985c-0.28,1.497,0.658,3.147,2.81,4.95
		c2.153,1.8,4.4,2.702,6.742,2.702c1.498,0,3.042-0.351,4.633-1.052c1.078-0.469,1.14,1.459,2.403,0.523l4.268,1.02
		c-1.777,1.498-3.556,2.599-5.335,3.301c-1.778,0.702-3.815,1.054-6.11,1.054c-4.305,0-7.967-1.58-10.987-4.739
		c-3.021-3.16-4.53-6.94-4.53-11.341c0-4.214,1.545-7.82,4.635-10.815c3.09-2.994,6.789-4.492,11.094-4.492
		c4.402,0,8.207,1.58,11.412,4.74c3.207,3.16,4.811,6.917,4.811,11.27c0,0.795-0.023,1.38-0.07,1.755L176.137,28.343z
		 M170.169,22.585c-0.517-2.06-1.675-3.744-3.478-5.055s-3.873-1.966-6.213-1.966c-2.297,0-4.508,0.82-6.639,2.457
		c-2.13,1.64-3.102,3.277-2.914,4.916c0.047,0.234,0.066,0.508,0.44,0.6c0.375,0.095,0.987,0.032,1.456,0.032h15.17
		c0.796,0,1.584,0.15,1.982,0.01C170.371,23.439,170.254,22.989,170.169,22.585L170.169,22.585z M185.624,23.007v18.468h-4.845
		V21.252c0-3.792,1.332-6.624,4.002-8.497c2.34-1.64,5.359-2.458,9.058-2.458c3.652,0,6.647,0.866,8.988,2.597
		c2.67,1.967,4.003,4.753,4.003,8.358v20.223h-5.125V23.64c0-2.857-0.714-4.928-2.143-6.216c-1.428-1.287-3.334-1.93-5.723-1.93
		c-2.294,0-4.236,0.643-5.828,1.93C186.42,18.712,185.624,20.572,185.624,23.007z M218.404,1.45v4.424c0,0.7,0.013,1.462,0.035,2.28
		c0.024,0.82,0.106,1.324,0.246,1.51c0.188,0.188,0.541,0.293,1.055,0.317c0.561,0.025,1.122,0.037,1.684,0.036h4.565v5.268h-4.354
		c-0.654,0-1.31,0.01-1.967,0.034c-0.656,0.023-1.029,0.22-1.124,0.596c-0.047,0.14-0.069,0.516-0.069,1.125v8.634
		c0,2.013,0.187,3.558,0.56,4.635c0.353,1.038,0.876,2.01,1.546,2.878c0.374,0.562,1.252,1.242,2.634,2.037
		c1.38,0.797,2.517,1.194,3.405,1.194v5.265c-2.34-0.233-4.422-0.83-6.248-1.789c-1.826-0.961-3.395-2.377-4.706-4.25
		c-0.983-1.403-1.638-2.83-1.965-4.283c-0.327-1.452-0.491-2.936-0.49-4.424V21.39v-0.42v-1.053v-1.194
		c0-1.45-0.069-2.388-0.21-2.808s-0.75-0.63-1.828-0.63h-1.264v-5.27h0.912c1.219,0,1.897-0.116,2.041-0.35
		c0.092-0.093,0.162-0.42,0.209-0.983c0.047-0.562,0.07-1.054,0.07-1.475V1.45H218.404z"/>
	<path fill="#1C1C24" stroke="#1C1C24" stroke-width="0.651" d="M67.962,27.852v13.623h-5.126V28.765v-1.58v-1.088
		c0-3.512,0.293-6.05,0.878-7.62c0.585-1.567,1.51-2.983,2.774-4.248c1.544-1.545,3.16-2.633,4.845-3.266
		c1.686-0.632,3.7-0.948,6.04-0.948v5.126c-1.78,0-3.29,0.258-4.53,0.773c-1.24,0.515-2.26,1.486-3.055,2.914
		c-0.796,1.427-1.3,2.667-1.51,3.72c-0.21,1.053-0.316,2.4-0.316,4.038v1.264V27.852z M95.13,15.564c-2.95,0-5.48,1.03-7.586,3.09
		c-2.107,2.06-3.16,4.586-3.16,7.582c0,2.996,1.042,5.536,3.125,7.62c2.083,2.084,4.623,3.125,7.62,3.125
		c2.995,0,5.523-1.075,7.583-3.229c2.06-2.153,3.09-4.752,3.09-7.795c0-2.9-1.054-5.358-3.16-7.37
		c-2.108-2.014-4.613-3.02-7.514-3.02L95.13,15.564z M110.71,23.794l7.17,17.822l-6.25-0.14l-3.23-7.024
		c-1.357,2.248-3.23,4.062-5.618,5.442c-2.388,1.379-4.94,2.071-7.653,2.071c-4.4,0-8.158-1.557-11.272-4.67
		c-3.114-3.112-4.67-6.846-4.67-11.2c0-4.306,1.556-7.97,4.67-10.99c3.114-3.02,6.87-4.528,11.27-4.528
		c3.887,0,7.257,1.264,10.112,3.792C108.094,16.898,109.225,19.948,110.71,23.794L110.71,23.794z M176.137,28.343h-22.609
		c-1.03,0-1.791,0.047-2.282,0.14c-0.492,0.094-0.785,0.422-0.88,0.985c-0.28,1.497,0.658,3.147,2.81,4.95
		c2.153,1.8,4.4,2.702,6.742,2.702c1.498,0,3.042-0.351,4.633-1.052c1.293-0.521,1.868,0.01,3.595,0.564l3.076,0.98
		c-1.777,1.496-3.556,2.597-5.335,3.3c-1.778,0.7-3.815,1.053-6.11,1.053c-4.305,0-7.967-1.58-10.987-4.739
		c-3.021-3.16-4.53-6.94-4.53-11.341c0-4.214,1.545-7.82,4.635-10.815c3.09-2.994,6.789-4.492,11.094-4.492
		c4.402,0,8.207,1.58,11.412,4.74c3.207,3.16,4.811,6.917,4.811,11.27c0,0.795-0.023,1.38-0.07,1.755L176.137,28.343z
		 M170.169,22.585c-0.517-2.06-1.675-3.744-3.478-5.055s-3.873-1.966-6.213-1.966c-2.297,0-4.508,0.82-6.639,2.457
		c-2.13,1.64-3.102,3.277-2.914,4.916c0.047,0.234,0.066,0.508,0.44,0.6c0.375,0.095,0.987,0.032,1.456,0.032h15.17
		c0.796,0,1.584,0.15,1.982,0.01C170.371,23.439,170.254,22.989,170.169,22.585L170.169,22.585z M185.624,23.007v18.468h-4.845
		V21.252c0-3.792,1.332-6.624,4.002-8.497c2.34-1.64,5.359-2.458,9.058-2.458c3.652,0,6.647,0.866,8.988,2.597
		c2.67,1.967,4.003,4.753,4.003,8.358v20.223h-5.125V23.64c0-2.857-0.714-4.928-2.143-6.216c-1.428-1.287-3.334-1.93-5.723-1.93
		c-2.294,0-4.236,0.643-5.828,1.93C186.42,18.712,185.624,20.572,185.624,23.007z M218.404,1.45v4.424c0,0.7,0.013,1.462,0.035,2.28
		c0.024,0.82,0.106,1.324,0.246,1.51c0.188,0.188,0.541,0.293,1.055,0.317c0.561,0.025,1.122,0.037,1.684,0.036h4.565v5.268h-4.354
		c-0.654,0-1.31,0.01-1.967,0.034c-0.656,0.023-1.029,0.22-1.124,0.596c-0.047,0.14-0.069,0.516-0.069,1.125v8.634
		c0,2.013,0.187,3.558,0.56,4.635c0.353,1.038,0.876,2.01,1.546,2.878c0.374,0.562,1.252,1.242,2.634,2.037
		c1.38,0.797,2.517,1.194,3.405,1.194v5.265c-2.34-0.233-4.422-0.83-6.248-1.789c-1.826-0.961-3.395-2.377-4.706-4.25
		c-0.983-1.403-1.638-2.83-1.965-4.283c-0.327-1.452-0.491-2.936-0.49-4.424V21.39v-0.42v-1.053v-1.194
		c0-1.45-0.069-2.388-0.21-2.808s-0.75-0.63-1.828-0.63h-1.264v-5.27h0.912c1.219,0,1.897-0.116,2.041-0.35
		c0.092-0.093,0.162-0.42,0.209-0.983c0.047-0.562,0.07-1.054,0.07-1.475V1.45H218.404z"/>
	<path fill="#1C1C24" stroke="#1C1C24" d="M128.449,30.228c0.378,0,1.22-1.144,2.528-3.43c0.928-1.65,2.309-4.271,4.143-7.86
		c1.834-3.59,3.299-6.355,4.396-8.293h6.133l-17.391,31.219l-17.203-31.219h6.453c1.903,3.811,3.822,7.617,5.756,11.42
		C126.087,27.506,127.815,30.227,128.449,30.228L128.449,30.228z"/>
</g>
</svg>
