<?xml version="1.0" encoding="utf-8"?>
<!-- Generator: Adobe Illustrator 16.0.0, SVG Export Plug-In . SVG Version: 6.00 Build 0)  -->
<!DOCTYPE svg PUBLIC "-//W3C//DTD SVG 1.1//EN" "http://www.w3.org/Graphics/SVG/1.1/DTD/svg11.dtd">
<svg version="1.1" id="Layer_1" xmlns="http://www.w3.org/2000/svg" xmlns:xlink="http://www.w3.org/1999/xlink" x="0px" y="0px"
	 width="445.994px" height="334.781px" viewBox="92.857 213.189 445.994 334.781"
	 enable-background="new 92.857 213.189 445.994 334.781" xml:space="preserve">
<path fill="#D6CFD5" d="M401.037,268.792l-8.174,5.204l-4.794-22.391l8.166-5.252L401.037,268.792z"/>
<path fill="#12100D" d="M401.442,269.535l-8.128,5.172c-0.394,0.25-0.915,0.135-1.165-0.258c-0.055-0.085-0.094-0.18-0.114-0.279
	h-0.002l-4.791-22.391c-0.073-0.351,0.081-0.709,0.387-0.896l8.148-5.242c0.394-0.252,0.917-0.137,1.17,0.256
	c0.057,0.089,0.097,0.188,0.117,0.293l4.8,22.425C401.941,268.981,401.77,269.354,401.442,269.535L401.442,269.535z
	 M393.434,272.629l6.653-4.235l-4.422-20.67L389.018,252L393.434,272.629L393.434,272.629z M397.062,246.177l0.003,0.012
	L397.062,246.177L397.062,246.177z"/>
<path fill="#D6CFD5" d="M420.383,270.964l-19.346-2.173l-4.369-23.483l19.596,4.739L420.383,270.964z"/>
<path fill="#12100D" d="M420.25,271.799l-19.305-2.168c-0.386-0.043-0.693-0.344-0.745-0.729l-4.363-23.442
	c-0.083-0.459,0.222-0.899,0.681-0.983c0.12-0.022,0.242-0.018,0.36,0.012l19.584,4.739c0.332,0.079,0.568,0.344,0.631,0.657h0.002
	l4.118,20.918c0.089,0.459-0.212,0.903-0.671,0.992C420.445,271.813,420.347,271.815,420.25,271.799L420.25,271.799z
	 M401.753,268.021l17.577,1.976l-3.791-19.256l-17.802-4.306L401.753,268.021z"/>
<path fill="#D6CFD5" d="M461.062,276.144l-19.234-1.647l-3.935-21.455l19.436,3.998L461.062,276.144z"/>
<path fill="#17120E" d="M460.991,276.988l-19.233-1.647c-0.404-0.034-0.728-0.349-0.772-0.752l-3.924-21.394
	c-0.083-0.459,0.222-0.899,0.681-0.982c0.113-0.021,0.229-0.018,0.341,0.008l19.415,3.993c0.345,0.07,0.597,0.341,0.66,0.665h0.002
	l3.731,19.106c0.09,0.458-0.209,0.902-0.667,0.992C461.147,276.991,461.069,276.995,460.991,276.988L460.991,276.988z
	 M442.542,273.709l17.474,1.495l-3.409-17.451l-17.657-3.632L442.542,273.709L442.542,273.709z"/>
<path fill="#D6CFD5" d="M463.987,291.49l-18.739,0.656l-3.444-19.158l18.894,1.448L463.987,291.49z"/>
<path fill="#12100D" d="M463.966,292.336l-18.692,0.652c-0.429,0.013-0.799-0.298-0.861-0.722l-3.439-19.129
	c-0.083-0.459,0.223-0.898,0.682-0.98c0.069-0.012,0.14-0.016,0.21-0.011v-0.001l18.894,1.449c0.393,0.029,0.714,0.327,0.774,0.717
	l3.285,17.022c0.089,0.458-0.211,0.902-0.67,0.99C464.088,292.333,464.027,292.338,463.966,292.336L463.966,292.336z
	 M445.948,291.275l17.022-0.595l-2.982-15.451l-17.162-1.315L445.948,291.275L445.948,291.275z"/>
<path fill="#D6CFD5" d="M424.94,294.765l-17.81,2.5l-6.26-28.142l19.512,1.84L424.94,294.765z"/>
<path fill="#12100D" d="M425.03,295.605l-17.783,2.497c-0.453,0.063-0.874-0.246-0.95-0.697l-6.251-28.1
	c-0.1-0.455,0.188-0.905,0.643-1.005c0.086-0.019,0.174-0.024,0.261-0.016l19.512,1.84c0.383,0.035,0.682,0.322,0.749,0.682h0.002
	l4.557,23.8c0.088,0.458-0.213,0.901-0.672,0.989c-0.022,0.004-0.045,0.008-0.068,0.01H425.03z M407.786,296.32l16.157-2.269
	l-4.272-22.307l-17.725-1.671L407.786,296.32L407.786,296.32z"/>
<path fill="#D6CFD5" d="M392.292,274.116l-8.154,5.319l-4.646-21.707l8.168-5.252L392.292,274.116z"/>
<path fill="#12100D" d="M392.715,274.85l-8.116,5.293c-0.391,0.254-0.914,0.143-1.168-0.248c-0.056-0.087-0.096-0.184-0.117-0.286
	h-0.002l-4.646-21.707c-0.074-0.352,0.081-0.711,0.388-0.898l8.15-5.242c0.394-0.252,0.916-0.139,1.169,0.254
	c0.058,0.09,0.098,0.19,0.118,0.294l4.63,21.63C393.196,274.3,393.033,274.666,392.715,274.85L392.715,274.85z M384.707,278.056
	l6.638-4.328l-4.256-19.881l-6.648,4.275L384.707,278.056z M388.488,252.3l0.002,0.013L388.488,252.3L388.488,252.3z"/>
<path fill="#D6CFD5" d="M383.522,279.764l-7.993,5.088l-4.563-21.327l7.982-5.134L383.522,279.764z"/>
<path fill="#12100D" d="M383.925,280.507l-7.941,5.055c-0.394,0.25-0.915,0.135-1.165-0.258c-0.055-0.085-0.094-0.18-0.114-0.279
	h-0.002l-4.563-21.327c-0.074-0.352,0.081-0.711,0.388-0.898l7.965-5.123c0.394-0.252,0.916-0.137,1.168,0.257
	c0.058,0.09,0.097,0.189,0.117,0.294l4.572,21.36c0.078,0.366-0.094,0.739-0.422,0.918H383.925z M376.102,283.486l6.47-4.118
	l-4.196-19.604l-6.461,4.155L376.102,283.486z M379.774,258.216l0.003,0.013L379.774,258.216L379.774,258.216z"/>
<path fill="#D6CFD5" d="M375.25,285.322l-7.78,4.708l-4.468-20.86l7.729-4.971L375.25,285.322z"/>
<path fill="#12100D" d="M375.688,286.047l-7.783,4.708c-0.401,0.241-0.922,0.11-1.163-0.291c-0.053-0.089-0.09-0.186-0.107-0.288
	l-4.459-20.833c-0.074-0.351,0.082-0.711,0.388-0.897l7.71-4.959c0.393-0.253,0.915-0.14,1.168,0.253
	c0.058,0.089,0.098,0.189,0.119,0.293l4.518,21.111c0.075,0.353-0.081,0.713-0.39,0.9V286.047z M368.046,288.692l6.252-3.782
	l-4.14-19.339l-6.207,3.993L368.046,288.692L368.046,288.692z M371.557,264.023l0.003,0.012L371.557,264.023z"/>
<path fill="#D6CFD5" d="M367.13,290.339l-7.532,4.795l-4.416-20.626l7.528-4.84L367.13,290.339z"/>
<path fill="#12100D" d="M367.536,291.082l-7.484,4.763c-0.394,0.25-0.915,0.135-1.166-0.258c-0.055-0.085-0.093-0.18-0.114-0.278
	h-0.001l-4.415-20.625c-0.075-0.352,0.081-0.712,0.389-0.899l7.508-4.829c0.394-0.252,0.916-0.139,1.169,0.254
	c0.058,0.09,0.098,0.189,0.118,0.294l4.421,20.659C368.036,290.53,367.864,290.903,367.536,291.082L367.536,291.082z M360.17,293.77
	l6.011-3.826l-4.045-18.902l-6.006,3.861L360.17,293.77L360.17,293.77z M363.536,269.493l0.002,0.012L363.536,269.493
	L363.536,269.493z"/>
<path fill="#D6CFD5" d="M359.22,295.038l-7.388,4.704l-4.33-20.231l7.379-4.748L359.22,295.038z"/>
<g>
	<path fill="#12100D" d="M359.623,295.781l-7.338,4.671c-0.395,0.25-0.916,0.134-1.166-0.26c-0.055-0.084-0.093-0.178-0.113-0.276
		h-0.002l-4.328-20.231c-0.074-0.351,0.081-0.71,0.388-0.897l7.361-4.736c0.393-0.252,0.915-0.138,1.167,0.254
		c0.058,0.09,0.098,0.189,0.118,0.294l4.337,20.263C360.125,295.238,359.943,295.605,359.623,295.781L359.623,295.781z
		 M352.403,298.375l5.867-3.733l-3.961-18.507l-5.857,3.768L352.403,298.375L352.403,298.375z M355.708,274.588l0.002,0.012
		L355.708,274.588L355.708,274.588z"/>
	<path fill="none" stroke="#12100D" stroke-width="0.216" stroke-miterlimit="22.926" d="M359.623,295.781l-7.338,4.671
		c-0.395,0.25-0.916,0.134-1.166-0.26c-0.055-0.084-0.093-0.178-0.113-0.276h-0.002l-4.328-20.231
		c-0.074-0.351,0.081-0.71,0.388-0.897l7.361-4.736c0.393-0.252,0.915-0.138,1.167,0.254c0.058,0.09,0.098,0.189,0.118,0.294
		l4.337,20.263C360.125,295.238,359.943,295.605,359.623,295.781L359.623,295.781z M352.403,298.375l5.867-3.733l-3.961-18.507
		l-5.857,3.768L352.403,298.375L352.403,298.375z M355.708,274.588l0.002,0.012"/>
</g>
<path fill="#D6CFD5" d="M407.132,297.265l-8.616,3.154l-5.51-25.748l8.08-5.653L407.132,297.265z"/>
<path fill="#12100D" d="M407.423,298.06l-8.615,3.154c-0.438,0.161-0.925-0.064-1.086-0.503c-0.017-0.047-0.03-0.096-0.039-0.146
	l-5.504-25.719c-0.075-0.354,0.083-0.715,0.394-0.9l8.031-5.619c0.383-0.267,0.908-0.173,1.175,0.209
	c0.064,0.093,0.11,0.197,0.134,0.307h0.001l6.045,28.248C408.046,297.502,407.817,297.916,407.423,298.06L407.423,298.06z
	 M399.14,299.291l7.012-2.567l-5.625-26.285l-6.577,4.601L399.14,299.291L399.14,299.291z"/>
<path fill="#D6CFD5" d="M398.173,300.493l-8.745,3.659l-5.158-24.099l8.168-5.252L398.173,300.493z"/>
<path fill="#12100D" d="M398.498,301.274l-8.746,3.659c-0.432,0.179-0.927-0.026-1.105-0.458c-0.021-0.048-0.036-0.098-0.047-0.149
	l-5.158-24.097c-0.073-0.352,0.083-0.711,0.39-0.898l8.149-5.241c0.393-0.253,0.916-0.139,1.169,0.254
	c0.063,0.098,0.105,0.209,0.124,0.325l5.724,25.645C399.085,300.712,398.875,301.118,398.498,301.274L398.498,301.274z
	 M390.042,302.979l7.154-2.992l-5.317-23.821l-6.66,4.282L390.042,302.979z M388.601,304.328v-0.002V304.328z"/>
<path fill="#D6CFD5" d="M388.738,304.139l-8.358,3.378l-4.782-22.351l7.979-5.136L388.738,304.139z"/>
<path fill="#12100D" d="M389.022,304.935l-8.327,3.366c-0.433,0.174-0.925-0.036-1.099-0.469c-0.018-0.045-0.032-0.092-0.042-0.14
	l-4.785-22.352c-0.073-0.351,0.082-0.711,0.389-0.898l7.964-5.123c0.395-0.251,0.918-0.136,1.169,0.258
	c0.057,0.089,0.097,0.188,0.116,0.291l5.159,24.095C389.654,304.377,389.423,304.793,389.022,304.935L389.022,304.935z
	 M380.996,306.357l6.768-2.737l-4.757-22.217l-6.461,4.157L380.996,306.357L380.996,306.357z M384.406,279.857l0.001,0.011
	L384.406,279.857L384.406,279.857z"/>
<path fill="#D6CFD5" d="M380.027,307.646l-8.075,3.341l-4.391-20.52l7.729-4.97L380.027,307.646z"/>
<path fill="#12100D" d="M380.306,308.444l-8.032,3.324c-0.432,0.178-0.925-0.028-1.103-0.459c-0.02-0.047-0.035-0.097-0.045-0.146
	l-4.393-20.52c-0.074-0.352,0.082-0.711,0.388-0.898l7.711-4.959c0.394-0.252,0.917-0.137,1.168,0.256
	c0.058,0.089,0.098,0.188,0.118,0.292l4.736,22.137C380.943,307.887,380.709,308.305,380.306,308.444L380.306,308.444z
	 M372.568,309.82l6.487-2.684l-4.337-20.266l-6.209,3.993l4.057,18.957H372.568z M376.116,285.322l0.002,0.013L376.116,285.322
	L376.116,285.322z"/>
<path fill="#D6CFD5" d="M371.615,311.296l-7.898,3.086l-4.048-18.918l7.524-4.841L371.615,311.296z"/>
<path fill="#12100D" d="M371.924,312.084l-7.9,3.086c-0.435,0.17-0.925-0.044-1.095-0.479c-0.02-0.048-0.033-0.098-0.043-0.148
	l-4.045-18.902c-0.074-0.351,0.08-0.711,0.387-0.898l7.507-4.829c0.393-0.252,0.915-0.138,1.168,0.254
	c0.057,0.089,0.098,0.189,0.118,0.294l4.42,20.659c0.088,0.411-0.14,0.815-0.519,0.962L371.924,312.084z M364.335,313.234
	l6.304-2.463l-4.016-18.773l-6.005,3.862L364.335,313.234L364.335,313.234z M368.021,290.45l0.002,0.011L368.021,290.45
	L368.021,290.45z"/>
<path fill="#D6CFD5" d="M363.412,314.628l-7.681,3.335l-3.817-17.839l7.379-4.748L363.412,314.628z"/>
<path fill="#12100D" d="M363.692,315.426l-7.627,3.312c-0.428,0.185-0.925-0.012-1.109-0.439c-0.022-0.051-0.039-0.105-0.051-0.16
	h-0.002l-3.817-17.838c-0.074-0.351,0.081-0.711,0.388-0.898l7.361-4.734c0.393-0.252,0.916-0.139,1.168,0.254
	c0.058,0.09,0.099,0.189,0.119,0.294l4.116,19.237C364.325,314.869,364.092,315.285,363.692,315.426L363.692,315.426z
	 M356.342,316.779l6.1-2.649l-3.718-17.377l-5.859,3.768l3.479,16.258H356.342z M360.121,295.205l0.002,0.013L360.121,295.205
	L360.121,295.205z"/>
<path fill="#D6CFD5" d="M351.62,299.476l-7.082,4.508l-4.15-19.395l7.072-4.55L351.62,299.476z"/>
<path fill="#12100D" d="M352.022,300.219l-7.032,4.476c-0.393,0.25-0.914,0.134-1.164-0.259c-0.055-0.085-0.093-0.179-0.114-0.277
	h-0.001l-4.15-19.394c-0.074-0.351,0.081-0.711,0.387-0.898l7.056-4.538c0.393-0.252,0.915-0.138,1.167,0.254
	c0.058,0.089,0.098,0.189,0.118,0.294l4.156,19.424C352.523,299.667,352.352,300.041,352.022,300.219L352.022,300.219z
	 M345.109,302.619l5.561-3.539l-3.781-17.667l-5.554,3.571L345.109,302.619L345.109,302.619z M348.287,279.865l0.003,0.012
	L348.287,279.865L348.287,279.865z"/>
<path fill="#D6CFD5" d="M344.533,304.008l-7.066,4.497l-4.14-19.348l7.058-4.541L344.533,304.008z"/>
<path fill="#12100D" d="M344.938,304.751l-7.019,4.466c-0.395,0.25-0.916,0.133-1.166-0.262c-0.054-0.084-0.092-0.177-0.113-0.274
	h-0.001l-4.141-19.35c-0.075-0.351,0.08-0.711,0.387-0.898l7.041-4.529c0.394-0.251,0.916-0.137,1.168,0.256
	c0.057,0.089,0.097,0.189,0.117,0.292l4.148,19.38C345.438,304.198,345.266,304.571,344.938,304.751L344.938,304.751z
	 M338.04,307.141l5.545-3.529l-3.772-17.624l-5.538,3.562L338.04,307.141L338.04,307.141z M341.211,284.441l0.003,0.012
	L341.211,284.441z"/>
<path fill="#D6CFD5" d="M355.133,317.693l-6.74,2.634l-3.456-16.146l6.422-4.13L355.133,317.693z"/>
<path fill="#12100D" d="M355.44,318.48l-6.742,2.634c-0.434,0.171-0.923-0.042-1.094-0.476c-0.02-0.049-0.034-0.101-0.045-0.153
	l-3.45-16.131c-0.074-0.351,0.081-0.71,0.387-0.897l6.403-4.118c0.394-0.252,0.917-0.137,1.168,0.256
	c0.058,0.089,0.097,0.188,0.117,0.292l3.773,17.631C356.046,317.93,355.818,318.333,355.44,318.48L355.44,318.48z M349.01,319.177
	l5.146-2.011l-3.369-15.742l-4.9,3.152L349.01,319.177L349.01,319.177z M352.185,299.876l0.003,0.012L352.185,299.876
	L352.185,299.876z"/>
<path fill="#D6CFD5" d="M348.476,321.664l-6.842,2.971l-3.4-15.891l6.572-4.228L348.476,321.664z"/>
<path fill="#12100D" d="M348.756,322.461l-6.788,2.948c-0.428,0.185-0.924-0.013-1.108-0.441c-0.022-0.051-0.039-0.105-0.051-0.16
	h-0.002l-3.4-15.891c-0.074-0.351,0.08-0.71,0.387-0.898l6.557-4.216c0.393-0.252,0.915-0.139,1.167,0.254
	c0.058,0.089,0.098,0.189,0.118,0.293l3.667,17.136C349.391,321.902,349.157,322.319,348.756,322.461L348.756,322.461z
	 M342.244,323.449l5.26-2.284l-3.27-15.277l-5.054,3.252l3.063,14.31V323.449z M345.633,304.341l0.003,0.012L345.633,304.341
	L345.633,304.341z"/>
<path fill="#D6CFD5" d="M337.112,308.521l-6.032,4.112l-3.914-18.281l6.026-4.15L337.112,308.521z"/>
<path fill="#12100D" d="M337.573,309.229l-6.018,4.101c-0.387,0.263-0.912,0.163-1.175-0.223c-0.062-0.09-0.105-0.192-0.128-0.3
	l-3.913-18.281c-0.074-0.35,0.08-0.709,0.386-0.896l5.986-4.124c0.384-0.265,0.91-0.169,1.175,0.215
	c0.063,0.092,0.108,0.196,0.132,0.305l3.921,18.32C338.012,308.688,337.865,309.039,337.573,309.229L337.573,309.229z
	 M331.643,311.226l4.524-3.083l-3.536-16.529l-4.519,3.113L331.643,311.226L331.643,311.226z"/>
<path fill="#D6CFD5" d="M330.881,312.77l-6.75,4.295l-3.954-18.479l6.74-4.336L330.881,312.77z"/>
<path fill="#12100D" d="M331.284,313.511l-6.699,4.265c-0.395,0.25-0.917,0.133-1.167-0.261c-0.054-0.084-0.092-0.177-0.112-0.275
	h-0.002l-3.954-18.479c-0.074-0.351,0.08-0.71,0.387-0.898l6.723-4.324c0.392-0.253,0.915-0.14,1.168,0.251
	c0.058,0.09,0.099,0.191,0.119,0.297l3.961,18.508c0.078,0.366-0.095,0.74-0.424,0.918L331.284,313.511z M324.704,315.7l5.229-3.327
	l-3.585-16.754l-5.221,3.359l3.577,16.72V315.7z M327.745,294.074l0.003,0.012L327.745,294.074z"/>
<path fill="#D6CFD5" d="M341.19,325.242l-6.86,2.588l-3.243-15.162l6.559-3.992L341.19,325.242z"/>
<path fill="#12100D" d="M341.464,326.042l-6.835,2.58c-0.438,0.164-0.925-0.058-1.089-0.495c-0.016-0.04-0.027-0.08-0.036-0.122
	l-3.245-15.162c-0.077-0.363,0.092-0.734,0.417-0.915l6.531-3.973c0.398-0.243,0.919-0.116,1.161,0.283
	c0.05,0.081,0.085,0.169,0.104,0.262l3.544,16.566C342.105,325.486,341.867,325.904,341.464,326.042L341.464,326.042z
	 M334.952,326.693l5.26-1.985l-3.144-14.69l-5.028,3.06L334.952,326.693L334.952,326.693z"/>
<path fill="#D6CFD5" d="M334.061,327.626l-6.732,2.715l-2.876-13.443l6.504-3.779L334.061,327.626z"/>
<path fill="#12100D" d="M334.345,328.423l-6.701,2.703c-0.433,0.173-0.925-0.037-1.098-0.47c-0.018-0.045-0.032-0.091-0.042-0.139
	l-2.877-13.442c-0.077-0.366,0.096-0.739,0.425-0.918l6.481-3.768c0.403-0.234,0.92-0.097,1.154,0.307
	c0.045,0.078,0.077,0.162,0.096,0.25l3.104,14.508C334.977,327.871,334.738,328.284,334.345,328.423L334.345,328.423z
	 M327.946,329.184l5.139-2.074l-2.713-12.674l-4.966,2.885L327.946,329.184L327.946,329.184z"/>
<path fill="#D6CFD5" d="M323.73,317.066l-5.527,3.95l-3.838-17.94l5.517-3.99L323.73,317.066z"/>
<path fill="#12100D" d="M324.194,317.773l-5.501,3.932c-0.381,0.271-0.909,0.181-1.18-0.2c-0.066-0.094-0.113-0.201-0.138-0.313
	l-3.84-17.94c-0.073-0.347,0.077-0.702,0.376-0.892l5.476-3.96c0.379-0.272,0.907-0.185,1.179,0.194
	c0.068,0.095,0.115,0.203,0.14,0.317h0.003l3.849,17.979c0.072,0.341-0.071,0.692-0.363,0.883V317.773z M318.76,319.58l4.027-2.876
	l-3.46-16.174l-4.022,2.908L318.76,319.58L318.76,319.58z M313.914,302.36l0.274-0.111
	C314.091,302.27,313.998,302.307,313.914,302.36z"/>
<path fill="#D6CFD5" d="M317.75,320.651l-6.43,4.092l-3.767-17.603l6.422-4.129L317.75,320.651z"/>
<path fill="#12100D" d="M318.152,321.395l-6.379,4.06c-0.394,0.25-0.915,0.134-1.165-0.26c-0.055-0.085-0.093-0.179-0.113-0.277
	l-3.769-17.602c-0.073-0.351,0.082-0.711,0.388-0.898l6.404-4.118c0.394-0.251,0.916-0.137,1.168,0.256
	c0.058,0.089,0.097,0.188,0.117,0.292l3.772,17.628C318.654,320.843,318.482,321.216,318.152,321.395L318.152,321.395z
	 M311.893,323.379l4.907-3.124l-3.396-15.872l-4.901,3.151L311.893,323.379L311.893,323.379z M314.802,302.836l0.002,0.012
	L314.802,302.836z"/>
<path fill="#D6CFD5" d="M326.929,330.7l-6.174,2.229l-2.636-12.308l5.933-3.37L326.929,330.7z"/>
<path fill="#12100D" d="M327.163,331.513l-6.124,2.212c-0.438,0.157-0.922-0.072-1.079-0.511c-0.013-0.036-0.023-0.072-0.031-0.109
	l-2.635-12.308c-0.08-0.376,0.104-0.759,0.448-0.932l5.895-3.347c0.406-0.23,0.921-0.088,1.151,0.317
	c0.043,0.075,0.074,0.156,0.092,0.241l2.879,13.446c0.091,0.435-0.168,0.866-0.594,0.99L327.163,331.513z M321.379,331.807
	l4.569-1.649l-2.482-11.602l-4.389,2.495L321.379,331.807z"/>
<path fill="#D6CFD5" d="M320.286,331.932l-6.898,2.466l-2.234-10.439l6.723-3.293L320.286,331.932z"/>
<path fill="#12100D" stroke="#12100D" stroke-width="0.216" stroke-miterlimit="22.926" d="M320.571,332.728l-6.898,2.467
	c-0.44,0.157-0.925-0.072-1.082-0.512c-0.018-0.049-0.03-0.101-0.039-0.152l-2.224-10.397c-0.086-0.4,0.128-0.805,0.507-0.96
	l6.671-3.267c0.418-0.205,0.924-0.031,1.128,0.387c0.031,0.062,0.054,0.128,0.067,0.196h0.002l2.411,11.266
	C321.2,332.17,320.969,332.583,320.571,332.728L320.571,332.728z M314.012,333.275l5.292-1.892l-2.028-9.486l-5.158,2.526
	L314.012,333.275z"/>
<path fill="#D6CFD5" d="M310.988,323.756l-6.43,4.092l-3.767-17.603l6.422-4.129L310.988,323.756z"/>
<path fill="#12100D" d="M311.392,324.498l-6.38,4.061c-0.393,0.25-0.914,0.134-1.164-0.259c-0.055-0.084-0.093-0.178-0.114-0.276
	h-0.001l-3.769-17.602c-0.073-0.351,0.082-0.711,0.389-0.898l6.403-4.118c0.393-0.252,0.916-0.137,1.167,0.256
	c0.058,0.089,0.098,0.188,0.118,0.292l3.773,17.628C311.891,323.948,311.72,324.32,311.392,324.498z M305.132,326.483l4.904-3.123
	l-3.396-15.872l-4.9,3.152L305.132,326.483L305.132,326.483z M308.04,305.94l0.002,0.012L308.04,305.94z"/>
<path fill="#D6CFD5" d="M313.523,335.036l-6.898,2.465l-2.234-10.439l6.722-3.292L313.523,335.036z"/>
<path fill="#12100D" d="M313.808,335.833l-6.898,2.467c-0.44,0.156-0.924-0.074-1.081-0.514c-0.017-0.049-0.03-0.099-0.038-0.15
	l-2.226-10.399c-0.085-0.4,0.129-0.805,0.509-0.959l6.671-3.266c0.419-0.204,0.924-0.03,1.128,0.388
	c0.03,0.062,0.053,0.127,0.067,0.194h0.001l2.411,11.266c0.087,0.414-0.145,0.829-0.542,0.972H313.808z M307.248,336.381
	l5.293-1.893l-2.029-9.484l-5.156,2.527L307.248,336.381L307.248,336.381z"/>
<path fill="#D6CFD5" d="M304.269,326.818l-3.414,3.444l-3.766-17.601l3.405-3.485L304.269,326.818z"/>
<path fill="#17120E" d="M304.841,327.438l-3.387,3.42c-0.33,0.331-0.865,0.331-1.196,0.001c-0.115-0.115-0.195-0.261-0.229-0.421
	h-0.001l-3.769-17.603c-0.062-0.29,0.034-0.59,0.251-0.792l3.377-3.457c0.326-0.334,0.86-0.341,1.194-0.016
	c0.12,0.117,0.202,0.266,0.237,0.429l3.776,17.641C305.158,326.934,305.062,327.237,304.841,327.438L304.841,327.438z
	 M301.354,328.558l1.991-2.011l-3.351-15.653l-1.986,2.033L301.354,328.558L301.354,328.558z"/>
<path fill="#D6CFD5" d="M306.755,338.107l-3.834,1.81l-2.234-10.439l3.656-2.637L306.755,338.107z"/>
<path fill="#17120E" d="M307.088,338.885l-3.806,1.797c-0.423,0.199-0.927,0.017-1.125-0.406c-0.027-0.059-0.048-0.12-0.062-0.184
	l-2.234-10.439c-0.072-0.347,0.078-0.703,0.379-0.892l3.612-2.605c0.378-0.273,0.905-0.188,1.179,0.189
	c0.069,0.096,0.117,0.205,0.142,0.321l2.411,11.266c0.083,0.395-0.124,0.792-0.494,0.951H307.088z M303.524,338.698l2.263-1.069
	l-2.001-9.346l-2.157,1.556L303.524,338.698L303.524,338.698z"/>
<path fill="#12100D" d="M394.4,234.713l-97.982,74.811l1.071,5.011l99.179-69.229L394.4,234.713z"/>
<path fill="#12100D" d="M393.854,236.195l-96.499,73.676l0.694,3.244l97.676-68.177L393.854,236.195z M295.904,308.851
	l97.963-74.792c0.361-0.295,0.893-0.242,1.188,0.119c0.086,0.105,0.146,0.229,0.173,0.362l2.268,10.593
	c0.069,0.332-0.066,0.672-0.344,0.866l-99.13,69.195c-0.362,0.294-0.895,0.238-1.188-0.124c-0.085-0.104-0.143-0.227-0.171-0.359
	l-1.074-5.012C295.522,309.379,295.644,309.049,295.904,308.851L295.904,308.851z"/>
<path fill="#D6CFD5" d="M407.181,297.494l-105.17,41.505l0.329,1.539l105.441-39.957L407.181,297.494z"/>
<path fill="#12100D" d="M406.545,298.653l-94.956,37.475l95.227-36.085L406.545,298.653L406.545,298.653z M301.702,338.211
	l105.153-41.499c0.431-0.179,0.926,0.026,1.104,0.457c0.021,0.053,0.038,0.108,0.049,0.164l0.604,3.088h-0.002
	c0.077,0.403-0.147,0.803-0.531,0.949l-105.414,39.944c-0.431,0.181-0.926-0.021-1.106-0.451c-0.021-0.05-0.037-0.101-0.048-0.154
	l-0.325-1.527c-0.092-0.407,0.127-0.82,0.516-0.973L301.702,338.211z"/>
<path fill="#12100D" d="M416.265,250.047l-19.327-5.154l-2.269-10.594l19.182,4.472L416.265,250.047z"/>
<path fill="#12100D" d="M416.021,250.856l-19.299-5.147c-0.309-0.081-0.546-0.33-0.611-0.643l-2.269-10.593
	c-0.097-0.458,0.196-0.907,0.653-1.003c0.121-0.026,0.246-0.024,0.366,0.003l19.182,4.472c0.342,0.079,0.586,0.355,0.642,0.682
	l2.405,11.244c0.097,0.456-0.195,0.904-0.651,1.002c-0.139,0.028-0.283,0.021-0.419-0.02L416.021,250.856z M397.655,244.209
	l17.494,4.665l-2.011-9.402l-17.363-4.048L397.655,244.209L397.655,244.209z"/>
<path fill="#12100D" d="M458.168,257.907l-20.016-4.461l-1.437-7.466l19.55,3.702L458.168,257.907z"/>
<path fill="#12100D" d="M457.936,258.72l-19.965-4.45c-0.329-0.072-0.583-0.333-0.646-0.665h-0.002l-1.438-7.466
	c-0.089-0.458,0.211-0.901,0.669-0.99c0.118-0.023,0.239-0.02,0.356,0.008l19.511,3.694c0.341,0.064,0.595,0.324,0.668,0.642
	l1.903,8.225c0.104,0.455-0.181,0.909-0.636,1.013C458.218,258.761,458.073,258.758,457.936,258.72L457.936,258.72z
	 M438.878,252.743l18.164,4.048l-1.477-6.382l-17.784-3.368L438.878,252.743z"/>
<path fill="#D6CFD5" d="M464.849,294.259l-18.844,1.005l-0.49-3.022l18.528-1.082L464.849,294.259z"/>
<path fill="#12100D" d="M464.893,295.104l-18.845,1.005c-0.442,0.023-0.828-0.299-0.884-0.738l-0.483-2.997
	c-0.073-0.459,0.239-0.892,0.699-0.965c0.029-0.005,0.059-0.008,0.088-0.01v-0.001l18.528-1.083
	c0.419-0.022,0.786,0.267,0.872,0.665l0.798,3.067c0.117,0.451-0.153,0.913-0.605,1.03
	C465.006,295.091,464.949,295.1,464.893,295.104L464.893,295.104z M446.716,294.382l17.056-0.909l-0.371-1.429l-16.901,0.988
	L446.716,294.382L446.716,294.382z"/>
<path fill="#D6CFD5" d="M425.441,297.159l-17.732,3.08l-0.577-2.974l17.81-2.5L425.441,297.159z"/>
<path fill="#12100D" d="M425.585,297.993l-17.734,3.081c-0.46,0.079-0.896-0.23-0.976-0.69v-0.004l-0.573-2.955
	c-0.088-0.458,0.213-0.9,0.671-0.988c0.022-0.004,0.046-0.008,0.068-0.01l17.785-2.497c0.448-0.062,0.865,0.241,0.946,0.687
	l0.497,2.374c0.095,0.457-0.199,0.904-0.656,1L425.585,297.993L425.585,297.993z M408.382,299.264l16.054-2.789l-0.16-0.763
	l-16.144,2.267L408.382,299.264L408.382,299.264z"/>
<path fill="#C9B79A" d="M446.419,330.021l-13.637,2.955L411.686,223.65l10.041-9.019L446.419,330.021z"/>
<path fill="#12100D" d="M446.6,330.848l-13.64,2.955c-0.456,0.099-0.906-0.191-1.005-0.647c0,0,0-0.001,0-0.001l-0.011-0.05
	L410.856,223.81c-0.055-0.291,0.045-0.589,0.265-0.787l10.041-9.02c0.346-0.313,0.88-0.286,1.192,0.06
	c0.105,0.116,0.176,0.26,0.204,0.414l24.69,115.369C447.346,330.301,447.056,330.749,446.6,330.848L446.6,330.848z M433.447,331.965
	l11.969-2.594l-24.211-113.133l-8.599,7.723l20.841,108.006V331.965z"/>
<path fill="#12100D" d="M453.42,328.676l-6.951,0.81l-24.194-115.453l8.865,5.525L453.42,328.676z"/>
<path fill="#12100D" d="M453.517,329.517l-6.952,0.81c-0.449,0.051-0.859-0.26-0.932-0.707L421.45,214.206
	c-0.094-0.458,0.2-0.905,0.657-0.999c0.212-0.043,0.432-0.004,0.615,0.109l8.865,5.525c0.221,0.137,0.355,0.358,0.391,0.596
	l22.271,109.07c0.094,0.457-0.2,0.902-0.656,0.996c-0.001,0-0.001,0-0.002,0c-0.023,0.004-0.049,0.009-0.072,0.012h-0.002V329.517z
	 M447.136,328.557l5.272-0.615l-22.021-107.856l-6.878-4.288l23.627,112.756V328.557z"/>
<path fill="#12100D" d="M489.528,319.247l-6.465,1.419l-18.854-90.508l8.524,5.602L489.528,319.247z"/>
<path fill="#12100D" d="M489.707,320.074l-6.465,1.42c-0.456,0.099-0.906-0.19-1.006-0.647l-0.009-0.052l-18.847-90.464
	c-0.095-0.457,0.199-0.905,0.656-1c0.236-0.049,0.481,0.005,0.676,0.149l8.482,5.574c0.188,0.124,0.319,0.318,0.363,0.539h0.002
	l16.795,83.489c0.091,0.452-0.197,0.893-0.647,0.991v0.003L489.707,320.074z M483.717,319.657l4.822-1.058l-16.564-82.332
	l-6.522-4.284l18.264,87.672L483.717,319.657z"/>
<path fill="#C9B79A" d="M482.793,321.067l-11.248,2.445l-18.442-85.239l11.089-7.458L482.793,321.067z"/>
<path fill="#12100D" d="M482.973,321.896l-11.248,2.444c-0.457,0.097-0.906-0.193-1.006-0.649l-18.442-85.237
	c-0.077-0.36,0.087-0.729,0.406-0.913l11.042-7.425c0.388-0.259,0.912-0.154,1.171,0.234c0.064,0.097,0.108,0.206,0.129,0.32
	l18.596,90.229c0.092,0.453-0.196,0.896-0.647,0.995V321.896z M472.193,322.506l9.604-2.087l-18.177-88.198l-9.567,6.435
	L472.193,322.506L472.193,322.506z"/>
<path fill="#EBE7EB" d="M395.322,234.161l26.403-19.53l4.554,20.518l20.188,94.337l-13.686,3.49l-18.932-94.204L395.322,234.161z"/>
<path fill="#EBE7EB" d="M437.463,245.38l26.675-14.941l3.916,19.224l14.12,70.98l-10.684,2.49l-15.375-74.24L437.463,245.38z"/>
<path fill="#12100D" d="M437.05,244.642l26.675-14.942c0.406-0.229,0.921-0.085,1.15,0.321c0.053,0.094,0.087,0.196,0.102,0.303
	l3.906,19.169v0.007h0.004l14.117,70.98c0.088,0.448-0.196,0.886-0.642,0.988l-10.681,2.489c-0.455,0.106-0.91-0.178-1.016-0.633
	c-0.006-0.025-0.011-0.05-0.015-0.075l-15.247-73.633l-18.096-3.406c-0.459-0.087-0.761-0.529-0.674-0.988
	c0.046-0.245,0.198-0.457,0.415-0.579V244.642z M463.541,231.742l-23.634,13.239l16.365,3.081c0.327,0.062,0.602,0.315,0.673,0.66
	l15.195,73.388l9.044-2.107l-13.959-70.179h0.001L463.541,231.742L463.541,231.742z"/>
<path fill="#D6CFD5" d="M424.943,297.606l-109.683,40.625l-12.979,2.8L407.716,300.6L424.943,297.606z"/>
<path fill="#12100D" d="M425.227,298.403l-109.675,40.623c-0.047,0.018-0.096,0.031-0.145,0.039l-12.951,2.792
	c-0.459,0.092-0.904-0.206-0.996-0.664c-0.08-0.402,0.139-0.803,0.521-0.953l105.437-40.431c0.062-0.023,0.122-0.04,0.186-0.048
	l17.199-2.987c0.461-0.074,0.896,0.241,0.969,0.702C425.834,297.876,425.605,298.265,425.227,298.403L425.227,298.403z
	 M315.02,337.418l100.971-37.397l-8.047,1.399l-95.106,36.47L315.02,337.418L315.02,337.418z"/>
<path fill="#D6CFD5" d="M427.628,309.949l-103.701,28.068l-3.569-1.926l104.586-38.486L427.628,309.949z"/>
<path fill="#12100D" d="M427.827,310.772l-103.682,28.063c-0.217,0.058-0.448,0.027-0.643-0.086l-3.545-1.915
	c-0.411-0.225-0.562-0.74-0.338-1.151c0.098-0.179,0.256-0.316,0.447-0.388l104.585-38.483c0.438-0.162,0.925,0.062,1.086,0.5
	c0.014,0.038,0.025,0.076,0.033,0.115l2.685,12.342C428.554,310.22,428.274,310.666,427.827,310.772L427.827,310.772z
	 M324.032,337.114l102.598-27.771l-2.307-10.607l-101.914,37.503l1.621,0.874L324.032,337.114z"/>
<path fill="#D6CFD5" d="M493.563,329.755l-24.937,5.336l-2.148-10.041l24.449-5.949L493.563,329.755z"/>
<path fill="#17120E" d="M493.739,330.582l-24.937,5.336c-0.457,0.096-0.905-0.196-1.002-0.653l-2.149-10.041
	c-0.098-0.456,0.193-0.905,0.649-1.002c0.001,0,0.002,0,0.002,0l0.02-0.004l24.405-5.937c0.452-0.109,0.907,0.167,1.019,0.618
	l2.639,10.655c0.111,0.453-0.165,0.91-0.617,1.021c0,0,0,0-0.001,0L493.739,330.582L493.739,330.582z M469.276,334.087l23.258-4.977
	l-2.226-8.988l-22.832,5.553l1.802,8.411L469.276,334.087z"/>
<path fill="#D6CFD5" d="M457.875,338.463l-28.355,6.069l-2.075-9.7l27.522-6.605L457.875,338.463z"/>
<path fill="#17120E" d="M458.05,339.291l-28.354,6.068c-0.457,0.096-0.905-0.195-1.002-0.651l-2.075-9.7
	c-0.096-0.457,0.196-0.905,0.652-1.002l0.035-0.005l27.47-6.592c0.439-0.103,0.883,0.158,1.006,0.593h0.001l2.907,10.235
	c0.127,0.449-0.135,0.916-0.584,1.042c-0.018,0.005-0.036,0.009-0.054,0.013H458.05z M430.169,343.529l26.646-5.702l-2.439-8.589
	l-25.932,6.222L430.169,343.529L430.169,343.529z"/>
<g>
	<path fill="#DF0A15" d="M146.868,334.454l-7.652,1.035l4.914,29.638l-9.894,1.337l-4.914-29.638l-2.943,0.398l-0.837-5.046
		l2.943-0.398c-0.539-3.25-0.015-5.775,1.595-7.543c1.607-1.78,4.805-2.994,9.594-3.642l4.789-0.647l0.838,5.047l-4.789,0.647
		c-1.915,0.259-2.62,1.862-2.133,4.8l7.653-1.035L146.868,334.454L146.868,334.454z"/>
	<path fill="#DF0A15" d="M175.85,333.109l-9.896,1.338l-1.588-9.579c-0.265-1.603-1.346-2.271-3.261-2.011
		c-1.899,0.255-2.716,1.18-2.451,2.784l6.085,36.698l-9.897,1.338l-7.318-44.145l9.895-1.337l0.252,1.517
		c1.731-1.268,4.287-2.131,7.664-2.588c1.992-0.271,3.873,0.179,5.67,1.334c1.81,1.151,2.885,2.844,3.255,5.071l1.587,9.579
		L175.85,333.109z"/>
	<path fill="#DF0A15" d="M181.159,352.515l-4.851-29.262c-0.822-4.961,3.013-8.021,11.523-9.171
		c8.508-1.151,13.169,0.759,13.992,5.721l4.852,29.262c0.855,5.165-2.965,8.321-11.475,9.472
		C186.69,359.688,182.015,357.679,181.159,352.515L181.159,352.515z M196.78,350.402l-4.852-29.262
		c-0.265-1.603-1.347-2.271-3.259-2.011c-1.913,0.258-2.731,1.183-2.466,2.786l4.853,29.262c0.262,1.591,1.346,2.259,3.258,2
		C196.226,352.92,197.044,351.996,196.78,350.402L196.78,350.402z"/>
	<path fill="#DF0A15" d="M236.076,352.691l-9.895,1.337l-6.085-36.698c-0.265-1.604-1.346-2.271-3.261-2.013
		c-1.899,0.256-2.716,1.18-2.45,2.785l6.083,36.698l-9.895,1.338l-7.318-44.143l9.895-1.339l0.252,1.518
		c1.731-1.27,4.287-2.131,7.664-2.588c1.994-0.271,3.874,0.179,5.672,1.334c1.81,1.152,2.885,2.844,3.256,5.071L236.076,352.691
		L236.076,352.691z"/>
	<path fill="#DF0A15" d="M252.742,314.975l-7.653,1.035l-1.567-9.46l-9.895,1.338l1.568,9.46l-2.942,0.398l0.836,5.047l2.943-0.398
		l3.345,20.177c0.54,3.261,1.86,5.525,3.974,6.802c2.112,1.266,5.563,1.581,10.352,0.933l4.791-0.647l-0.837-5.047l-4.791,0.647
		c-1.912,0.259-3.104-1.075-3.593-4.024l-3.346-20.178l7.652-1.034L252.742,314.975L252.742,314.975z"/>
	<path fill="#DF0A15" d="M281.417,347.22l-9.79,1.324l-7.319-44.145l9.79-1.325L281.417,347.22L281.417,347.22z M263.448,299.619
		c0.18,1.076,0.81,1.95,1.906,2.625c1.112,0.686,2.339,0.927,3.711,0.741c1.358-0.182,2.455-0.727,3.299-1.655
		c0.833-0.917,1.16-1.952,0.968-3.112c-0.188-1.13-0.82-2.014-1.869-2.642c-1.051-0.638-2.234-0.864-3.554-0.687
		c-1.36,0.184-2.492,0.755-3.387,1.702C263.629,297.538,263.273,298.554,263.448,299.619L263.448,299.619z"/>
	<path fill="#DF0A15" d="M309.941,343.362l-9.896,1.338l-6.085-36.697c-0.265-1.604-1.346-2.271-3.261-2.013
		c-1.899,0.256-2.716,1.18-2.451,2.785l6.085,36.697l-9.895,1.337l-7.321-44.143l9.896-1.339l0.251,1.518
		c1.731-1.268,4.287-2.13,7.664-2.588c1.992-0.269,3.873,0.181,5.671,1.336c1.81,1.152,2.887,2.844,3.255,5.071l6.083,36.698
		H309.941z"/>
</g>
<path fill="#DF0A15" d="M121.618,385.592c-8.638,30.962-17.457,62.166-25.894,92.874c-6.477,23.592-2.822,25.226,19.705,25.201
	l70.956-0.073c3.941,0.402,6.989,1.643,8.588,4.231c2.82,4.564-0.001,12.025-1.282,16.927l-3.322,12.709
	c-4.006,15.32,1.853,11.468,11.779,3.704c9.083-7.104,18.164-14.209,27.247-21.314c5.742-4.491,13.219-11.261,19.568-14.356
	c1.66-0.814,3.392-1.475,5.174-1.972l255.192-0.265c16.946-0.018,33.243,1.668,28.776-20.096
	c-9.836-47.894-19.679-101.179-29.516-148.572c-6.65-32.047-11.375-28.434-41.568-23.576
	c-104.901,16.874-209.802,33.754-314.702,50.626c-18.183,2.923-25.449,5.119-30.702,23.952H121.618z"/>
<g>
	<path fill="#FFFFFF" d="M174.473,464.601l-53.097-19.706l-1.102-10.75l47.924-30.672l1.252,12.199l-34.482,22.464l38.245,14.199
		L174.473,464.601z M176.958,445.796l18.008-1.76l1.596,15.552c0.348,3.4,2.251,4.933,5.734,4.59
		c3.457-0.337,5.012-2.205,4.663-5.606c-0.857-8.36-5.248-16.401-13.197-24.139c-7.949-7.737-13.235-12.696-15.884-14.875
		c-2.623-2.156-4.162-5.324-4.59-9.503l-1.145-11.165c-1.088-10.59,6.101-16.653,21.586-18.166
		c15.464-1.513,23.74,3.04,24.826,13.63l1.584,15.414l-18.009,1.76l-1.583-15.414c-0.351-3.425-2.255-4.956-5.711-4.616
		c-3.481,0.339-5.036,2.208-4.685,5.63c0.442,6.198,1.679,10.208,3.707,12.004c2.05,1.796,7.411,7.003,16.104,15.62
		c8.693,8.616,13.312,15.565,13.849,20.804l1.154,11.256c1.132,11.026-6.032,17.295-21.496,18.808
		c-15.486,1.513-23.784-3.243-24.917-14.271l-1.593-15.552L176.958,445.796z M277.741,467.687l-18.007,1.761l-0.312-3.032
		c-1.137,2.871-5.219,4.663-12.303,5.355c-10.469,1.023-16.109-2.417-16.921-10.318l-3.1-30.208
		c-0.361-3.515,0.553-6.666,2.684-9.521c2.16-2.833,7.035-6.604,14.656-11.271c5.365-2.797,8.229-4.889,8.594-6.293l-1.338-13.046
		c-0.352-3.423-2.255-4.954-5.737-4.614c-3.458,0.339-5.036,2.209-4.685,5.633l1.478,14.403l-18.008,1.76l-1.478-14.403
		c-1.087-10.59,6.124-16.655,21.586-18.166c15.486-1.513,23.763,3.037,24.85,13.626L277.741,467.687z M258.105,453.575
		l-3.526-34.344c-6.876,1.763-10.13,4.077-9.812,6.944l2.917,28.416c0.35,3.401,2.276,4.931,5.733,4.59
		c3.481-0.339,5.036-2.209,4.686-5.607L258.105,453.575z M357.253,459.326l-18.008,1.76l-8.04-78.333
		c-0.353-3.423-2.254-4.954-5.735-4.613c-3.482,0.341-5.036,2.208-4.685,5.632l8.04,78.332l-18.009,1.76l-8.04-78.332
		c-0.353-3.423-2.256-4.955-5.737-4.615c-3.458,0.338-5.012,2.206-4.66,5.63l8.04,78.333l-18.008,1.76l-9.671-94.23l18.007-1.76
		l0.346,3.376c3.226-2.59,7.915-4.185,14.061-4.786c4.658-0.455,9.504,0.904,14.554,4.03c3.112-3.925,7.272-6.164,12.53-6.678
		c3.479-0.341,6.994,0.337,10.588,2.028c3.569,1.692,5.714,5.82,6.386,12.368l8.04,78.334L357.253,459.326z M371.508,365.31
		l-0.271-2.641l-18.008,1.759l9.669,94.227l18.009-1.76l-1.338-13.048c3.899,1.613,8.803,2.131,14.71,1.554
		c3.625-0.354,6.77-1.613,9.431-3.798c2.665-2.164,3.636-6.645,2.936-13.467l-5.374-52.35c-0.69-6.732-2.85-10.999-6.528-12.82
		c-3.655-1.825-8.04-2.486-13.105-1.992c-3.938,0.387-7.305,1.83-10.129,4.332V365.31z M383.265,377.55l5.374,52.351
		c0.352,3.423-1.202,5.292-4.66,5.631c-3.479,0.339-5.384-1.192-5.737-4.615l-5.372-52.352c-0.352-3.423,1.203-5.291,4.685-5.63
		c3.458-0.338,5.362,1.192,5.713,4.616H383.265z M460.445,449.83l-18.009,1.761l-0.311-3.032c-1.137,2.873-5.222,4.663-12.304,5.355
		c-10.469,1.023-16.109-2.417-16.92-10.318l-3.101-30.209c-0.36-3.515,0.553-6.666,2.684-9.521
		c2.159-2.832,7.035-6.603,14.656-11.269c5.365-2.797,8.23-4.889,8.595-6.293l-1.338-13.047c-0.352-3.423-2.256-4.954-5.738-4.614
		c-3.456,0.337-5.035,2.209-4.684,5.632l1.478,14.402l-18.007,1.761l-1.478-14.404c-1.088-10.589,6.123-16.655,21.586-18.165
		c15.486-1.514,23.763,3.038,24.85,13.627L460.445,449.83L460.445,449.83z M440.807,435.719l-3.523-34.344
		c-6.876,1.763-10.13,4.076-9.812,6.945l2.916,28.414c0.351,3.401,2.276,4.932,5.734,4.592
		C439.604,440.985,441.157,439.116,440.807,435.719L440.807,435.719z M464.39,436.267l48.036-29.591l-1.102-10.749l-53.209-20.786
		l1.253,12.198l38.365,15.345l-34.602,21.317L464.39,436.267z"/>
</g>
</svg>
