<svg version="1.1" id="svg" xmlns="http://www.w3.org/2000/svg" xmlns:xlink="http://www.w3.org/1999/xlink" x="0px" y="0px" width="100%" height="100%" viewBox="0 0 700 630" enable-background="new 0 0 700 630" xml:space="preserve">
  <g>
    <polygon class="animate-left-2" fill-rule="evenodd" clip-rule="evenodd" fill="#D6CFD5" points="458.703,169.499 449.352,175.452 443.87,149.842
    453.211,143.834   "></polygon>
    <g>
      <path class="animate-left-2" fill-rule="evenodd" clip-rule="evenodd" fill="#12100D" d="M459.166,170.349l-9.297,5.917
      c-0.449,0.286-1.046,0.154-1.332-0.295c-0.063-0.1-0.106-0.208-0.13-0.319l-0.002,0.001l-5.481-25.61
      c-0.087-0.413,0.103-0.819,0.444-1.027l9.32-5.995c0.45-0.288,1.048-0.158,1.337,0.292c0.067,0.106,0.112,0.219,0.135,0.335
      l5.489,25.651C459.74,169.727,459.532,170.149,459.166,170.349L459.166,170.349z M450.006,173.891l7.611-4.845l-5.059-23.642
      l-7.603,4.89L450.006,173.891L450.006,173.891z M454.157,143.634l0.003,0.014L454.157,143.634z"></path>
    </g>
    <polygon class="animate-right-2" fill-rule="evenodd" clip-rule="evenodd" fill="#D6CFD5" points="480.83,171.985 458.703,169.499 453.705,142.639
    476.119,148.06  "></polygon>
    <path fill-rule="evenodd" class="animate-right" clip-rule="evenodd" fill="#12100D" d="M480.678,172.941l-22.08-2.481
    c-0.451-0.05-0.796-0.403-0.853-0.834l-4.99-26.813c-0.096-0.524,0.252-1.028,0.776-1.124c0.143-0.026,0.283-0.02,0.414,0.015
    l22.401,5.418c0.378,0.091,0.65,0.395,0.721,0.753l0.002,0l4.711,23.926c0.102,0.524-0.24,1.033-0.765,1.135
    C480.9,172.958,480.787,172.958,480.678,172.941L480.678,172.941z M459.521,168.618l20.104,2.259l-4.336-22.024l-20.361-4.925
    L459.521,168.618z"></path>
    <polygon fill-rule="evenodd" class="animate-right" clip-rule="evenodd" fill="#D6CFD5" points="527.358,177.91 505.358,176.026 500.857,151.486
    523.089,156.059   "></polygon>
    <path fill-rule="evenodd" class="animate-right-2" clip-rule="evenodd" fill="#17120E" d="M527.278,178.875l-22-1.884c-0.47-0.038-0.834-0.408-0.883-0.861
    l-4.488-24.47c-0.096-0.524,0.252-1.028,0.776-1.124c0.134-0.025,0.267-0.02,0.392,0.009l22.207,4.567
    c0.394,0.08,0.683,0.39,0.755,0.761l0.002,0l4.269,21.852c0.103,0.524-0.24,1.033-0.765,1.135
    C527.454,178.877,527.365,178.882,527.278,178.875L527.278,178.875L527.278,178.875z M506.175,175.124l19.987,1.712l-3.9-19.962
    l-20.196-4.154L506.175,175.124z"></path>
    <polygon fill-rule="evenodd" class="animate-right-2" clip-rule="evenodd" fill="#D6CFD5" points="530.704,195.462 509.271,196.211 505.33,174.299
    526.939,175.956   "></polygon>
    <path fill-rule="evenodd" class="animate-right" clip-rule="evenodd" fill="#12100D" d="M530.68,196.43l-21.379,0.746
    c-0.496,0.016-0.917-0.346-0.986-0.826l-3.935-21.88c-0.094-0.525,0.255-1.026,0.779-1.121c0.082-0.015,0.163-0.018,0.242-0.013
    v-0.002l21.61,1.657c0.458,0.034,0.817,0.382,0.885,0.818l3.758,19.472c0.101,0.525-0.243,1.031-0.769,1.132
    C530.816,196.426,530.747,196.431,530.68,196.43L530.68,196.43z M510.072,195.217l19.469-0.68l-3.411-17.673l-19.629-1.505
    L510.072,195.217z"></path>
    <polygon fill-rule="evenodd" class="animate-right" clip-rule="evenodd" fill="#D6CFD5" points="486.043,199.208 465.674,202.068 458.514,169.88
    480.83,171.985  "></polygon>
    <path fill-rule="evenodd" class="animate-right-2" clip-rule="evenodd" fill="#12100D" d="M486.146,200.17l-20.341,2.856c-0.52,0.072-1-0.284-1.086-0.798
    l-7.149-32.139c-0.114-0.521,0.214-1.036,0.734-1.15c0.102-0.022,0.202-0.028,0.299-0.019l22.317,2.105
    c0.438,0.041,0.779,0.368,0.857,0.779h0.002l5.213,27.223c0.101,0.525-0.244,1.032-0.769,1.132
    C486.198,200.163,486.173,200.167,486.146,200.17L486.146,200.17z M466.422,200.987l18.48-2.595l-4.886-25.514l-20.273-1.912
    L466.422,200.987z"></path>
    <polygon class="animate-left-2" fill-rule="evenodd" clip-rule="evenodd" fill="#D6CFD5" points="448.7,175.591 439.373,181.674 434.06,156.846
    443.402,150.838   "></polygon>
    <g>
      <path class="animate-left-2" fill-rule="evenodd" clip-rule="evenodd" fill="#12100D" d="M449.184,176.429l-9.284,6.055
      c-0.447,0.291-1.045,0.164-1.336-0.284c-0.066-0.103-0.111-0.213-0.135-0.326h-0.001l-5.313-24.828
      c-0.088-0.412,0.103-0.82,0.443-1.027l9.323-5.995c0.449-0.289,1.047-0.158,1.336,0.291c0.067,0.106,0.112,0.22,0.135,0.336
      l5.295,24.739C449.735,175.811,449.536,176.225,449.184,176.429L449.184,176.429z M440.025,180.097l7.591-4.951l-4.867-22.738
      l-7.604,4.89L440.025,180.097L440.025,180.097z M444.349,150.638l0.003,0.014L444.349,150.638z"></path>
    </g>
    <polygon class="animate-left" fill-rule="evenodd" clip-rule="evenodd" fill="#D6CFD5" points="438.669,182.051 429.527,187.869 424.307,163.476
    433.437,157.604   "></polygon>
    <g>
      <path class="animate-left" fill-rule="evenodd" clip-rule="evenodd" fill="#12100D" d="M439.131,182.9l-9.085,5.782
      c-0.449,0.286-1.046,0.154-1.332-0.295c-0.064-0.101-0.107-0.208-0.131-0.319l-0.002,0l-5.221-24.393
      c-0.087-0.413,0.103-0.82,0.444-1.027l9.109-5.859c0.449-0.288,1.048-0.158,1.336,0.292c0.068,0.106,0.113,0.22,0.136,0.336
      l5.229,24.433C439.705,182.279,439.497,182.702,439.131,182.9L439.131,182.9z M430.182,186.308l7.401-4.709l-4.8-22.424
      l-7.391,4.753L430.182,186.308L430.182,186.308z M434.383,157.404l0.003,0.014L434.383,157.404z"></path>
    </g>
    <polygon class="animate-left" fill-rule="evenodd" clip-rule="evenodd" fill="#D6CFD5" points="429.208,188.408 420.307,193.793 415.199,169.933
    424.037,164.247   "></polygon>
    <g>
      <path class="animate-left" fill-rule="evenodd" clip-rule="evenodd" fill="#12100D" d="M429.708,189.237l-8.902,5.385
      c-0.458,0.275-1.053,0.128-1.329-0.329c-0.063-0.105-0.104-0.218-0.125-0.333l-5.1-23.828c-0.087-0.413,0.103-0.819,0.444-1.027
      l8.818-5.672c0.449-0.289,1.048-0.158,1.336,0.291c0.068,0.106,0.112,0.22,0.136,0.335l5.168,24.147
      C430.242,188.622,430.051,189.029,429.708,189.237L429.708,189.237L429.708,189.237z M420.968,192.262l7.15-4.326l-4.734-22.12
      l-7.099,4.567L420.968,192.262L420.968,192.262z M424.983,164.046l0.003,0.014L424.983,164.046z"></path>
    </g>
    <polygon class="animate-left-2" fill-rule="evenodd" clip-rule="evenodd" fill="#D6CFD5" points="419.921,194.146 411.304,199.63 406.254,176.038
    414.863,170.502   "></polygon>
    <g>
      <path class="animate-left" fill-rule="evenodd" clip-rule="evenodd" fill="#12100D" d="M420.384,194.996l-8.561,5.448
      c-0.449,0.287-1.046,0.154-1.333-0.295c-0.063-0.101-0.106-0.208-0.13-0.319l-0.002,0.001l-5.049-23.592
      c-0.087-0.413,0.103-0.82,0.444-1.027l8.588-5.523c0.449-0.288,1.047-0.158,1.336,0.292c0.068,0.106,0.113,0.219,0.135,0.336
      l5.056,23.629C420.958,194.374,420.75,194.797,420.384,194.996L420.384,194.996z M411.959,198.07l6.876-4.376l-4.626-21.621
      l-6.869,4.417L411.959,198.07L411.959,198.07z M415.809,170.302l0.003,0.014L415.809,170.302z"></path>
    </g>
    <polygon class="animate-left-2" fill-rule="evenodd" clip-rule="evenodd" fill="#D6CFD5" points="410.872,199.521 402.421,204.899 397.47,181.76
    405.91,176.331  "></polygon>
    <g>
      <path class="animate-left-2" fill-rule="evenodd" clip-rule="evenodd" fill="#12100D" d="M411.334,200.37l-8.394,5.343
      c-0.45,0.286-1.046,0.154-1.333-0.295c-0.064-0.101-0.107-0.208-0.13-0.318l-0.002,0l-4.951-23.14
      c-0.087-0.412,0.103-0.819,0.444-1.026l8.419-5.417c0.449-0.289,1.048-0.158,1.336,0.292c0.068,0.106,0.113,0.219,0.136,0.335
      l4.959,23.176C411.909,199.749,411.7,200.171,411.334,200.37L411.334,200.37z M403.076,203.338l6.709-4.271l-4.529-21.167
      l-6.701,4.311L403.076,203.338L403.076,203.338z M406.855,176.13l0.003,0.014L406.855,176.13z"></path>

      <path class="animate-left" fill-rule="evenodd" clip-rule="evenodd" fill="none" stroke="#12100D" stroke-width="0.216" stroke-miterlimit="22.9256" d="
      M411.334,200.37l-8.394,5.343c-0.45,0.286-1.046,0.154-1.333-0.295c-0.064-0.101-0.107-0.208-0.13-0.318l-0.002,0l-4.951-23.14
      c-0.087-0.412,0.103-0.819,0.444-1.026l8.419-5.417c0.449-0.289,1.048-0.158,1.336,0.292c0.068,0.106,0.113,0.219,0.136,0.335
      l4.959,23.176C411.909,199.749,411.7,200.171,411.334,200.37L411.334,200.37z M403.076,203.338l6.709-4.271l-4.529-21.167
      l-6.701,4.311L403.076,203.338L403.076,203.338z M406.855,176.13l0.003,0.014"></path>
    </g>
    <polygon class="animate-left-2" fill-rule="evenodd" clip-rule="evenodd" fill="#D6CFD5" points="465.674,202.068 455.819,205.676 449.517,176.225
    458.76,169.76   "></polygon>
    <path class="animate-left" fill-rule="evenodd" clip-rule="evenodd" fill="#12100D" d="M466.007,202.977l-9.854,3.608
    c-0.502,0.184-1.059-0.074-1.242-0.576c-0.02-0.055-0.035-0.11-0.045-0.167l-6.296-29.417c-0.088-0.415,0.104-0.824,0.45-1.031
    l9.187-6.426c0.437-0.305,1.038-0.198,1.343,0.238c0.077,0.11,0.127,0.229,0.153,0.353l0.002,0l6.914,32.309
    C466.721,202.345,466.451,202.813,466.007,202.977L466.007,202.977L466.007,202.977z M456.532,204.385l8.02-2.936l-6.434-30.063
    l-7.522,5.262L456.532,204.385z"></path>
    <polygon class="animate-left-2" fill-rule="evenodd" clip-rule="evenodd" fill="#D6CFD5" points="455.427,205.76 445.424,209.945 439.525,182.381
    448.867,176.373   "></polygon>
    <g>
      <path class="animate-left" fill-rule="evenodd" clip-rule="evenodd" fill="#12100D" d="M455.798,206.653l-10.003,4.185
      c-0.493,0.205-1.06-0.029-1.265-0.522c-0.023-0.056-0.041-0.114-0.053-0.172l-5.899-27.562c-0.087-0.413,0.104-0.82,0.444-1.027
      l9.322-5.995c0.449-0.288,1.048-0.158,1.336,0.292c0.075,0.116,0.121,0.242,0.142,0.37l6.547,29.332
      c0.103,0.464-0.147,0.924-0.571,1.1V206.653L455.798,206.653z M446.126,208.603l8.183-3.422l-6.081-27.247l-7.617,4.898
      L446.126,208.603L446.126,208.603z M444.478,210.146v-0.002V210.146z"></path>
    </g>
    <polygon class="animate-left-2" fill-rule="evenodd" clip-rule="evenodd" fill="#D6CFD5" points="444.635,209.93 435.076,213.794 429.604,188.229
    438.732,182.356   "></polygon>
    <g>
      <path class="animate-left" fill-rule="evenodd" clip-rule="evenodd" fill="#12100D" d="M444.961,210.84l-9.525,3.851
      c-0.495,0.198-1.059-0.042-1.256-0.538c-0.021-0.052-0.037-0.105-0.049-0.159l-0.001,0l-5.473-25.566
      c-0.087-0.413,0.104-0.819,0.444-1.027l9.108-5.86c0.45-0.289,1.048-0.158,1.337,0.291c0.067,0.106,0.112,0.22,0.135,0.336
      l5.899,27.56C445.683,210.209,445.409,210.68,444.961,210.84L444.961,210.84z M435.781,212.467l7.738-3.129l-5.439-25.413
      l-7.391,4.754L435.781,212.467L435.781,212.467z M439.679,182.156l0.003,0.014L439.679,182.156z"></path>
    </g>
    <polygon class="animate-left-2" fill-rule="evenodd" clip-rule="evenodd" fill="#D6CFD5" points="434.672,213.942 425.436,217.764 420.413,194.293
    429.252,188.609   "></polygon>
    <g>
      <path class="animate-left" fill-rule="evenodd" clip-rule="evenodd" fill="#12100D" d="M434.991,214.854l-9.188,3.802
      c-0.493,0.203-1.058-0.032-1.261-0.526c-0.022-0.055-0.04-0.11-0.052-0.167l-0.001,0l-5.023-23.47
      c-0.087-0.412,0.103-0.819,0.444-1.027l8.819-5.672c0.449-0.288,1.048-0.158,1.336,0.292c0.068,0.105,0.112,0.219,0.136,0.335
      l5.417,25.319C435.721,214.223,435.444,214.697,434.991,214.854L434.991,214.854z M426.139,216.428l7.42-3.07l-4.96-23.179
      l-7.101,4.566L426.139,216.428L426.139,216.428z M430.198,188.409l0.003,0.014L430.198,188.409z"></path>
    </g>
    <polygon class="animate-left-2" fill-rule="evenodd" clip-rule="evenodd" fill="#D6CFD5" points="425.051,218.117 416.016,221.647 411.386,200.009
    419.992,194.473   "></polygon>
    <g>
      <path class="animate-left-2" fill-rule="evenodd" clip-rule="evenodd" fill="#12100D" d="M425.403,219.018l-9.036,3.531
      c-0.498,0.194-1.059-0.051-1.253-0.549c-0.022-0.056-0.038-0.113-0.049-0.17l-4.626-21.62c-0.087-0.413,0.102-0.82,0.443-1.027
      l8.587-5.523c0.449-0.289,1.047-0.158,1.336,0.292c0.067,0.106,0.112,0.219,0.135,0.335l5.056,23.63
      C426.097,218.386,425.837,218.849,425.403,219.018L425.403,219.018z M416.724,220.333l7.21-2.817l-4.594-21.473l-6.868,4.417
      L416.724,220.333L416.724,220.333z M420.938,194.272l0.003,0.014L420.938,194.272z"></path>
    </g>
    <polygon class="animate-left" fill-rule="evenodd" clip-rule="evenodd" fill="#D6CFD5" points="415.667,221.928 406.882,225.743 402.516,205.339
    410.956,199.911   "></polygon>
    <g>
      <path class="animate-left-2" fill-rule="evenodd" clip-rule="evenodd" fill="#12100D" d="M415.988,222.84l-8.724,3.788
      c-0.489,0.211-1.057-0.014-1.268-0.503c-0.026-0.06-0.045-0.121-0.059-0.182l-0.002,0l-4.366-20.403
      c-0.087-0.412,0.103-0.819,0.444-1.027l8.42-5.415c0.449-0.289,1.048-0.158,1.336,0.291c0.068,0.106,0.113,0.22,0.136,0.336
      l4.708,22.003C416.715,222.208,416.44,222.682,415.988,222.84L415.988,222.84z M407.581,224.388l6.975-3.029l-4.252-19.877
      l-6.702,4.31L407.581,224.388L407.581,224.388z M411.902,199.711l0.003,0.014L411.902,199.711z"></path>
    </g>
    <polygon class="animate-left-2" fill-rule="evenodd" clip-rule="evenodd" fill="#D6CFD5" points="402.179,204.597 394.079,209.753 389.332,187.569
    397.422,182.366   "></polygon>
    <g>
      <path class="animate-left" fill-rule="evenodd" clip-rule="evenodd" fill="#12100D" d="M402.641,205.446l-8.044,5.12
      c-0.449,0.286-1.046,0.154-1.332-0.295c-0.064-0.1-0.107-0.208-0.13-0.318l-0.002,0.001l-4.747-22.184
      c-0.087-0.412,0.103-0.819,0.443-1.027l8.07-5.19c0.449-0.289,1.048-0.158,1.336,0.292c0.067,0.105,0.112,0.219,0.135,0.335
      l4.754,22.217C403.216,204.825,403.007,205.247,402.641,205.446L402.641,205.446z M394.733,208.192l6.359-4.048l-4.324-20.208
      l-6.352,4.085L394.733,208.192L394.733,208.192z M398.368,182.166l0.003,0.014L398.368,182.166z"></path>
    </g>
    <polygon class="animate-left" fill-rule="evenodd" clip-rule="evenodd" fill="#D6CFD5" points="394.074,209.78 385.991,214.924 381.255,192.793
    389.328,187.601   "></polygon>
    <g>
      <path class="animate-left-2" fill-rule="evenodd" clip-rule="evenodd" fill="#12100D" d="M394.537,210.63l-8.027,5.108
      c-0.449,0.286-1.046,0.154-1.333-0.295c-0.063-0.1-0.106-0.208-0.13-0.318l-0.002,0l-4.736-22.132
      c-0.087-0.413,0.103-0.82,0.444-1.027l8.053-5.179c0.45-0.288,1.048-0.158,1.336,0.292c0.068,0.105,0.113,0.219,0.135,0.335
      l4.744,22.166C395.111,210.008,394.903,210.431,394.537,210.63L394.537,210.63z M386.646,213.364l6.343-4.036l-4.314-20.158
      l-6.334,4.074L386.646,213.364L386.646,213.364z M390.274,187.4l0.003,0.014L390.274,187.4z"></path>
    </g>
    <polygon class="animate-left" fill-rule="evenodd" clip-rule="evenodd" fill="#D6CFD5" points="406.198,225.433 398.487,228.446 394.535,209.978
    401.88,205.254  "></polygon>
    <g>
      <path class="animate-left-2" fill-rule="evenodd" clip-rule="evenodd" fill="#12100D" d="M406.55,226.334l-7.712,3.013
      c-0.497,0.195-1.059-0.051-1.252-0.549c-0.022-0.056-0.039-0.113-0.05-0.17l-3.947-18.45c-0.087-0.413,0.103-0.82,0.444-1.027
      l7.324-4.71c0.449-0.289,1.048-0.158,1.336,0.291c0.068,0.106,0.112,0.22,0.135,0.335l4.315,20.166
      C407.244,225.703,406.983,226.165,406.55,226.334L406.55,226.334z M399.194,227.131l5.886-2.3l-3.854-18.007l-5.605,3.605
      L399.194,227.131L399.194,227.131z M402.826,205.054l0.003,0.013L402.826,205.054z"></path>
    </g>
    <polygon class="animate-left-2" fill-rule="evenodd" clip-rule="evenodd" fill="#D6CFD5" points="398.583,229.975 390.758,233.373 386.867,215.197
    394.386,210.361   "></polygon>
    <g>
      <path class="animate-left" fill-rule="evenodd" clip-rule="evenodd" fill="#12100D" d="M398.904,230.887l-7.764,3.372
      c-0.489,0.211-1.057-0.014-1.268-0.503c-0.025-0.06-0.044-0.121-0.058-0.183l-0.002,0l-3.891-18.176
      c-0.087-0.412,0.103-0.819,0.443-1.027l7.499-4.823c0.45-0.289,1.048-0.158,1.336,0.291c0.068,0.106,0.113,0.22,0.135,0.335
      l4.194,19.6C399.63,230.255,399.356,230.729,398.904,230.887L398.904,230.887z M391.456,232.018l6.016-2.613l-3.739-17.474
      l-5.781,3.718L391.456,232.018L391.456,232.018z M395.332,210.161l0.003,0.013L395.332,210.161z"></path>
    </g>
    <polygon class="animate-left-2" fill-rule="evenodd" clip-rule="evenodd" fill="#D6CFD5" points="385.586,214.942 378.685,219.645 374.21,198.735
    381.102,193.988   "></polygon>
    <path class="animate-left-2" fill-rule="evenodd" clip-rule="evenodd" fill="#12100D" d="M386.113,215.753l-6.883,4.69
    c-0.441,0.301-1.042,0.188-1.344-0.253c-0.073-0.107-0.122-0.225-0.147-0.345l-4.475-20.909c-0.087-0.412,0.102-0.818,0.442-1.026
    l6.847-4.717c0.439-0.303,1.041-0.193,1.344,0.246c0.075,0.108,0.125,0.227,0.15,0.349l0.001,0l4.484,20.954
    C386.618,215.144,386.438,215.542,386.113,215.753L386.113,215.753z M379.33,218.036l5.175-3.527l-4.045-18.905l-5.168,3.56
    L379.33,218.036z"></path>
    <polygon class="animate-left" fill-rule="evenodd" clip-rule="evenodd" fill="#D6CFD5" points="378.458,219.802 370.739,224.715 366.215,203.578
    373.926,198.618   "></polygon>
    <g>
      <path class="animate-left" fill-rule="evenodd" clip-rule="evenodd" fill="#12100D" d="M378.92,220.651l-7.663,4.877
      c-0.449,0.286-1.046,0.154-1.333-0.295c-0.064-0.101-0.107-0.208-0.13-0.318l-0.002,0l-4.523-21.137
      c-0.087-0.412,0.102-0.819,0.443-1.027l7.691-4.947c0.449-0.289,1.047-0.158,1.336,0.292c0.068,0.105,0.113,0.219,0.135,0.335
      l4.529,21.17C379.495,220.03,379.286,220.452,378.92,220.651L378.92,220.651z M371.394,223.154l5.979-3.805l-4.099-19.162
      l-5.972,3.842L371.394,223.154L371.394,223.154z M374.872,198.418l0.003,0.014L374.872,198.418z"></path>
    </g>
    <polygon class="animate-left" fill-rule="evenodd" clip-rule="evenodd" fill="#D6CFD5" points="390.25,234.068 382.404,237.028 378.693,219.686
    386.196,215.12  "></polygon>
    <path class="animate-left-2" fill-rule="evenodd" clip-rule="evenodd" fill="#12100D" d="M390.563,234.983l-7.817,2.949
    c-0.5,0.188-1.058-0.065-1.246-0.564c-0.017-0.046-0.031-0.093-0.041-0.14l0,0l-3.711-17.342c-0.09-0.426,0.115-0.846,0.477-1.046
    l7.469-4.544c0.456-0.278,1.051-0.134,1.329,0.321c0.059,0.096,0.099,0.199,0.12,0.303h0l4.054,18.948
    C391.299,234.352,391.02,234.828,390.563,234.983L390.563,234.983z M383.115,235.727l6.016-2.269l-3.596-16.804l-5.752,3.5
    L383.115,235.727z"></path>
    <polygon class="animate-left-2" fill-rule="evenodd" clip-rule="evenodd" fill="#D6CFD5" points="382.095,236.795 374.396,239.901 371.106,224.524
    378.545,220.202   "></polygon>
    <path class="animate-left" fill-rule="evenodd" clip-rule="evenodd" fill="#12100D" d="M382.42,237.706l-7.664,3.092
    c-0.495,0.198-1.058-0.042-1.256-0.538c-0.021-0.052-0.037-0.106-0.048-0.159h-0.001l-3.29-15.376
    c-0.091-0.429,0.119-0.853,0.486-1.051l7.414-4.308c0.462-0.268,1.053-0.11,1.321,0.352c0.052,0.091,0.088,0.187,0.109,0.284h0
    l3.55,16.594C383.142,237.074,382.869,237.546,382.42,237.706L382.42,237.706z M375.102,238.575l5.877-2.371l-3.101-14.496
    l-5.679,3.3L375.102,238.575z"></path>
    <polygon class="animate-left" fill-rule="evenodd" clip-rule="evenodd" fill="#D6CFD5" points="370.28,224.716 363.958,229.234 359.567,208.713
    365.878,204.15  "></polygon>
    <g>
      <path class="animate-left" fill-rule="evenodd" clip-rule="evenodd" fill="#12100D" d="M370.809,225.525l-6.291,4.497
      c-0.435,0.309-1.038,0.208-1.348-0.227c-0.079-0.112-0.131-0.234-0.158-0.36l-0.001,0l-4.391-20.521
      c-0.086-0.408,0.098-0.81,0.431-1.02l6.262-4.528c0.433-0.311,1.036-0.213,1.348,0.22c0.081,0.112,0.134,0.236,0.16,0.363h0.002
      l4.402,20.565C371.311,224.917,371.133,225.313,370.809,225.525L370.809,225.525z M364.595,227.591l4.606-3.292l-3.959-18.498
      l-4.599,3.325L364.595,227.591L364.595,227.591z M359.052,207.895l0.314-0.127C359.251,207.792,359.146,207.835,359.052,207.895z"></path>
    </g>
    <polygon class="animate-left" fill-rule="evenodd" clip-rule="evenodd" fill="#D6CFD5" points="363.439,228.817 356.085,233.496 351.777,213.363
    359.122,208.64  "></polygon>
    <g>
      <path class="animate-left" fill-rule="evenodd" clip-rule="evenodd" fill="#12100D" d="M363.901,229.667l-7.297,4.643
      c-0.45,0.286-1.046,0.154-1.333-0.295c-0.064-0.101-0.107-0.209-0.13-0.319l-0.002,0l-4.309-20.133
      c-0.087-0.412,0.103-0.82,0.444-1.027l7.325-4.709c0.449-0.288,1.048-0.158,1.336,0.292c0.067,0.106,0.112,0.219,0.135,0.335
      l4.315,20.163C364.477,229.045,364.268,229.468,363.901,229.667L363.901,229.667z M356.74,231.936l5.613-3.572l-3.885-18.154
      l-5.606,3.604L356.74,231.936L356.74,231.936z M360.067,208.44l0.003,0.014L360.067,208.44z"></path>
    </g>
    <polygon class="animate-left-2" fill-rule="evenodd" clip-rule="evenodd" fill="#D6CFD5" points="373.938,240.311 366.876,242.86 363.862,228.783
    370.647,224.929   "></polygon>
    <path class="animate-left" fill-rule="evenodd" clip-rule="evenodd" fill="#12100D" d="M374.206,241.24l-7.004,2.529
    c-0.501,0.18-1.054-0.082-1.234-0.583c-0.015-0.042-0.026-0.083-0.035-0.125l-0.002,0l-3.013-14.078
    c-0.093-0.44,0.128-0.874,0.513-1.066l6.741-3.828c0.464-0.263,1.054-0.101,1.317,0.363c0.05,0.089,0.085,0.182,0.105,0.276h0.001
    l3.292,15.381C374.99,240.61,374.689,241.102,374.206,241.24L374.206,241.24z M367.59,241.577l5.227-1.887l-2.84-13.269
    l-5.021,2.852L367.59,241.577z"></path>
    <polygon class="animate-left-2" fill-rule="evenodd" clip-rule="evenodd" fill="#D6CFD5" points="366.34,241.719 358.449,244.54 355.894,232.599
    363.583,228.833   "></polygon>

    <path class="animate-left" fill-rule="evenodd" clip-rule="evenodd" fill="#12100D" stroke="#12100D" stroke-width="0.216" stroke-miterlimit="22.9256" d="
    M366.666,242.631l-7.891,2.821c-0.503,0.18-1.058-0.083-1.237-0.586c-0.021-0.058-0.035-0.116-0.044-0.174l-2.545-11.893
    c-0.099-0.466,0.156-0.924,0.582-1.097l7.629-3.736c0.479-0.234,1.057-0.036,1.291,0.442c0.036,0.073,0.061,0.148,0.077,0.225
    l0.002-0.001l2.757,12.887C367.388,241.999,367.114,242.47,366.666,242.631L366.666,242.631L366.666,242.631z M359.164,243.256
    l6.053-2.164l-2.321-10.849l-5.899,2.89L359.164,243.256z"></path>
    <polygon class="animate-left-2" fill-rule="evenodd" clip-rule="evenodd" fill="#D6CFD5" points="355.705,232.368 348.351,237.047 344.042,216.914
    351.387,212.191   "></polygon>
    <g>
      <path class="animate-left-2" fill-rule="evenodd" clip-rule="evenodd" fill="#12100D" d="M356.167,233.217l-7.297,4.644
      c-0.449,0.286-1.046,0.154-1.332-0.295c-0.064-0.101-0.107-0.208-0.13-0.318l-0.002,0l-4.31-20.133
      c-0.087-0.412,0.103-0.819,0.444-1.027l7.324-4.71c0.449-0.288,1.048-0.158,1.336,0.292c0.068,0.106,0.112,0.22,0.135,0.336
      l4.315,20.163C356.741,232.596,356.533,233.019,356.167,233.217L356.167,233.217z M349.006,235.486l5.612-3.571l-3.885-18.154
      l-5.605,3.605L349.006,235.486L349.006,235.486z M352.333,211.99l0.003,0.014L352.333,211.99z"></path>
    </g>
    <polygon class="animate-left" fill-rule="evenodd" clip-rule="evenodd" fill="#D6CFD5" points="358.605,245.27 350.714,248.091 348.159,236.149
    355.848,232.384   "></polygon>
    <path class="animate-left-2" fill-rule="evenodd" clip-rule="evenodd" fill="#12100D" d="M358.931,246.182l-7.891,2.822
    c-0.503,0.179-1.058-0.083-1.237-0.587c-0.021-0.057-0.035-0.115-0.044-0.173l-2.545-11.894c-0.099-0.465,0.156-0.924,0.582-1.097
    l7.629-3.735c0.479-0.234,1.057-0.036,1.291,0.442c0.036,0.073,0.061,0.148,0.077,0.224l0.002,0l2.757,12.886
    C359.653,245.549,359.379,246.021,358.931,246.182L358.931,246.182L358.931,246.182z M351.428,246.808l6.053-2.165l-2.32-10.848
    l-5.899,2.889L351.428,246.808z"></path>
    <polygon class="animate-left-2" fill-rule="evenodd" clip-rule="evenodd" fill="#D6CFD5" points="348.02,235.869 344.115,239.811 339.807,219.678
    343.701,215.692   "></polygon>
    <path class="animate-left" fill-rule="evenodd" clip-rule="evenodd" fill="#17120E" d="M348.674,236.58l-3.874,3.912
    c-0.376,0.378-0.988,0.38-1.367,0.004c-0.138-0.138-0.226-0.307-0.264-0.485l-0.001,0l-4.309-20.133
    c-0.073-0.343,0.047-0.683,0.286-0.906l3.863-3.954c0.372-0.382,0.984-0.391,1.366-0.019c0.143,0.139,0.233,0.311,0.271,0.492
    h0.001l4.318,20.176C349.039,236.014,348.917,236.356,348.674,236.58L348.674,236.58z M344.687,237.86l2.277-2.3l-3.832-17.904
    l-2.272,2.325L344.687,237.86z"></path>
    <polygon class="animate-left" fill-rule="evenodd" clip-rule="evenodd" fill="#D6CFD5" points="350.863,248.783 346.478,250.854 343.923,238.913
    348.105,235.897   "></polygon>
    <path class="animate-left-2" fill-rule="evenodd" clip-rule="evenodd" fill="#17120E" d="M351.244,249.672l-4.353,2.056
    c-0.483,0.228-1.059,0.021-1.287-0.462c-0.033-0.069-0.056-0.14-0.071-0.212h0l-2.555-11.94c-0.086-0.408,0.099-0.811,0.433-1.021
    l4.131-2.979c0.433-0.312,1.036-0.213,1.348,0.22c0.081,0.112,0.134,0.236,0.161,0.364l0.001,0l2.758,12.886
    C351.906,249.042,351.66,249.495,351.244,249.672L351.244,249.672z M347.168,249.459l2.588-1.222l-2.288-10.691l-2.468,1.78
    L347.168,249.459z"></path>
    <polygon class="animate-left-2" fill-rule="evenodd" clip-rule="evenodd" fill="#12100D" points="451.112,130.522 339.039,216.089 340.265,221.822
    453.705,142.639   "></polygon>
    <path class="animate-left" fill-rule="evenodd" clip-rule="evenodd" fill="#12100D" d="M450.486,132.217l-110.374,84.269l0.794,3.712l111.719-77.982
    L450.486,132.217L450.486,132.217z M338.452,215.321l112.049-85.548c0.115-0.094,0.255-0.164,0.411-0.197
    c0.522-0.11,1.036,0.224,1.146,0.746l2.593,12.117l-0.002,0c0.077,0.368-0.064,0.762-0.392,0.991l-113.384,79.145
    c-0.115,0.093-0.253,0.161-0.408,0.194c-0.522,0.11-1.036-0.224-1.146-0.746l-1.227-5.733h0
    C338.018,215.936,338.146,215.555,338.452,215.321z"></path>
    <polygon class="animate-left" fill-rule="evenodd" clip-rule="evenodd" fill="#D6CFD5" points="465.729,202.329 345.437,249.803 345.813,251.562
    466.417,205.861   "></polygon>
    <path class="animate-left-2" fill-rule="evenodd" clip-rule="evenodd" fill="#12100D" d="M465.002,203.656l-108.61,42.863l108.919-41.273L465.002,203.656
    L465.002,203.656z M345.084,248.902l120.273-47.466c0.061-0.025,0.123-0.044,0.19-0.057c0.524-0.1,1.031,0.244,1.131,0.768
    l0.688,3.532h-0.001c0.087,0.453-0.161,0.918-0.608,1.086l-120.572,45.688c-0.055,0.023-0.113,0.042-0.173,0.054
    c-0.522,0.111-1.036-0.223-1.146-0.746l-0.373-1.746C344.389,249.557,344.633,249.079,345.084,248.902z"></path>
    <polygon fill-rule="evenodd" class="animate-right-2" clip-rule="evenodd" fill="#12100D" points="476.119,148.06 454.013,142.165 451.419,130.048
    473.359,135.163   "></polygon>
    <path class="animate-right-2" fill-rule="evenodd" clip-rule="evenodd" fill="#12100D" d="M475.84,148.986l-22.073-5.887
    c-0.365-0.096-0.626-0.389-0.699-0.734h-0.001l-2.594-12.116c-0.11-0.522,0.224-1.036,0.746-1.146
    c0.144-0.031,0.286-0.027,0.42,0.004v0l21.94,5.115c0.391,0.091,0.67,0.406,0.734,0.779l2.752,12.86
    c0.111,0.522-0.224,1.036-0.745,1.147C476.155,149.041,475.991,149.032,475.84,148.986L475.84,148.986z M454.834,141.383
    l20.01,5.336l-2.301-10.753l-19.859-4.629L454.834,141.383z"></path>
    <polygon class="animate-right" fill-rule="evenodd" clip-rule="evenodd" fill="#12100D" points="524.048,157.049 501.155,151.948 499.512,143.408
    521.872,147.642   "></polygon>
    <path fill-rule="evenodd" class="animate-right-2" clip-rule="evenodd" fill="#12100D" d="M523.783,157.979l-22.836-5.088
    c-0.388-0.086-0.67-0.394-0.74-0.761l-0.002,0l-1.644-8.539c-0.101-0.525,0.243-1.032,0.768-1.132
    c0.139-0.026,0.275-0.022,0.404,0.008l22.316,4.225c0.39,0.073,0.682,0.371,0.765,0.734h0.001l2.176,9.407
    c0.119,0.521-0.206,1.04-0.727,1.159C524.1,158.029,523.935,158.022,523.783,157.979L523.783,157.979z M501.985,151.144
    l20.775,4.629l-1.688-7.299l-20.342-3.852L501.985,151.144z"></path>
    <polygon fill-rule="evenodd" class="animate-bottom-2" clip-rule="evenodd" fill="#D6CFD5" points="531.69,198.631 510.136,199.781 509.577,196.323
    530.768,195.085   "></polygon>
    <path fill-rule="evenodd" class="animate-bottom" clip-rule="evenodd" fill="#12100D" d="M531.739,199.596l-21.554,1.15
    c-0.51,0.026-0.946-0.347-1.009-0.844l-0.554-3.428c-0.084-0.526,0.275-1.021,0.803-1.104c0.032-0.005,0.065-0.009,0.098-0.011
    v-0.001l21.191-1.238c0.481-0.026,0.9,0.305,0.998,0.761l0.912,3.507c0.134,0.516-0.177,1.043-0.692,1.177
    C531.868,199.582,531.804,199.592,531.739,199.596L531.739,199.596L531.739,199.596z M510.951,198.77l19.507-1.041l-0.425-1.633
    l-19.332,1.129L510.951,198.77z"></path>
    <polygon fill-rule="evenodd" class="animate-bottom" clip-rule="evenodd" fill="#D6CFD5" points="486.616,201.947 466.334,205.47 465.674,202.068
    486.043,199.208   "></polygon>
    <path fill-rule="evenodd" class="animate-right-2" clip-rule="evenodd" fill="#12100D" d="M486.779,202.901l-20.283,3.523
    c-0.526,0.09-1.026-0.264-1.116-0.791l-0.001-0.004l-0.655-3.378c-0.101-0.524,0.243-1.031,0.768-1.131
    c0.026-0.005,0.053-0.009,0.078-0.012l20.342-2.856c0.515-0.071,0.991,0.278,1.083,0.785l0.568,2.715
    c0.108,0.522-0.227,1.035-0.749,1.143l-0.034,0.006V202.901L486.779,202.901z M467.103,204.354l18.363-3.189l-0.184-0.874
    l-18.465,2.592L467.103,204.354z"></path>
    <polygon fill-rule="evenodd" clip-rule="evenodd" class="animate-bottom-2" fill="#C9B79A" points="510.611,239.533 495.012,242.914 470.883,117.868
    482.367,107.552   "></polygon>
    <path fill-rule="evenodd" class="animate-bottom" clip-rule="evenodd" fill="#12100D" d="M510.816,240.479l-15.601,3.381
    c-0.522,0.113-1.038-0.219-1.15-0.742l-0.011-0.058L469.933,118.05c-0.066-0.345,0.061-0.682,0.303-0.901l0,0l11.485-10.316
    c0.396-0.357,1.009-0.325,1.365,0.072c0.124,0.137,0.201,0.301,0.232,0.47l28.239,131.958
    C511.668,239.854,511.336,240.366,510.816,240.479L510.816,240.479L510.816,240.479z M495.773,241.758l13.69-2.967l-27.692-129.403
    l-9.835,8.834L495.773,241.758z"></path>
    <polygon class="animate-right" fill-rule="evenodd" clip-rule="evenodd" fill="#12100D" points="518.617,237.996 510.666,238.922 482.994,106.868
    493.134,113.189   "></polygon>
    <path fill-rule="evenodd" class="animate-bottom" clip-rule="evenodd" fill="#12100D" d="M518.728,238.957l-7.952,0.926
    c-0.516,0.059-0.984-0.3-1.065-0.808l-27.662-132.01c-0.108-0.522,0.227-1.035,0.749-1.143c0.253-0.052,0.504,0,0.707,0.125
    l0.001,0l10.14,6.321c0.252,0.156,0.406,0.41,0.446,0.681l25.473,124.754c0.107,0.522-0.23,1.033-0.753,1.139
    c-0.027,0.006-0.056,0.01-0.083,0.014V238.957L518.728,238.957z M511.43,237.859l6.031-0.702l-25.189-123.365l-7.867-4.904
    L511.43,237.859z"></path>
    <polygon class="animate-right-2" fill-rule="evenodd" clip-rule="evenodd" fill="#12100D" points="559.918,227.211 552.524,228.834 530.958,125.311
    540.707,131.717   "></polygon>
    <path class="animate-bottom-2" fill-rule="evenodd" clip-rule="evenodd" fill="#12100D" d="M560.123,228.157l-7.395,1.624
    c-0.522,0.113-1.038-0.219-1.15-0.742l-0.011-0.06l-21.556-103.471c-0.108-0.522,0.227-1.035,0.749-1.143
    c0.281-0.059,0.56,0.012,0.773,0.17l9.702,6.375c0.225,0.148,0.367,0.373,0.416,0.617h0.001l19.211,95.494
    c0.104,0.518-0.228,1.021-0.742,1.132L560.123,228.157L560.123,228.157z M553.271,227.68l5.515-1.211l-18.945-94.167l-7.46-4.901
    L553.271,227.68z"></path>
    <polygon fill-rule="evenodd" clip-rule="evenodd" class="animate-bottom-2" fill="#C9B79A" points="552.214,229.293 539.349,232.089 518.256,134.595
    530.939,126.066   "></polygon>
    <path fill-rule="evenodd" class="animate-bottom" clip-rule="evenodd" fill="#12100D" d="M552.419,230.239l-12.865,2.796
    c-0.522,0.112-1.038-0.22-1.15-0.742l-21.093-97.494c-0.091-0.421,0.107-0.838,0.463-1.043l12.629-8.493
    c0.443-0.297,1.044-0.178,1.34,0.265c0.077,0.115,0.126,0.241,0.148,0.369l21.27,103.204c0.105,0.519-0.226,1.025-0.742,1.137
    L552.419,230.239L552.419,230.239z M540.09,230.938l10.985-2.387l-20.791-100.88l-10.943,7.359L540.09,230.938z"></path>
    <polygon class="animate-left" fill-rule="evenodd" clip-rule="evenodd" fill="#EBE7EB" points="452.166,129.889 482.367,107.552 487.574,131.02
    510.666,238.922 495.012,242.914 473.359,135.163   "></polygon>
    <polygon class="animate-left-2" fill-rule="evenodd" clip-rule="evenodd" fill="#EBE7EB" points="500.366,142.722 530.877,125.633 535.357,147.62
    551.505,228.807 539.285,231.655 521.702,146.739   "></polygon>
    <path fill-rule="evenodd" class="animate-bottom" clip-rule="evenodd" fill="#12100D" d="M499.894,141.878l30.511-17.09
    c0.466-0.261,1.056-0.095,1.316,0.371c0.062,0.109,0.1,0.225,0.115,0.342l4.468,21.925l0.001,0.008l0.003,0l16.147,81.187
    c0.1,0.514-0.227,1.012-0.733,1.128l-12.217,2.848c-0.521,0.121-1.041-0.203-1.162-0.724c-0.007-0.028-0.012-0.057-0.016-0.086
    l-17.439-84.219l-20.699-3.897c-0.524-0.098-0.87-0.603-0.772-1.128C499.471,142.251,499.652,142.015,499.894,141.878
    L499.894,141.878L499.894,141.878z M530.195,127.123l-27.033,15.142l18.718,3.524v0c0.375,0.07,0.688,0.36,0.769,0.756
    l17.382,83.941l10.343-2.41l-15.966-80.271l0.002-0.001L530.195,127.123z"></path>
    <polygon fill-rule="evenodd" class="animate-left" clip-rule="evenodd" fill="#D6CFD5" points="486.046,202.458 360.592,248.925 345.746,252.127
    466.342,205.882   "></polygon>
    <path fill-rule="evenodd" class="animate-bottom-2" clip-rule="evenodd" fill="#12100D" d="M486.369,203.371l-125.444,46.463
    c-0.055,0.021-0.109,0.035-0.165,0.045l-14.814,3.195c-0.522,0.11-1.036-0.224-1.146-0.746c-0.101-0.473,0.164-0.938,0.602-1.104
    l0,0l120.597-46.246c0.07-0.026,0.142-0.045,0.213-0.055l19.672-3.417c0.527-0.09,1.027,0.264,1.117,0.791
    C487.08,202.767,486.806,203.217,486.369,203.371L486.369,203.371z M360.316,247.995l115.489-42.775l-9.203,1.599L357.82,248.534
    L360.316,247.995z"></path>
    <polygon fill-rule="evenodd" class="animate-left-2" clip-rule="evenodd" fill="#D6CFD5" points="489.117,216.576 370.505,248.68 366.422,246.477
    486.046,202.458   "></polygon>
    <path fill-rule="evenodd" clip-rule="evenodd" class="animate-left" fill="#12100D" d="M489.345,217.517l-118.59,32.098
    c-0.259,0.069-0.521,0.026-0.735-0.098l-4.055-2.189c-0.47-0.253-0.646-0.84-0.394-1.31c0.117-0.217,0.304-0.371,0.519-0.45l0,0
    l119.624-44.018c0.501-0.184,1.058,0.074,1.241,0.575c0.017,0.043,0.028,0.086,0.038,0.129l0,0l3.07,14.117
    C490.174,216.886,489.854,217.395,489.345,217.517L489.345,217.517z M370.624,247.646l117.352-31.763l-2.639-12.132
    l-116.568,42.894L370.624,247.646z"></path>
    <polygon fill-rule="evenodd" clip-rule="evenodd" fill="#D6CFD5" points="564.533,239.229 536.011,245.333 533.553,233.849
    561.518,227.046   "></polygon>
    <path fill-rule="evenodd" clip-rule="evenodd" fill="#17120E" d="M564.734,240.175l-28.522,6.104
    c-0.522,0.11-1.036-0.224-1.146-0.746l-2.458-11.484c-0.111-0.522,0.223-1.036,0.745-1.146l0.022-0.005l27.915-6.791
    c0.518-0.125,1.038,0.192,1.165,0.708l0.001,0l3.016,12.184c0.128,0.518-0.188,1.042-0.707,1.169L564.734,240.175L564.734,240.175
    L564.734,240.175z M536.755,244.185l26.601-5.693l-2.546-10.281l-26.114,6.353L536.755,244.185z"></path>
    <polygon fill-rule="evenodd" clip-rule="evenodd" fill="#D6CFD5" points="523.713,249.191 491.28,256.132 488.907,245.038
    520.388,237.483   "></polygon>
    <path fill-rule="evenodd" clip-rule="evenodd" fill="#17120E" d="M523.913,250.137l-32.432,6.941
    c-0.522,0.111-1.036-0.223-1.147-0.746l-2.373-11.095c-0.11-0.522,0.224-1.036,0.745-1.146l0.039-0.007l31.42-7.54
    c0.505-0.12,1.013,0.182,1.152,0.678l0.001-0.001l3.325,11.708c0.145,0.514-0.155,1.048-0.67,1.192
    C523.953,250.128,523.934,250.133,523.913,250.137L523.913,250.137L523.913,250.137z M492.024,254.984l30.476-6.522l-2.789-9.824
    l-29.661,7.117L492.024,254.984z"></path>
  </g>
  <g>
    <path fill-rule="evenodd" class="animate-bottom-3" clip-rule="evenodd" fill="#DF0A15" d="M167.986,244.604l-8.752,1.183l5.621,33.899l-11.318,1.531
    l-5.621-33.899l-3.365,0.454L143.593,242l3.366-0.455c-0.616-3.718-0.016-6.606,1.825-8.628c1.838-2.036,5.496-3.425,10.973-4.166
    l5.478-0.741l0.958,5.773l-5.477,0.741c-2.189,0.296-2.996,2.129-2.439,5.489l8.753-1.183L167.986,244.604z"></path>
    <path fill-rule="evenodd" class="animate-bottom-4" clip-rule="evenodd" fill="#DF0A15" d="M201.135,243.066l-11.318,1.53L188,233.64
    c-0.303-1.833-1.541-2.597-3.729-2.301c-2.173,0.293-3.108,1.351-2.804,3.185l6.959,41.975l-11.318,1.531l-8.371-50.492
    l11.318-1.531l0.288,1.736c1.981-1.451,4.903-2.438,8.766-2.961c2.279-0.308,4.431,0.206,6.487,1.527
    c2.069,1.318,3.3,3.254,3.723,5.801L201.135,243.066z"></path>
    <path fill-rule="evenodd" class="animate-bottom-5" clip-rule="evenodd" fill="#DF0A15" d="M207.208,265.262l-5.548-33.47
    c-0.941-5.674,3.446-9.174,13.179-10.491c9.733-1.316,15.064,0.869,16.005,6.544l5.549,33.469
    c0.979,5.909-3.391,9.519-13.124,10.835C213.536,273.467,208.188,271.17,207.208,265.262L207.208,265.262z M225.075,262.846
    l-5.549-33.47c-0.304-1.833-1.542-2.597-3.729-2.301c-2.188,0.296-3.124,1.354-2.82,3.188l5.549,33.469
    c0.302,1.821,1.54,2.585,3.728,2.289C224.441,265.725,225.377,264.667,225.075,262.846z"></path>
    <path fill-rule="evenodd" class="animate-bottom-6" clip-rule="evenodd" fill="#DF0A15" d="M270.022,265.464l-11.318,1.53l-6.96-41.975
    c-0.303-1.833-1.541-2.597-3.729-2.301c-2.173,0.293-3.108,1.351-2.803,3.185l6.958,41.975l-11.317,1.531l-8.371-50.492
    l11.318-1.531l0.288,1.736c1.979-1.452,4.903-2.438,8.766-2.961c2.279-0.308,4.431,0.206,6.487,1.527
    c2.069,1.318,3.3,3.253,3.723,5.8L270.022,265.464z"></path>
    <path fill-rule="evenodd" clip-rule="evenodd" class="animate-bottom-7" fill="#DF0A15" d="M289.084,222.324l-8.753,1.184l-1.793-10.82l-11.318,1.531
    l1.794,10.82l-3.365,0.455l0.957,5.773l3.366-0.455l3.826,23.078c0.618,3.73,2.128,6.321,4.546,7.781
    c2.416,1.447,6.363,1.807,11.841,1.066l5.478-0.74l-0.957-5.773l-5.479,0.741c-2.188,0.295-3.552-1.231-4.111-4.604l-3.827-23.08
    l8.753-1.183L289.084,222.324z"></path>
    <path fill-rule="evenodd" clip-rule="evenodd" class="animate-bottom-8" fill="#DF0A15" d="M321.883,259.206l-11.198,1.514l-8.372-50.492l11.198-1.515
    L321.883,259.206L321.883,259.206z M301.331,204.76c0.204,1.231,0.925,2.229,2.179,3.003c1.272,0.784,2.676,1.061,4.245,0.848
    c1.554-0.209,2.808-0.833,3.774-1.894c0.953-1.048,1.328-2.232,1.108-3.561c-0.215-1.292-0.938-2.302-2.138-3.021
    c-1.201-0.731-2.555-0.988-4.064-0.785c-1.555,0.211-2.849,0.864-3.874,1.947C301.538,202.379,301.129,203.541,301.331,204.76z"></path>
    <path fill-rule="evenodd" clip-rule="evenodd" class="animate-bottom-9" fill="#DF0A15" d="M354.508,254.793l-11.318,1.531l-6.959-41.975
    c-0.304-1.833-1.542-2.597-3.73-2.301c-2.173,0.293-3.107,1.351-2.804,3.185l6.96,41.974l-11.318,1.531l-8.372-50.492l11.318-1.531
    l0.288,1.736c1.98-1.451,4.903-2.438,8.766-2.96c2.279-0.308,4.431,0.206,6.487,1.527c2.069,1.318,3.302,3.253,3.723,5.801
    L354.508,254.793z"></path>
  </g>
  <path fill-rule="evenodd" clip-rule="evenodd" fill="#DF0A15" d="M139.105,303.096c-9.879,35.415-19.967,71.104-29.617,106.228
  c-7.408,26.984-3.228,28.852,22.538,28.825l81.158-0.083c4.508,0.461,7.994,1.878,9.823,4.841c3.225,5.218-0.002,13.753-1.467,19.36
  c-1.266,4.845-2.534,9.69-3.8,14.536c-4.582,17.523,2.12,13.117,13.473,4.237c10.388-8.125,20.775-16.253,31.164-24.38
  c6.568-5.137,15.12-12.881,22.382-16.421c1.96-0.955,3.933-1.707,5.919-2.255l291.887-0.302
  c19.383-0.019,38.023,1.907,32.914-22.986c-11.248-54.781-22.507-115.727-33.759-169.935c-7.607-36.656-13.011-32.523-47.545-26.967
  c-119.985,19.301-239.969,38.608-359.953,57.906C153.424,279.044,145.114,281.555,139.105,303.096z"></path>
  <g class="animate-scale">
    <polygon fill-rule="evenodd" clip-rule="evenodd" fill="#FFFFFF" points="199.559,393.465 138.828,370.925 137.567,358.629
    192.383,323.548 193.815,337.501 154.374,363.195 198.119,379.435   "></polygon>
    <path fill-rule="evenodd" clip-rule="evenodd" fill="#FFFFFF" d="M202.403,371.956L223,369.943l1.826,17.788
    c0.398,3.888,2.575,5.641,6.558,5.25c3.954-0.386,5.733-2.523,5.333-6.413c-0.981-9.563-6.002-18.759-15.094-27.609
    c-9.092-8.852-15.138-14.523-18.168-17.015c-2.999-2.466-4.759-6.089-5.25-10.871l-1.31-12.77
    c-1.244-12.112,6.978-19.046,24.691-20.777c17.687-1.729,27.152,3.477,28.395,15.589l1.811,17.631l-20.598,2.013l-1.81-17.63
    c-0.402-3.916-2.579-5.667-6.533-5.279c-3.983,0.388-5.761,2.526-5.359,6.441c0.506,7.089,1.919,11.675,4.239,13.729
    c2.346,2.054,8.477,8.01,18.421,17.866c9.943,9.855,15.226,17.804,15.84,23.795l1.321,12.874
    c1.294,12.612-6.901,19.782-24.588,21.512c-17.713,1.731-27.204-3.711-28.499-16.323L202.403,371.956z"></path>
    <path fill-rule="evenodd" clip-rule="evenodd" fill="#FFFFFF" d="M317.678,396.994l-20.597,2.014l-0.357-3.468
    c-1.299,3.284-5.971,5.334-14.072,6.126c-11.974,1.169-18.425-2.765-19.354-11.802l-3.545-34.552
    c-0.413-4.021,0.632-7.625,3.071-10.889c2.469-3.241,8.045-7.554,16.762-12.891c6.136-3.2,9.413-5.592,9.831-7.198l-1.531-14.923
    c-0.403-3.916-2.58-5.667-6.562-5.278c-3.955,0.388-5.759,2.527-5.358,6.443l1.69,16.474l-20.597,2.013l-1.69-16.474
    c-1.243-12.112,7.005-19.049,24.69-20.777c17.714-1.731,27.18,3.474,28.424,15.586L317.678,396.994L317.678,396.994z
    M295.217,380.853l-4.032-39.281c-7.865,2.016-11.587,4.663-11.223,7.943l3.336,32.502c0.399,3.889,2.604,5.639,6.558,5.251
    C293.838,386.879,295.616,384.74,295.217,380.853z"></path>
    <path fill-rule="evenodd" clip-rule="evenodd" fill="#FFFFFF" d="M408.623,387.432l-20.598,2.013l-9.196-89.597
    c-0.402-3.915-2.577-5.666-6.56-5.276c-3.982,0.389-5.76,2.526-5.357,6.442l9.196,89.596l-20.598,2.013l-9.196-89.596
    c-0.403-3.915-2.58-5.667-6.562-5.278c-3.955,0.387-5.732,2.524-5.331,6.44l9.196,89.597l-20.597,2.013L311.958,288.02
    l20.597-2.013l0.396,3.862c3.69-2.962,9.052-4.786,16.082-5.473c5.328-0.521,10.869,1.034,16.646,4.61
    c3.56-4.489,8.319-7.049,14.333-7.638c3.981-0.39,8,0.386,12.11,2.319c4.083,1.936,6.536,6.658,7.304,14.147L408.623,387.432z"></path>
    <path fill-rule="evenodd" clip-rule="evenodd" fill="#FFFFFF" d="M424.927,279.897l-0.31-3.021l-20.598,2.013l11.062,107.777
    l20.597-2.013l-1.531-14.924c4.462,1.846,10.069,2.438,16.826,1.778c4.146-0.405,7.743-1.845,10.787-4.344
    c3.048-2.475,4.158-7.599,3.357-15.403l-6.146-59.878c-0.79-7.699-3.262-12.579-7.469-14.663
    c-4.181-2.086-9.196-2.843-14.991-2.277C432.009,275.384,428.157,277.035,424.927,279.897L424.927,279.897z M438.375,293.896
    l6.146,59.879c0.401,3.915-1.376,6.053-5.33,6.439c-3.982,0.389-6.159-1.362-6.563-5.277l-6.145-59.879
    c-0.402-3.916,1.376-6.053,5.358-6.442C435.796,288.23,437.974,289.981,438.375,293.896z"></path>
    <path fill-rule="evenodd" clip-rule="evenodd" fill="#FFFFFF" d="M526.653,376.571l-20.598,2.013l-0.355-3.468
    c-1.299,3.286-5.973,5.334-14.073,6.126c-11.974,1.17-18.426-2.765-19.353-11.803l-3.547-34.551
    c-0.412-4.021,0.633-7.625,3.071-10.889c2.469-3.241,8.046-7.554,16.763-12.892c6.135-3.199,9.413-5.591,9.83-7.197l-1.532-14.923
    c-0.401-3.915-2.579-5.666-6.562-5.277c-3.953,0.386-5.759,2.527-5.357,6.442l1.691,16.473l-20.598,2.014l-1.69-16.474
    c-1.244-12.112,7.004-19.049,24.69-20.777c17.713-1.732,27.181,3.474,28.423,15.586L526.653,376.571L526.653,376.571z
    M504.191,360.429l-4.03-39.281c-7.866,2.016-11.588,4.663-11.224,7.944l3.336,32.501c0.399,3.889,2.603,5.639,6.558,5.251
    C502.813,366.455,504.591,364.316,504.191,360.429z"></path>
    <polygon fill-rule="evenodd" clip-rule="evenodd" fill="#FFFFFF" points="531.165,361.057 586.108,327.211 584.848,314.915
    523.988,291.14 525.421,305.092 569.302,322.644 529.725,347.026  "></polygon>
  </g>

  <g></g>
  </svg>
