<svg xmlns="http://www.w3.org/2000/svg" width="94" height="94" viewBox="0 0 94 94"><path d="M41.32 69.812c-.822 1.162-1.6 1.733-2.342 1.733-.495 0-.777-.292-.866-.866-.035-.122-.035-.573-.035-1.44V54.188h-3.704v16.166c0 1.442.125 2.422.328 3.04.372 1.036 1.194 1.52 2.388 1.52 1.36 0 2.76-.822 4.233-2.51v2.23h3.708V54.187H41.32v15.624zM55.768 53.938c-1.36 0-2.63.744-3.83 2.218v-8.962h-3.703v27.44h3.703V72.65c1.238 1.53 2.513 2.263 3.83 2.263 1.474 0 2.467-.777 2.96-2.298.247-.866.376-2.23.376-4.12v-8.142c0-1.937-.127-3.29-.377-4.11-.495-1.53-1.487-2.305-2.96-2.305zm-.372 14.85c0 1.846-.54 2.758-1.61 2.758-.61 0-1.23-.292-1.85-.912v-12.46c.62-.61 1.238-.902 1.85-.902 1.07 0 1.61.945 1.61 2.79v8.725zM20.92 51.055h4.355v23.577h4.12V51.055h4.44V47.19H20.918zM44.502 35.297c1.205 0 1.785-.956 1.785-2.867v-8.69c0-1.913-.58-2.865-1.785-2.865-1.207 0-1.788.953-1.788 2.864v8.69c0 1.912.58 2.867 1.788 2.867zM67.566 53.938c-1.894 0-3.364.695-4.438 2.096-.787 1.033-1.146 2.633-1.146 4.818v7.16c0 2.172.404 3.784 1.19 4.81 1.07 1.395 2.548 2.093 4.483 2.093s3.453-.732 4.48-2.217a5.27 5.27 0 0 0 .865-2.22c.034-.37.08-1.192.08-2.387v-.54H69.3c0 1.486-.05 2.308-.083 2.51-.21.99-.742 1.486-1.654 1.486-1.27 0-1.894-.944-1.894-2.837v-3.626h7.41v-4.232c0-2.187-.372-3.785-1.147-4.818-1.035-1.4-2.51-2.096-4.367-2.096zM69.378 62h-3.704v-1.893c0-1.892.62-2.836 1.858-2.836 1.228 0 1.846.946 1.846 2.837V62z"/><path d="M89 0H5a5 5 0 0 0-5 5v84a5 5 0 0 0 5 5h84a5 5 0 0 0 5-5V5a5 5 0 0 0-5-5zM53.11 17.754h3.733v15.212c0 .877 0 1.333.047 1.456.082.58.375.875.877.875.748 0 1.533-.58 2.363-1.752v-15.79h3.745v20.66H60.13v-2.253c-1.488 1.708-2.91 2.538-4.275 2.538-1.207 0-2.037-.49-2.41-1.536-.207-.626-.334-1.613-.334-3.072V17.754zM38.97 24.49c0-2.207.376-3.823 1.172-4.866 1.037-1.414 2.493-2.12 4.36-2.12 1.873 0 3.332.706 4.367 2.12.784 1.043 1.16 2.66 1.16 4.867v7.235c0 2.196-.376 3.826-1.16 4.86-1.036 1.41-2.495 2.115-4.368 2.115-1.867 0-3.323-.706-4.36-2.116-.796-1.033-1.17-2.663-1.17-4.86v-7.233zm-10.01-13.8l2.945 10.887 2.832-10.888h4.198L33.94 27.185v11.23h-4.15v-11.23c-.375-1.988-1.208-4.903-2.538-8.77-.876-2.574-1.786-5.155-2.66-7.726h4.367zm47.62 65.748c-.752 3.26-3.42 5.664-6.627 6.023-7.602.85-15.294.855-22.955.85-7.662.005-15.356 0-22.956-.85-3.21-.358-5.875-2.763-6.626-6.022-1.068-4.643-1.068-9.71-1.068-14.49 0-4.78.014-9.85 1.082-14.492.75-3.26 3.416-5.665 6.625-6.023 7.6-.85 15.295-.853 22.955-.85 7.66-.003 15.354 0 22.955.85 3.21.358 5.877 2.764 6.627 6.023 1.067 4.643 1.06 9.712 1.06 14.492 0 4.78-.006 9.847-1.073 14.49z"/></svg>