<svg xmlns="http://www.w3.org/2000/svg" width="445.994" height="334.781" viewBox="92.857 213.189 445.994 334.781"><path fill="#D6CFD5" d="M401.037 268.792l-8.174 5.204-4.794-22.39 8.163-5.253 4.802 22.44z"/><path fill="#12100D" d="M401.442 269.535l-8.128 5.172a.844.844 0 0 1-1.28-.537l-4.792-22.39a.846.846 0 0 1 .387-.897l8.145-5.242a.848.848 0 0 1 1.287.55l4.8 22.427a.85.85 0 0 1-.422.92zm-8.008 3.094l6.653-4.238-4.422-20.67-6.647 4.276 4.416 20.63zm3.628-26.455l.003.012-.003-.013z"/><path fill="#D6CFD5" d="M420.383 270.964l-19.346-2.173-4.37-23.48 19.597 4.74 4.12 20.916z"/><path fill="#12100D" d="M420.25 271.8l-19.305-2.17a.847.847 0 0 1-.745-.728l-4.363-23.442a.847.847 0 0 1 1.04-.97l19.585 4.738c.332.08.568.344.63.657h.003l4.118 20.918a.847.847 0 0 1-.963.996zm-18.497-3.78l17.577 1.977-3.79-19.256-17.803-4.303 4.016 21.586z"/><path fill="#D6CFD5" d="M461.062 276.144l-19.234-1.647-3.935-21.455 19.436 3.998 3.73 19.104z"/><path fill="#17120E" d="M460.99 276.988l-19.232-1.647a.848.848 0 0 1-.772-.75l-3.924-21.393a.845.845 0 0 1 1.022-.974l19.415 3.994c.342.07.594.34.66.665l3.73 19.106a.845.845 0 0 1-.9 1.003zm-18.448-3.28l17.474 1.496-3.41-17.45-17.656-3.633 3.592 19.59z"/><path fill="#D6CFD5" d="M463.987 291.49l-18.74.656-3.443-19.158 18.894 1.448 3.29 17.054z"/><path fill="#12100D" d="M463.966 292.336l-18.692.652a.845.845 0 0 1-.86-.722l-3.44-19.13a.844.844 0 0 1 .892-.99l18.894 1.448a.85.85 0 0 1 .774.717l3.285 17.025a.844.844 0 0 1-.856 1.003zm-18.018-1.06l17.022-.596-2.982-15.45-17.162-1.316 3.122 17.36z"/><path fill="#D6CFD5" d="M424.94 294.765l-17.81 2.5-6.26-28.142 19.512 1.84 4.558 23.802z"/><path fill="#12100D" d="M425.03 295.605l-17.783 2.497a.846.846 0 0 1-.95-.697l-6.25-28.1a.844.844 0 0 1 .903-1.02l19.512 1.84a.84.84 0 0 1 .75.68l4.558 23.8a.845.845 0 0 1-.74 1zm-17.244.715l16.157-2.27-4.272-22.306-17.722-1.67 5.84 26.246z"/><path fill="#D6CFD5" d="M392.292 274.116l-8.154 5.32-4.646-21.708 8.168-5.252 4.632 21.64z"/><path fill="#12100D" d="M392.715 274.85l-8.116 5.293a.844.844 0 0 1-1.288-.534h-.002l-4.645-21.71a.846.846 0 0 1 .388-.898l8.15-5.242a.846.846 0 0 1 1.287.55l4.63 21.63a.85.85 0 0 1-.405.91zm-8.008 3.206l6.638-4.328-4.256-19.88-6.65 4.274 4.265 19.934zm3.78-25.756l.003.013-.002-.013z"/><path fill="#D6CFD5" d="M383.522 279.764l-7.993 5.088-4.566-21.327 7.982-5.134 4.574 21.376z"/><path fill="#12100D" d="M383.925 280.507l-7.94 5.055a.844.844 0 0 1-1.28-.537h-.002l-4.563-21.327a.846.846 0 0 1 .388-.898l7.965-5.123a.845.845 0 0 1 1.285.55l4.572 21.36a.845.845 0 0 1-.422.92h-.003zm-7.823 2.98l6.47-4.12-4.196-19.603-6.46 4.155 4.186 19.564zm3.672-25.27l.003.012-.003-.016z"/><path fill="#D6CFD5" d="M375.25 285.322l-7.78 4.708-4.468-20.86 7.73-4.97 4.518 21.122z"/><path fill="#12100D" d="M375.688 286.047l-7.783 4.708a.848.848 0 0 1-1.27-.58l-4.46-20.832a.846.846 0 0 1 .39-.897l7.71-4.96a.844.844 0 0 1 1.286.547l4.52 21.11a.845.845 0 0 1-.39.9v.004zm-7.642 2.645l6.252-3.782-4.14-19.34-6.207 3.994 4.098 19.128zm3.51-24.67l.004.013-.003-.012z"/><path fill="#D6CFD5" d="M367.13 290.34l-7.532 4.794-4.416-20.626 7.528-4.84 4.42 20.67z"/><path fill="#12100D" d="M367.536 291.082l-7.484 4.763a.845.845 0 0 1-1.28-.536l-4.416-20.628a.845.845 0 0 1 .39-.9l7.507-4.828a.846.846 0 0 1 1.287.548l4.42 20.66a.852.852 0 0 1-.424.918zm-7.366 2.688l6.01-3.826-4.044-18.902-6.006 3.86 4.04 18.868zm3.366-24.277l.002.012-.002-.012z"/><path fill="#D6CFD5" d="M359.22 295.038l-7.388 4.704-4.33-20.23 7.38-4.75 4.338 20.276z"/><path fill="#12100D" d="M359.623 295.78l-7.338 4.672a.844.844 0 0 1-1.28-.536l-4.33-20.23a.845.845 0 0 1 .39-.898l7.36-4.736a.845.845 0 0 1 1.285.548l4.337 20.263a.85.85 0 0 1-.424.918zm-7.22 2.595l5.867-3.733-3.96-18.507-5.858 3.768 3.95 18.472zm3.305-23.787l.002.012-.002-.012z"/><path fill="none" stroke="#12100D" stroke-width=".216" stroke-miterlimit="22.926" d="M359.623 295.78l-7.338 4.672a.844.844 0 0 1-1.28-.536l-4.33-20.23a.845.845 0 0 1 .39-.898l7.36-4.736a.845.845 0 0 1 1.285.548l4.337 20.263a.85.85 0 0 1-.424.918zm-7.22 2.595l5.867-3.733-3.96-18.507-5.858 3.768 3.95 18.472zm3.305-23.787l.002.012"/><path fill="#D6CFD5" d="M407.132 297.265l-8.616 3.154-5.51-25.75 8.08-5.654 6.046 28.247z"/><path fill="#12100D" d="M407.423 298.06l-8.615 3.154a.846.846 0 0 1-1.125-.65l-5.504-25.718a.843.843 0 0 1 .39-.9l8.03-5.62a.844.844 0 0 1 1.31.517l6.047 28.248a.846.846 0 0 1-.537.97zm-8.283 1.23l7.012-2.566-5.625-26.285-6.577 4.6 5.19 24.25z"/><path fill="#D6CFD5" d="M398.173 300.493l-8.745 3.66-5.158-24.1 8.168-5.252 5.735 25.695z"/><path fill="#12100D" d="M398.498 301.274l-8.746 3.66a.845.845 0 0 1-1.152-.608l-5.158-24.097a.85.85 0 0 1 .39-.9l8.15-5.24a.846.846 0 0 1 1.292.58l5.724 25.642a.844.844 0 0 1-.5.96zm-8.456 1.705l7.154-2.995-5.317-23.82-6.66 4.28 4.82 22.532zm-1.44 1.346v-.002.002z"/><path fill="#D6CFD5" d="M388.738 304.14l-8.358 3.377-4.782-22.35 7.98-5.137 5.16 24.11z"/><path fill="#12100D" d="M389.022 304.935l-8.327 3.366a.845.845 0 0 1-1.14-.606l-4.786-22.352a.85.85 0 0 1 .386-.897l7.964-5.123a.847.847 0 0 1 1.286.548l5.16 24.095a.844.844 0 0 1-.545.972zm-8.026 1.422l6.768-2.737-4.757-22.217-6.46 4.157 4.45 20.797zm3.41-26.5v.01-.01z"/><path fill="#D6CFD5" d="M380.027 307.646l-8.075 3.34-4.39-20.52 7.728-4.97 4.737 22.15z"/><path fill="#12100D" d="M380.306 308.444l-8.032 3.324a.845.845 0 0 1-1.148-.605l-4.393-20.52a.848.848 0 0 1 .388-.898l7.714-4.96a.845.845 0 0 1 1.286.55l4.735 22.136a.842.842 0 0 1-.548.976zm-7.738 1.376l6.487-2.684-4.337-20.266-6.21 3.993 4.058 18.957h.002zm3.548-24.498l.002.013-.002-.013z"/><path fill="#D6CFD5" d="M371.615 311.296l-7.898 3.086-4.048-18.918 7.52-4.84 4.423 20.672z"/><path fill="#12100D" d="M371.924 312.084l-7.9 3.086a.845.845 0 0 1-1.138-.627l-4.045-18.902a.846.846 0 0 1 .39-.895l7.507-4.83a.846.846 0 0 1 1.286.55l4.42 20.658a.843.843 0 0 1-.518.963h.002zm-7.59 1.15l6.305-2.463-4.02-18.77-6.005 3.862 3.717 17.374zm3.687-22.784l.005.01-.002-.01z"/><path fill="#D6CFD5" d="M363.412 314.628l-7.68 3.335-3.818-17.84 7.38-4.747 4.118 19.252z"/><path fill="#12100D" d="M363.692 315.426l-7.627 3.312a.843.843 0 0 1-1.16-.6h-.002l-3.817-17.837a.847.847 0 0 1 .388-.895l7.36-4.734a.845.845 0 0 1 1.288.548l4.116 19.237a.846.846 0 0 1-.546.972zm-7.35 1.353l6.1-2.65-3.718-17.38-5.86 3.77 3.48 16.26h-.002zm3.78-21.577v.013-.013z"/><path fill="#D6CFD5" d="M351.62 299.476l-7.082 4.508-4.15-19.395 7.072-4.55 4.16 19.434z"/><path fill="#12100D" d="M352.022 300.22l-7.032 4.475a.843.843 0 0 1-1.278-.536l-4.15-19.397a.848.848 0 0 1 .386-.898l7.056-4.538a.845.845 0 0 1 1.285.547l4.153 19.424a.842.842 0 0 1-.423.92zm-6.913 2.4l5.56-3.54-3.78-17.667-5.557 3.57 3.774 17.636zm3.175-22.755l.003.012-.004-.012z"/><path fill="#D6CFD5" d="M344.533 304.008l-7.066 4.497-4.14-19.348 7.058-4.54 4.148 19.39z"/><path fill="#12100D" d="M344.938 304.75l-7.02 4.467a.844.844 0 0 1-1.278-.536l-4.142-19.35a.845.845 0 0 1 .387-.895l7.04-4.53a.846.846 0 0 1 1.286.55l4.15 19.38a.845.845 0 0 1-.42.918zm-6.898 2.39l5.545-3.528-3.772-17.624-5.538 3.562 3.765 17.59zm3.17-22.7l.004.013-.003-.012z"/><path fill="#D6CFD5" d="M355.133 317.693l-6.74 2.634-3.456-16.146 6.422-4.13 3.77 17.645z"/><path fill="#12100D" d="M355.44 318.48l-6.742 2.634a.843.843 0 0 1-1.14-.63l-3.45-16.13a.846.846 0 0 1 .388-.897l6.403-4.118a.845.845 0 0 1 1.282.545l3.773 17.63a.84.84 0 0 1-.517.963zm-6.43.697l5.146-2.01-3.37-15.743-4.9 3.152 3.124 14.6zm3.175-19.3l.003.01-.003-.01z"/><path fill="#D6CFD5" d="M348.476 321.664l-6.842 2.97-3.4-15.89 6.572-4.228 3.67 17.148z"/><path fill="#12100D" d="M348.756 322.46l-6.788 2.95a.842.842 0 0 1-1.16-.602l-3.4-15.89a.847.847 0 0 1 .386-.9l6.557-4.215a.844.844 0 0 1 1.288.547l3.667 17.136a.848.848 0 0 1-.547.975zm-6.512.99l5.26-2.285-3.27-15.277-5.054 3.252 3.063 14.31zm3.39-19.11l.002.013-.003-.012z"/><path fill="#D6CFD5" d="M337.112 308.52l-6.032 4.113-3.914-18.28 6.026-4.15 3.92 18.318z"/><path fill="#12100D" d="M337.573 309.23l-6.018 4.1a.845.845 0 0 1-1.303-.523l-3.913-18.28a.845.845 0 0 1 .383-.897l5.986-4.124a.845.845 0 0 1 1.307.52l3.92 18.32a.844.844 0 0 1-.365.883zm-5.93 1.996l4.524-3.083-3.536-16.53-4.516 3.114 3.53 16.5z"/><path fill="#D6CFD5" d="M330.88 312.77l-6.75 4.295-3.953-18.48 6.74-4.335 3.964 18.52z"/><path fill="#12100D" d="M331.284 313.51l-6.7 4.266a.846.846 0 0 1-1.278-.536h-.002l-3.954-18.48a.847.847 0 0 1 .387-.897l6.723-4.324a.846.846 0 0 1 1.287.545l3.96 18.508a.844.844 0 0 1-.423.918zm-6.58 2.19l5.23-3.327-3.586-16.754-5.22 3.356 3.576 16.72v.002zm3.04-21.626l.004.012-.003-.012z"/><path fill="#D6CFD5" d="M341.19 325.242l-6.86 2.588-3.243-15.162 6.56-3.992 3.543 16.566z"/><path fill="#12100D" d="M341.464 326.042l-6.835 2.58a.846.846 0 0 1-1.128-.617l-3.245-15.162a.847.847 0 0 1 .416-.915l6.53-3.973a.844.844 0 0 1 1.266.545l3.543 16.566c.09.42-.15.838-.552.976zm-6.512.65l5.26-1.984-3.144-14.69-5.028 3.06 2.912 13.615z"/><path fill="#D6CFD5" d="M334.06 327.626l-6.73 2.715-2.877-13.44 6.504-3.78 3.104 14.508z"/><path fill="#12100D" d="M334.345 328.423l-6.7 2.703a.845.845 0 0 1-1.14-.61l-2.878-13.44a.847.847 0 0 1 .425-.92l6.48-3.767a.844.844 0 0 1 1.25.554l3.105 14.508c.09.417-.15.83-.542.97zm-6.4.76l5.14-2.073-2.713-12.674-4.966 2.885 2.54 11.866z"/><path fill="#D6CFD5" d="M323.73 317.066l-5.527 3.95-3.838-17.94 5.517-3.99 3.848 17.98z"/><path fill="#12100D" d="M324.194 317.773l-5.5 3.932a.846.846 0 0 1-1.32-.513l-3.84-17.94a.85.85 0 0 1 .377-.892l5.48-3.96a.845.845 0 0 1 1.32.51l3.85 17.98a.846.846 0 0 1-.364.883zm-5.434 1.807l4.027-2.876-3.46-16.174-4.022 2.908 3.455 16.142zm-4.846-17.22l.274-.11a.85.85 0 0 0-.274.11z"/><path fill="#D6CFD5" d="M317.75 320.65l-6.43 4.093-3.767-17.603 6.422-4.13 3.775 17.64z"/><path fill="#12100D" d="M318.152 321.395l-6.38 4.06a.843.843 0 0 1-1.277-.537l-3.77-17.602a.85.85 0 0 1 .39-.898l6.403-4.118a.846.846 0 0 1 1.285.548l3.772 17.628a.842.842 0 0 1-.423.92zm-6.26 1.984l4.908-3.127-3.396-15.872-4.9 3.15 3.39 15.847zm2.91-20.546l.002.012-.002-.012z"/><path fill="#D6CFD5" d="M326.93 330.7l-6.175 2.23-2.636-12.31 5.93-3.37 2.877 13.45z"/><path fill="#12100D" d="M327.163 331.513l-6.124 2.212a.845.845 0 0 1-1.11-.62l-2.638-12.308a.846.846 0 0 1 .448-.932l5.896-3.347a.845.845 0 0 1 1.243.558l2.88 13.446a.85.85 0 0 1-.597.99h-.002zm-5.784.294l4.566-1.65-2.482-11.6-4.39 2.494 2.303 10.76z"/><path fill="#D6CFD5" d="M320.286 331.932l-6.898 2.466-2.234-10.44 6.723-3.292 2.41 11.266z"/><path fill="#12100D" stroke="#12100D" stroke-width=".216" stroke-miterlimit="22.926" d="M320.57 332.728l-6.897 2.467a.847.847 0 0 1-1.12-.664l-2.225-10.394a.846.846 0 0 1 .507-.96l6.67-3.267a.843.843 0 0 1 1.196.582h.005l2.41 11.267a.85.85 0 0 1-.542.97zm-6.558.547l5.292-1.892-2.028-9.486-5.158 2.526 1.894 8.852z"/><path fill="#D6CFD5" d="M310.988 323.756l-6.43 4.092-3.767-17.603 6.425-4.13 3.775 17.64z"/><path fill="#12100D" d="M311.392 324.498l-6.38 4.06a.843.843 0 0 1-1.278-.534l-3.77-17.602a.85.85 0 0 1 .39-.898l6.402-4.118a.844.844 0 0 1 1.285.548l3.776 17.628a.843.843 0 0 1-.422.916zm-6.26 1.985l4.904-3.123-3.396-15.872-4.9 3.152 3.392 15.843zm2.908-20.543l.002.012-.002-.012z"/><path fill="#D6CFD5" d="M313.523 335.036l-6.898 2.465-2.234-10.436 6.725-3.292 2.41 11.267z"/><path fill="#12100D" d="M313.808 335.833l-6.898 2.467a.848.848 0 0 1-1.12-.664l-2.225-10.4a.846.846 0 0 1 .51-.958l6.67-3.266a.844.844 0 0 1 1.195.582l2.412 11.266a.848.848 0 0 1-.542.972h-.002zm-6.56.548l5.293-1.89-2.026-9.484-5.156 2.527 1.892 8.85z"/><path fill="#D6CFD5" d="M304.27 326.818l-3.415 3.444-3.766-17.6 3.402-3.486 3.775 17.642z"/><path fill="#17120E" d="M304.84 327.438l-3.386 3.42a.845.845 0 0 1-1.425-.42h-.004l-3.77-17.603a.84.84 0 0 1 .252-.792l3.376-3.457a.845.845 0 0 1 1.43.413l3.777 17.64a.835.835 0 0 1-.252.796zm-3.486 1.12l1.99-2.01-3.35-15.654-1.986 2.033 3.346 15.63z"/><path fill="#D6CFD5" d="M306.755 338.107l-3.834 1.81-2.23-10.44 3.655-2.636 2.412 11.27z"/><path fill="#17120E" d="M307.088 338.885l-3.806 1.797a.845.845 0 0 1-1.187-.59l-2.234-10.44a.85.85 0 0 1 .38-.89l3.614-2.606a.845.845 0 0 1 1.32.51l2.412 11.266a.845.845 0 0 1-.494.95zm-3.564-.187l2.263-1.07-2-9.345-2.158 1.556 1.892 8.856z"/><path fill="#12100D" d="M394.4 234.713l-97.982 74.81 1.07 5.012 99.18-69.23-2.268-10.592z"/><path fill="#12100D" d="M393.854 236.195l-96.5 73.676.695 3.247 97.673-68.177-1.87-8.744zm-97.95 72.656l97.963-74.79a.844.844 0 0 1 1.36.48l2.27 10.595a.845.845 0 0 1-.345.866l-99.13 69.195a.845.845 0 0 1-1.36-.483l-1.073-5.01a.847.847 0 0 1 .312-.85z"/><path fill="#D6CFD5" d="M407.18 297.494L302.01 339l.33 1.538 105.44-39.957-.6-3.084z"/><path fill="#12100D" d="M406.545 298.653l-94.956 37.475 95.224-36.085-.27-1.39zM301.702 338.21l105.153-41.498a.844.844 0 0 1 1.153.62l.604 3.09h-.002a.846.846 0 0 1-.53.948l-105.415 39.944a.844.844 0 0 1-1.154-.605l-.322-1.53a.845.845 0 0 1 .516-.973zm114.563-88.163l-19.327-5.154-2.27-10.594 19.183 4.47 2.417 11.275z"/><path fill="#12100D" d="M416.02 250.856l-19.298-5.147a.842.842 0 0 1-.61-.646l-2.27-10.593a.846.846 0 0 1 1.02-1l19.18 4.473c.343.08.587.355.643.682l2.405 11.244a.846.846 0 0 1-.65 1.002.862.862 0 0 1-.42-.02v.003zm-18.365-6.647l17.494 4.662-2.014-9.402-17.363-4.047 1.88 8.785zm60.513 13.696l-20.016-4.46-1.437-7.467 19.55 3.7 1.903 8.226z"/><path fill="#12100D" d="M457.936 258.72l-19.965-4.45a.84.84 0 0 1-.643-.665h-.002l-1.438-7.466a.845.845 0 0 1 1.025-.985l19.51 3.694a.85.85 0 0 1 .67.642l1.903 8.225a.846.846 0 0 1-1.056 1.002zm-19.058-5.977l18.164 4.048-1.477-6.38-17.784-3.37 1.1 5.705z"/><path fill="#D6CFD5" d="M464.85 294.26l-18.845 1.004-.49-3.022 18.528-1.082.806 3.1z"/><path fill="#12100D" d="M464.893 295.104l-18.845 1.005a.847.847 0 0 1-.884-.74l-.483-2.998a.843.843 0 0 1 .79-.975v-.002L464 290.312a.848.848 0 0 1 .872.665l.797 3.067a.845.845 0 0 1-.773 1.057zm-18.177-.722l17.056-.91-.37-1.428-16.902.988.216 1.35z"/><path fill="#D6CFD5" d="M425.44 297.16l-17.73 3.08-.578-2.975 17.81-2.5.5 2.394z"/><path fill="#12100D" d="M425.585 297.993l-17.734 3.08a.846.846 0 0 1-.973-.69v-.003l-.573-2.955a.845.845 0 0 1 .74-.998l17.784-2.497a.845.845 0 0 1 .946.687l.497 2.374a.847.847 0 0 1-.656 1l-.028.005zm-17.203 1.27l16.054-2.788-.16-.763-16.144 2.267.25 1.282z"/><path fill="#C9B79A" d="M446.42 330.02l-13.638 2.956-21.096-109.326 10.04-9.02 24.693 115.39z"/><path fill="#12100D" d="M446.6 330.848l-13.64 2.955a.845.845 0 0 1-1.005-.647l-.01-.05-21.09-109.296a.846.846 0 0 1 .266-.787l10.044-9.02a.843.843 0 0 1 1.396.474l24.69 115.37a.844.844 0 0 1-.65 1zm-13.153 1.117l11.97-2.594-24.212-113.13-8.6 7.723 20.842 108.007v-.003z"/><path fill="#12100D" d="M453.42 328.676l-6.95.81-24.195-115.453 8.865 5.525 22.28 109.118z"/><path fill="#12100D" d="M453.517 329.517l-6.952.81a.848.848 0 0 1-.932-.707L421.45 214.206a.845.845 0 0 1 1.272-.89l8.865 5.525a.85.85 0 0 1 .39.6l22.272 109.07a.843.843 0 0 1-.66.995c-.023.004-.05.01-.07.012h-.004v.002zm-6.38-.96l5.27-.615-22.02-107.856-6.878-4.288 23.624 112.756v.003zm42.39-9.31l-6.464 1.42-18.854-90.51 8.52 5.603 16.796 83.487z"/><path fill="#12100D" d="M489.707 320.074l-6.465 1.42a.846.846 0 0 1-1.006-.647l-.01-.052-18.846-90.464a.846.846 0 0 1 1.332-.85l8.482 5.576a.84.84 0 0 1 .363.54h.002l16.792 83.488a.843.843 0 0 1-.647.99v.004-.002zm-5.99-.417l4.822-1.058-16.567-82.335-6.522-4.284 18.265 87.673v.002z"/><path fill="#C9B79A" d="M482.793 321.067l-11.248 2.445-18.442-85.24 11.09-7.457 18.6 90.252z"/><path fill="#12100D" d="M482.973 321.896l-11.248 2.444a.85.85 0 0 1-1.006-.65l-18.445-85.236a.85.85 0 0 1 .406-.913l11.043-7.422a.844.844 0 0 1 1.3.554l18.596 90.23a.846.846 0 0 1-.647.995v.002zm-10.78.61l9.604-2.087-18.177-88.2-9.567 6.434 18.14 83.85z"/><path fill="#EBE7EB" d="M395.322 234.16l26.403-19.53 4.554 20.52 20.185 94.336-13.686 3.49-18.93-94.204-18.53-4.61zm42.14 11.22l26.676-14.94 3.916 19.223 14.12 70.98-10.684 2.49-15.375-74.24-18.652-3.513z"/><path fill="#12100D" d="M437.05 244.642l26.675-14.942a.844.844 0 0 1 1.252.624l3.906 19.17v.006h.004l14.117 70.98a.847.847 0 0 1-.642.988l-10.68 2.49a.847.847 0 0 1-1.032-.71l-15.247-73.632-18.096-3.406a.846.846 0 0 1-.26-1.567zm26.49-12.9l-23.633 13.24 16.365 3.08a.848.848 0 0 1 .673.66l15.195 73.388 9.044-2.107-13.96-70.18h.002l-3.685-18.08z"/><path fill="#D6CFD5" d="M424.943 297.606L315.26 338.23l-12.98 2.8 105.436-40.43 17.227-2.994z"/><path fill="#12100D" d="M425.227 298.403l-109.675 40.623a.74.74 0 0 1-.145.04l-12.95 2.79a.846.846 0 0 1-.476-1.616l105.44-40.43a.82.82 0 0 1 .186-.05l17.2-2.986a.846.846 0 0 1 .423 1.63zM315.02 337.418l100.97-37.397-8.046 1.4-95.106 36.47 2.182-.47z"/><path fill="#D6CFD5" d="M427.628 309.95l-103.7 28.067-3.57-1.926 104.586-38.483 2.684 12.344z"/><path fill="#12100D" d="M427.827 310.772l-103.682 28.063a.846.846 0 0 1-.643-.086l-3.545-1.918a.85.85 0 0 1 .11-1.54L424.65 296.81a.845.845 0 0 1 1.12.616l2.686 12.342c.1.45-.18.896-.628 1.002zm-103.795 26.342l102.598-27.77-2.307-10.608L322.41 336.24l1.62.873h.002z"/><path fill="#D6CFD5" d="M493.563 329.755l-24.937 5.336-2.148-10.04 24.45-5.95 2.635 10.657z"/><path fill="#17120E" d="M493.74 330.582l-24.938 5.336a.846.846 0 0 1-1.002-.653l-2.15-10.04a.843.843 0 0 1 .65-1.003h.002l.02-.004 24.405-5.937a.845.845 0 0 1 1.02.62l2.638 10.656a.844.844 0 0 1-.617 1.02l-.03.008zm-24.464 3.505l23.258-4.977-2.226-8.988-22.832 5.553 1.802 8.41-.002.002z"/><path fill="#D6CFD5" d="M457.875 338.463l-28.355 6.07-2.075-9.7 27.522-6.606 2.908 10.236z"/><path fill="#17120E" d="M458.05 339.29l-28.354 6.07a.846.846 0 0 1-1.002-.652l-2.075-9.7a.846.846 0 0 1 .65-1.002l.034-.005 27.47-6.59a.846.846 0 0 1 1.006.594l2.91 10.235a.844.844 0 0 1-.585 1.04l-.054.013zm-27.88 4.24l26.645-5.703-2.44-8.59-25.93 6.223 1.724 8.07z"/><path d="M146.868 334.454l-7.652 1.035 4.914 29.635-9.894 1.337-4.914-29.638-2.943.398-.84-5.046 2.943-.398c-.54-3.25-.015-5.776 1.595-7.544 1.606-1.78 4.804-2.994 9.593-3.642l4.79-.647.838 5.047-4.788.647c-1.915.26-2.62 1.862-2.133 4.8l7.65-1.035.837 5.047zm28.982-1.344l-9.896 1.337-1.588-9.58c-.265-1.602-1.346-2.27-3.26-2.01-1.9.255-2.717 1.18-2.452 2.784l6.085 36.7-9.9 1.34-7.318-44.146 9.895-1.337.25 1.517c1.732-1.268 4.288-2.13 7.665-2.588 1.992-.27 3.873.18 5.67 1.334 1.81 1.15 2.885 2.843 3.255 5.07l1.587 9.58h.003zm5.31 19.405l-4.852-29.262c-.822-4.96 3.013-8.02 11.523-9.17 8.51-1.152 13.17.758 13.995 5.72l4.852 29.262c.855 5.165-2.965 8.32-11.475 9.472-8.51 1.15-13.184-.858-14.04-6.022zm15.62-2.113l-4.852-29.262c-.265-1.603-1.347-2.27-3.26-2.01-1.912.257-2.73 1.182-2.465 2.785l4.853 29.262c.262 1.59 1.346 2.26 3.258 2 1.912-.257 2.73-1.18 2.466-2.775zm39.296 2.288l-9.895 1.338-6.082-36.698c-.265-1.604-1.346-2.27-3.26-2.013-1.9.256-2.717 1.18-2.45 2.785l6.082 36.698-9.896 1.338-7.318-44.143 9.895-1.34.254 1.52c1.73-1.27 4.287-2.132 7.664-2.59 1.994-.27 3.874.18 5.672 1.335 1.81 1.152 2.884 2.844 3.255 5.07l6.082 36.7zm16.666-37.715l-7.653 1.035-1.57-9.46-9.895 1.338 1.568 9.46-2.942.398.837 5.047 2.942-.398 3.344 20.177c.54 3.26 1.86 5.525 3.974 6.802 2.112 1.266 5.563 1.58 10.352.933l4.79-.647-.836-5.047-4.79.647c-1.913.26-3.105-1.075-3.594-4.024l-3.346-20.178 7.652-1.034-.838-5.05zm28.675 32.245l-9.79 1.324-7.32-44.145 9.79-1.328 7.32 44.146zm-17.97-47.6c.18 1.075.81 1.95 1.907 2.624 1.112.686 2.34.927 3.71.74 1.36-.18 2.456-.726 3.3-1.654.833-.917 1.16-1.952.968-3.112-.188-1.13-.82-2.014-1.87-2.642-1.05-.638-2.233-.864-3.553-.687-1.36.18-2.495.752-3.39 1.7-.893.946-1.25 1.962-1.074 3.03zm46.493 43.742l-9.895 1.338-6.085-36.697c-.265-1.604-1.346-2.27-3.26-2.013-1.9.256-2.717 1.18-2.452 2.785l6.085 36.697-9.895 1.337-7.32-44.146 9.895-1.34.25 1.52c1.732-1.27 4.288-2.13 7.665-2.59 1.992-.268 3.873.182 5.67 1.337 1.81 1.153 2.888 2.845 3.256 5.07l6.083 36.7h.004z" fill="#DF0A15"/><path fill="#DF0A15" d="M121.618 385.592c-8.638 30.962-17.457 62.166-25.894 92.874-6.477 23.592-2.822 25.226 19.705 25.2l70.953-.072c3.94.402 6.99 1.643 8.588 4.23 2.82 4.565 0 12.026-1.28 16.928l-3.32 12.71c-4.008 15.32 1.85 11.467 11.777 3.703l27.247-21.314c5.742-4.49 13.22-11.26 19.568-14.353a30.15 30.15 0 0 1 5.174-1.972l255.192-.265c16.944-.02 33.24 1.667 28.774-20.097-9.836-47.894-19.68-101.18-29.516-148.572-6.65-32.045-11.376-28.432-41.57-23.574-104.9 16.874-209.8 33.754-314.7 50.626-18.184 2.924-25.45 5.12-30.703 23.953z"/><path fill="#FFF" d="M174.473 464.6l-53.097-19.705-1.102-10.75 47.924-30.672 1.252 12.2-34.482 22.463 38.245 14.2 1.26 12.265zm2.485-18.804l18.008-1.76 1.596 15.552c.348 3.4 2.25 4.933 5.734 4.59 3.457-.337 5.012-2.205 4.663-5.606-.86-8.36-5.25-16.4-13.2-24.14-7.95-7.736-13.235-12.695-15.884-14.874-2.623-2.156-4.162-5.324-4.59-9.503l-1.145-11.165c-1.087-10.59 6.1-16.653 21.587-18.166 15.463-1.513 23.74 3.04 24.825 13.63l1.584 15.414-18.01 1.76-1.583-15.414c-.35-3.425-2.255-4.956-5.71-4.616-3.482.34-5.037 2.208-4.686 5.63.443 6.198 1.68 10.208 3.708 12.004 2.05 1.796 7.41 7.003 16.104 15.62 8.692 8.616 13.31 15.565 13.85 20.804l1.152 11.256c1.132 11.026-6.032 17.295-21.496 18.808-15.487 1.513-23.785-3.243-24.918-14.27l-1.594-15.553h-.002zm100.783 21.89l-18.004 1.762-.312-3.032c-1.137 2.87-5.22 4.663-12.303 5.355-10.47 1.026-16.11-2.414-16.92-10.315l-3.1-30.208c-.36-3.515.552-6.666 2.683-9.52 2.16-2.834 7.035-6.605 14.656-11.272 5.364-2.797 8.23-4.89 8.593-6.293l-1.338-13.045c-.352-3.423-2.255-4.954-5.737-4.614-3.458.34-5.036 2.21-4.685 5.634l1.478 14.403-18.007 1.76-1.478-14.403c-1.087-10.59 6.124-16.655 21.586-18.166 15.487-1.512 23.764 3.038 24.85 13.627l8.04 78.334zm-19.633-14.11l-3.526-34.345c-6.876 1.766-10.13 4.08-9.812 6.947l2.917 28.416c.35 3.402 2.276 4.932 5.733 4.59 3.48-.338 5.036-2.208 4.686-5.606h.002zm99.148 5.75l-18.008 1.76-8.04-78.333c-.353-3.423-2.254-4.954-5.735-4.613-3.48.34-5.035 2.208-4.684 5.632l8.04 78.332-18.01 1.76-8.04-78.332c-.352-3.423-2.255-4.955-5.736-4.615-3.46.338-5.013 2.206-4.66 5.63l8.04 78.333-18.01 1.76-9.67-94.23 18.007-1.76.345 3.376c3.226-2.59 7.915-4.185 14.06-4.786 4.66-.455 9.505.904 14.555 4.03 3.112-3.925 7.272-6.164 12.53-6.678 3.48-.34 6.994.337 10.588 2.028 3.57 1.692 5.714 5.82 6.386 12.368l8.04 78.334v.004zm14.255-94.016l-.27-2.64-18.01 1.758 9.67 94.227 18.01-1.76-1.34-13.048c3.9 1.613 8.803 2.13 14.71 1.554 3.625-.35 6.77-1.61 9.43-3.795 2.666-2.164 3.637-6.645 2.937-13.467l-5.374-52.35c-.69-6.732-2.85-11-6.528-12.82-3.655-1.825-8.04-2.486-13.105-1.992-3.94.387-7.306 1.83-10.13 4.332v.004zm11.756 12.24l5.374 52.35c.35 3.424-1.203 5.293-4.66 5.632-3.48.34-5.385-1.192-5.738-4.615l-5.372-52.352c-.352-3.423 1.203-5.29 4.685-5.63 3.458-.338 5.362 1.192 5.713 4.616h-.003zm77.18 72.28l-18.01 1.76-.31-3.03c-1.137 2.872-5.222 4.662-12.304 5.354-10.468 1.023-16.108-2.417-16.92-10.318l-3.1-30.21c-.36-3.514.553-6.665 2.684-9.52 2.16-2.832 7.035-6.603 14.656-11.27 5.365-2.796 8.23-4.888 8.595-6.292l-1.338-13.047c-.354-3.423-2.258-4.954-5.74-4.614-3.457.337-5.036 2.21-4.685 5.632l1.478 14.402-18.007 1.76-1.478-14.403c-1.09-10.59 6.122-16.655 21.585-18.165 15.486-1.517 23.763 3.035 24.85 13.624l8.04 78.334zm-19.638-14.11l-3.523-34.345c-6.876 1.763-10.13 4.076-9.812 6.945l2.916 28.414c.35 3.4 2.274 4.932 5.732 4.592 3.482-.34 5.035-2.21 4.685-5.607zm23.583.547l48.038-29.59-1.102-10.75-53.21-20.786 1.254 12.2 38.364 15.346L463.13 424l1.26 12.267z"/></svg>