<svg xmlns="http://www.w3.org/2000/svg" width="512" height="512" viewBox="0 0 985.333 985.334"><g fill="currentColor"><path d="M868.565 492.8c-4.4 22.1-24 38.2-47.5 39.2-7.4.3-13.7 5.7-15.1 13-1.5 7.3 2.2 14.7 8.9 17.8 21.3 10 33.2 32.4 28.7 54.5l-4.2 21c-5.5 27.7-36.102 45-62.9 38.4-7.5-1.8-15.2-3.2-22.8-4.7-11.2-2.2-22.4-4.5-33.6-6.7-14.802-3-29.602-5.9-44.4-8.9-17.6-3.5-35.3-7.1-52.9-10.6-19.7-4-39.4-7.9-59.1-11.9-21-4.2-42.1-8.4-63.1-12.7-21.602-4.3-43.2-8.7-64.7-13-21.4-4.3-42.7-8.6-64.102-12.9l-61.2-12.3c-18.7-3.7-37.3-7.5-56-11.2-16.2-3.2-32.4-6.5-48.5-9.7-12.9-2.6-25.8-5.198-38.8-7.8-8.9-1.8-17.8-3.6-26.7-5.398-4.1-.8-8.2-1.7-12.3-2.5-.2 0-.4-.1-.6-.1 2.2 10.4 1.2 21.5-3.6 31.9-10.1 21.8-33.6 33.2-56.2 28.8-6.7-1.3-14 1.2-16.9 7.4l-9 19.5c-2.9 6.198 0 13.398 5.3 17.698 1 .8 721.8 333.1 723 333.4 6.7 1.3 14-1.2 16.9-7.4l9-19.5c2.9-6.2 0-13.4-5.3-17.7-18-14.3-24.6-39.6-14.5-61.4 10.1-21.8 33.6-33.2 56.2-28.8 6.7 1.3 14-1.2 16.9-7.4l9-19.5c2.9-6.2 0-13.398-5.3-17.7-18-14.3-24.6-39.6-14.5-61.398s33.6-33.2 56.2-28.8c6.7 1.3 14-1.2 16.9-7.4l9-19.5c2.898-6.2 0-13.4-5.302-17.7-18-14.3-24.6-39.6-14.5-61.4 10.107-21.8 33.607-33.2 56.2-28.8 6.7 1.3 14-1.2 16.9-7.4l9.9-21.6c2.9-6.2.2-13.5-6-16.4l-107.7-49.7-1.69 7.298z"/><path d="M9.665 485.9c1.2.6 779.3 156.7 780.6 156.7 6.8-.3 13.4-4.5 14.7-11.1l4.2-21c1.3-6.7-3.1-13.1-9.3-16-20.8-9.8-33.1-32.8-28.4-56.4 4.7-23.6 25-40.1 48-41.1 6.8-.3 13.4-4.5 14.7-11.1l3.1-15.4 1.1-5.7c1.3-6.7-3.1-13.1-9.3-16-20.8-9.8-33.1-32.8-28.4-56.4 4.7-23.6 25-40.1 48-41.1 6.8-.3 13.4-4.5 14.7-11.1l4.2-21c1.3-6.7-3.1-13.1-9.3-16-20.8-9.8-33.1-32.8-28.4-56.4 4.7-23.6 25-40.1 48-41.1 6.8-.3 13.4-4.5 14.7-11.1l4.7-23.3c1.3-6.7-3-13.2-9.7-14.5 0 0-781.9-156.8-782.7-156.8-5.8 0-10.9 4.1-12.1 9.9l-4.7 23.3c-1.3 6.7 3.1 13.1 9.3 16 20.8 9.8 33.1 32.8 28.4 56.4-4.7 23.6-25 40.1-48 41.1-6.8.3-13.4 4.5-14.7 11.1l-4.2 21c-1.3 6.7 3.1 13.1 9.3 16 20.8 9.8 33.102 32.8 28.4 56.4-4.7 23.6-25 40.1-48 41.1-6.8.3-13.4 4.5-14.7 11.1l-4.2 21c-1.3 6.7 3.102 13.1 9.3 16 20.802 9.8 33.102 32.8 28.4 56.4-4.7 23.6-25 40.1-48 41.1-6.8.3-13.4 4.5-14.7 11.1l-4.2 21c-1.4 6.7 3 13 9.2 15.9zm666.5-256.3c2.7-13.5 15.9-22.3 29.4-19.6s22.3 15.9 19.6 29.4l-33 164.2-20.3 101.2c-2.4 11.9-12.8 20.1-24.5 20.1-1.6 0-3.3-.2-4.9-.5-13.5-2.7-22.3-15.9-19.6-29.4l22.7-112.9 30.6-152.5zm-450.8-90.5c2.7-13.5 15.9-22.3 29.4-19.6s22.3 15.9 19.6 29.4l-11.4 56.7-12.9 64.3-10.4 51.8-18.5 92.6c-2.398 11.9-12.8 20.1-24.5 20.1-1.6 0-3.3-.2-4.898-.5-.7-.1-1.4-.3-2-.5-12.4-3.6-20.1-16.1-17.5-28.9l3.7-18.7 9.7-48.4 39.698-198.3z"/></g></svg>