<svg xmlns="http://www.w3.org/2000/svg" width="512" height="512" viewBox="0 0 47.5 47.5"><path d="M44.16 3.34A11.375 11.375 0 0 0 36.092 0c-2.92 0-5.838 1.114-8.064 3.34-4.455 4.455-4.455 11.678 0 16.132 2.226 2.227 5.145 3.34 8.063 3.34s5.84-1.113 8.068-3.34c4.453-4.453 4.453-11.676 0-16.13zM22.16 15L.647 39.16c-.9 1.012-.854 2.605.103 3.563l1.13 1.133-.722.724a1.226 1.226 0 0 0 0 1.73l.108.11a1.226 1.226 0 0 0 1.733 0l.72-.725 1.055 1.055c.957.957 2.552 1.003 3.563.104l24.154-21.51A14.307 14.307 0 0 1 22.16 15zm-1.14 14.268l-5.145 5.146a1.97 1.97 0 1 1-2.787-2.787l5.145-5.146a1.97 1.97 0 1 1 2.787 2.79z" fill="currentColor"/></svg>