<svg xmlns="http://www.w3.org/2000/svg" width="512" height="512" viewBox="0 0 47.001 47.001"><g fill="currentColor"><path d="M46.907 20.12a.99.99 0 0 0-.896-.57H43.09c-1.86-10.097-10.73-17.774-21.36-17.774C9.748 1.776 0 11.522 0 23.5c0 11.98 9.746 21.726 21.726 21.726 7.73 0 14.94-4.16 18.816-10.857a1.975 1.975 0 0 0-.722-2.7 1.97 1.97 0 0 0-2.697.72 17.846 17.846 0 0 1-15.397 8.883c-9.8 0-17.776-7.974-17.776-17.774S11.925 5.725 21.726 5.725c8.442 0 15.515 5.92 17.317 13.825H36.14a.99.99 0 0 0-.897.57.985.985 0 0 0 .136 1.05l4.933 5.928a.988.988 0 0 0 1.517 0l4.94-5.925a.987.987 0 0 0 .135-1.05z"/><path d="M21.726 6.713c-1.09 0-1.975.884-1.975 1.975v11.984a3.45 3.45 0 0 0-1.48 2.83 3.46 3.46 0 0 0 3.46 3.457c.52 0 1.015-.13 1.46-.34l6.87 3.966a1.974 1.974 0 1 0 1.973-3.42l-6.875-3.97a3.44 3.44 0 0 0-1.45-2.527V8.69a1.98 1.98 0 0 0-1.976-1.975zm0 18.27c-.817 0-1.48-.666-1.48-1.48 0-.817.664-1.482 1.48-1.482s1.48.67 1.48 1.486c0 .815-.664 1.48-1.48 1.48z"/></g></svg>