<svg xmlns="http://www.w3.org/2000/svg" viewBox="0 0 458.867 458.867"><path d="M404.75.027H55.73C25.665.027 0 28.27 0 58.245V407.49c0 29.965 25.664 51.35 55.73 51.35h349.02c30.066 0 54.117-21.385 54.117-51.35V58.245c0-29.975-24.05-58.218-54.117-58.218zM393.955 65.57c8.7 0 15.752 7.053 15.752 15.752v50.436c0 8.7-7.053 15.752-15.752 15.752h-50.443c-8.7 0-15.752-7.053-15.752-15.752V81.322c0-8.7 7.053-15.752 15.752-15.752h50.443zm-163.184 80c48.632 0 88.05 39.333 88.05 87.83 0 48.507-39.418 87.84-88.05 87.84-48.62 0-88.05-39.333-88.05-87.84 0-48.497 39.428-87.83 88.05-87.83zm178.937 250.206c0 7.046-7.49 13.912-14.56 13.912H66.408c-7.067 0-17.246-6.866-17.246-13.912V196.663h47.283c-3.22 16.39-4.956 24.035-4.956 36.738 0 76.618 62.48 138.935 139.283 138.935 76.81 0 139.292-62.332 139.292-138.95 0-12.687-1.738-20.33-4.94-36.722h44.585v199.113z"/></svg>