<svg xmlns="http://www.w3.org/2000/svg" viewBox="0 0 486.392 486.392"><path d="M243.196 0C108.89 0 0 108.89 0 243.196s108.89 243.196 243.196 243.196 243.196-108.89 243.196-243.196C486.392 108.86 377.502 0 243.196 0zm120.99 188.598l.182 7.752c0 79.16-60.22 170.36-170.36 170.36-33.803 0-65.267-9.91-91.775-26.905 4.682.547 9.454.85 14.288.85 28.06 0 53.87-9.575 74.36-25.626-26.205-.488-48.306-17.816-55.936-41.588 3.678.7 7.387 1.034 11.278 1.034 5.473 0 10.762-.7 15.778-2.067-27.39-5.534-48.03-29.7-48.03-58.7v-.76c8.085 4.497 17.296 7.172 27.115 7.507-16.05-10.73-26.63-29.062-26.63-49.825 0-10.974 2.95-21.25 8.086-30.095 29.518 36.236 73.658 60.07 123.42 62.562-1.032-4.38-1.55-8.97-1.55-13.65 0-33.044 26.814-59.857 59.89-59.857 17.205 0 32.77 7.265 43.713 18.908a121.25 121.25 0 0 0 38.03-14.53c-4.47 13.984-13.953 25.718-26.326 33.135a120.032 120.032 0 0 0 34.382-9.424c-8.026 11.978-18.21 22.527-29.913 30.917z" fill="currentColor"/></svg>