<svg xmlns="http://www.w3.org/2000/svg" width="350.335" height="253.02" viewBox="0 0 350.335 253.02"><path d="M275.08 242.264H49.475l8.69-31.882L7.678 93.626h73.26l22.618-84.143h233.4z"/><path fill="#FFF" d="M275.08 239.264H49.475c.964 1.266 1.93 2.53 2.893 3.798l8.69-31.882c.51-1.863-1.448-4.962-2.157-6.603l-5.81-13.44a2087794.654 2087794.654 0 0 0-42.824-99.024l-2.59 4.514h73.26c1.327 0 2.545-.916 2.892-2.204l22.62-84.143-2.894 2.203h233.4l-2.893-3.797-35.79 134.65-26.084 98.13c-.995 3.745 4.792 5.332 5.785 1.597a9119166.446 9119166.446 0 0 0 61.876-232.78c.5-1.884-.93-3.798-2.893-3.798H103.553c-1.328 0-2.546.915-2.893 2.203L78.04 92.83c.965-.733 1.93-1.467 2.894-2.202H7.674c-2.48 0-3.46 2.502-2.59 4.515 9.01 20.833 18.02 41.667 27.028 62.5l17.48 40.425 4.98 11.51c.31.724.624 1.446.937 2.17.447 1.035.042-3.188-.328-1.83-.27.995-.542 1.99-.814 2.985-2.596 9.52-5.19 19.044-7.788 28.565-.513 1.883.94 3.798 2.893 3.798h225.605c3.87-.002 3.87-6.002.002-6.002z"/><path opacity=".6" fill="#FFDE17" d="M68.953 198.46h62.357l-38.612-88.98H30.363z"/><path fill="#FFDE17" d="M131.31 198.46H68.953l46.242-173.057h62.356z"/><path opacity=".6" fill="#FFDE17" d="M270.455 198.46h-124.5l10.01-37.46H280.53z"/><path fill="#FFDE17" d="M240.12 79.07l14.338-53.667-62.17-.066-32.23 119.81h62.487l-14.33 53.313h62.496l31.563-119.484z"/><path opacity=".6" fill="#FFDE17" d="M306.784 63.12H182.32l10.144-37.716h124.38z"/><g fill="#FFF"><path d="M74.108 210.378h7.706c.984 0 1.854.114 2.61.343.757.23 1.368.568 1.83 1.017.462.447.77 1.005.917 1.67.15.668.105 1.447-.13 2.344-.168.638-.392 1.18-.666 1.627a9.19 9.19 0 0 1-.798 1.12 5.503 5.503 0 0 1-.976.895c.36.277.66.635.898 1.073.195.377.34.856.434 1.434.093.575.03 1.28-.19 2.116a8.17 8.17 0 0 1-1.188 2.598 8.147 8.147 0 0 1-1.956 1.982 8.673 8.673 0 0 1-2.606 1.254c-.97.288-2.007.432-3.11.434l-8.03-.002 5.256-19.904zm2.77 15.22c1.496 0 2.397-.578 2.702-1.73s-.292-1.733-1.787-1.733l-.71.002-.912 3.462h.708zm3.898-9.162c.24-.914-.13-1.372-1.113-1.372h-.71l-.725 2.745h.708c.984 0 1.598-.46 1.84-1.374zM90.672 210.38h6.79c1.26 0 2.382.17 3.366.506.985.34 1.783.836 2.396 1.494.614.655 1.016 1.467 1.204 2.432.188.965.116 2.073-.215 3.326-.263.997-.623 1.84-1.083 2.537-.46.695-.917 1.273-1.373 1.73-.53.517-1.09.955-1.675 1.313l1.957 6.565h-7.383l-1.62-5.044-1.332 5.043-6.29-.003 5.257-19.9zm3.704 9.787h.324c.75 0 1.428-.167 2.04-.506.61-.337 1.02-.904 1.23-1.7.21-.795.1-1.36-.332-1.7-.433-.338-1.022-.507-1.77-.507h-.326l-1.166 4.414zM115.062 210.38h4.724L122 230.285h-6.202l-.177-1.79h-5.964l-1.122 1.79h-6.2l12.728-19.903zm.063 13.728l-.406-3.49-2.252 3.49h2.657zM133.02 215.604h-5.432l3.387-5.222h12.607l-10.728 14.682 6.466.002-3.36 5.222-13.67-.003 10.73-14.68zM144.468 210.382h6.674l-5.26 19.905h-6.67l5.256-19.905zM153.208 210.383h6.553l-3.876 14.683h5.433l-1.38 5.222H147.95l5.258-19.905zM162.378 225.513h2.155c.63 0 1.086-.12 1.366-.357.277-.238.475-.577.59-1.016l3.635-13.755h6.497l-3.926 14.86c-.49 1.85-1.252 3.153-2.288 3.91-1.037.757-2.47 1.133-4.3 1.133h-4.99l1.26-4.775zM174.443 224.11c.395.142.82.25 1.27.33.37.1.795.18 1.282.24.485.06.983.09 1.497.09.904 0 1.446-.34 1.627-1.016.066-.26-.002-.522-.206-.79a8.755 8.755 0 0 0-.812-.896 36.595 36.595 0 0 1-1.07-1.09 6.625 6.625 0 0 1-.997-1.373 5.36 5.36 0 0 1-.586-1.746c-.105-.647-.048-1.39.17-2.224.25-.935.637-1.76 1.16-2.477a7.286 7.286 0 0 1 1.86-1.79 8.426 8.426 0 0 1 2.37-1.09 9.463 9.463 0 0 1 2.65-.373c.475 0 .94.024 1.4.074.456.052.868.094 1.232.135.417.06.825.12 1.222.18l-1.475 5.58c-.15-.02-.325-.04-.516-.06-.153-.02-.326-.04-.518-.06-.19-.02-.394-.03-.61-.03a7.49 7.49 0 0 0-.447.016c-.18.01-.355.035-.522.074-.17.04-.326.11-.468.21a.698.698 0 0 0-.288.417c-.042.16.04.358.24.6.204.237.453.517.754.834.3.32.627.686.98 1.104.35.42.647.897.89 1.433.24.54.407 1.145.493 1.82s.02 1.434-.202 2.27c-.23.876-.586 1.695-1.063 2.462s-1.082 1.434-1.813 2c-.73.567-1.593 1.015-2.583 1.342-.993.328-2.108.492-3.35.492-.75 0-1.433-.034-2.054-.104a17.177 17.177 0 0 1-1.632-.255 12.39 12.39 0 0 1-1.47-.358l1.58-5.97zM194.715 220.353a13.608 13.608 0 0 1 1.967-4.313c.89-1.28 1.928-2.38 3.116-3.295a13.828 13.828 0 0 1 3.86-2.105c1.39-.485 2.793-.73 4.21-.73 1.123 0 2.092.11 2.91.33.818.218 1.505.467 2.062.746.644.317 1.183.666 1.615 1.044l-4.56 5.52a7.182 7.182 0 0 0-.853-.686 7.478 7.478 0 0 0-1.073-.462c-.424-.15-.932-.225-1.522-.225-.61 0-1.2.11-1.77.328a6.086 6.086 0 0 0-2.83 2.223 5.095 5.095 0 0 0-.755 1.626c-.153.578-.184 1.12-.09 1.627.093.51.284.952.578 1.328.295.38.68.678 1.15.896.475.22 1.026.328 1.657.328a6.1 6.1 0 0 0 1.746-.238 8.41 8.41 0 0 0 1.382-.536c.452-.22.865-.48 1.238-.777l1.642 5.522c-.646.438-1.38.826-2.196 1.163-.706.28-1.53.538-2.48.777-.95.238-1.995.357-3.137.357-1.535 0-2.885-.255-4.05-.762-1.167-.508-2.1-1.22-2.803-2.134-.704-.917-1.15-2.015-1.345-3.298-.188-1.284-.08-2.7.33-4.253z"/><path d="M211.074 220.354a12.932 12.932 0 0 1 1.885-4.06 15.42 15.42 0 0 1 3.092-3.326 14.913 14.913 0 0 1 3.884-2.238c1.403-.546 2.815-.82 4.232-.818 1.42 0 2.684.273 3.797.82 1.117.548 2.018 1.293 2.7 2.238.69.944 1.133 2.054 1.338 3.326.204 1.274.118 2.628-.26 4.06a13.006 13.006 0 0 1-1.884 4.06 15.542 15.542 0 0 1-3.096 3.327 14.824 14.824 0 0 1-3.885 2.235c-1.403.548-2.814.82-4.232.82-1.417 0-2.684-.272-3.8-.82-1.115-.547-2.016-1.292-2.7-2.238-.684-.944-1.13-2.053-1.335-3.327-.206-1.273-.118-2.626.26-4.06zm6.2 0c-.153.58-.188 1.12-.104 1.627.083.508.26.95.534 1.328.274.378.634.677 1.077.896.446.22.952.328 1.524.328.57.002 1.136-.11 1.695-.327a5.98 5.98 0 0 0 1.55-.896c.473-.378.887-.82 1.236-1.328a5.15 5.15 0 0 0 .756-1.625c.15-.578.186-1.12.104-1.626a3.116 3.116 0 0 0-.533-1.328 2.872 2.872 0 0 0-1.078-.895c-.443-.22-.953-.33-1.523-.33s-1.136.11-1.695.33a5.858 5.858 0 0 0-1.55.894c-.476.38-.886.822-1.236 1.33a5.13 5.13 0 0 0-.756 1.624zM236 210.388l5.166.002 3.406 7.67 2.028-7.67h6.17l-5.26 19.903h-5.195l-3.387-7.64-2.017 7.64h-6.17l5.26-19.905zM254.835 210.39l11.604.002-1.38 5.222h-5.315l-.583 2.207h5.227l-1.31 4.955h-5.226l-1.985 7.52h-6.29l5.255-19.905z"/></g></svg>