<?xml version="1.0" encoding="utf-8"?>
<!-- Generator: Adobe Illustrator 16.0.0, SVG Export Plug-In . SVG Version: 6.00 Build 0)  -->
<!DOCTYPE svg PUBLIC "-//W3C//DTD SVG 1.1//EN" "http://www.w3.org/Graphics/SVG/1.1/DTD/svg11.dtd">
<svg version="1.1" id="Layer_1" xmlns="http://www.w3.org/2000/svg" xmlns:xlink="http://www.w3.org/1999/xlink" x="0px" y="0px"
	 width="335.177px" height="238.781px" viewBox="4.772 6.485 335.177 238.781" enable-background="new 4.772 6.485 335.177 238.781"
	 xml:space="preserve">
<path d="M275.08,242.264H49.475l8.69-31.882L7.678,93.626h73.26l22.618-84.144h233.4L275.08,242.264z"/>
<path fill="#FFFFFF" d="M275.08,239.264H49.475c0.964,1.267,1.93,2.53,2.893,3.798l8.69-31.882c0.51-1.863-1.448-4.962-2.157-6.603
	l-5.81-13.44c-14.273-33.008-28.547-66.017-42.824-99.023l-2.59,4.514h73.26c1.327,0,2.545-0.916,2.892-2.204l22.62-84.143
	l-2.894,2.202h233.399l-2.893-3.797l-35.791,134.65l-26.083,98.13c-0.995,3.745,4.792,5.332,5.785,1.597
	c20.626-77.593,41.155-155.212,61.876-232.779c0.5-1.885-0.93-3.799-2.893-3.799H103.553c-1.328,0-2.546,0.915-2.893,2.203
	L78.04,92.83c0.965-0.733,1.93-1.468,2.894-2.202H7.674c-2.48,0-3.46,2.502-2.59,4.515c9.01,20.833,18.02,41.667,27.028,62.5
	l17.48,40.425l4.98,11.511c0.31,0.724,0.624,1.445,0.937,2.17c0.447,1.035,0.042-3.188-0.328-1.83
	c-0.27,0.995-0.542,1.99-0.814,2.984c-2.596,9.521-5.19,19.045-7.788,28.565c-0.513,1.883,0.94,3.798,2.893,3.798h225.605
	C278.947,245.264,278.947,239.264,275.08,239.264L275.08,239.264z"/>
<path opacity="0.6" fill="#FFDE17" enable-background="new    " d="M68.953,198.46h62.357l-38.612-88.98H30.363L68.953,198.46z"/>
<path fill="#FFDE17" d="M131.31,198.46H68.953l46.242-173.058h62.355L131.31,198.46z"/>
<path opacity="0.6" fill="#FFDE17" enable-background="new    " d="M270.455,198.46h-124.5l10.01-37.46H280.53L270.455,198.46z"/>
<path fill="#FFDE17" d="M240.121,79.07l14.338-53.667l-62.17-0.065l-32.23,119.81h62.486l-14.33,53.313h62.496l31.564-119.484
	L240.121,79.07z"/>
<path opacity="0.6" fill="#FFDE17" enable-background="new    " d="M306.785,63.12H182.32l10.145-37.717h124.379L306.785,63.12z"/>
<g>
	<path fill="#FFFFFF" d="M74.108,210.378h7.706c0.984,0,1.854,0.114,2.61,0.343c0.757,0.23,1.368,0.568,1.83,1.018
		c0.462,0.446,0.77,1.005,0.917,1.67c0.15,0.668,0.105,1.446-0.13,2.344c-0.168,0.638-0.392,1.18-0.666,1.627
		c-0.238,0.393-0.504,0.767-0.798,1.12c-0.288,0.336-0.616,0.637-0.976,0.895c0.36,0.277,0.66,0.635,0.898,1.073
		c0.195,0.377,0.34,0.856,0.434,1.434c0.093,0.575,0.03,1.28-0.19,2.116c-0.241,0.93-0.643,1.809-1.188,2.599
		c-0.534,0.768-1.195,1.438-1.956,1.981c-0.792,0.561-1.673,0.985-2.606,1.254c-0.97,0.288-2.007,0.433-3.11,0.435l-8.03-0.002
		L74.108,210.378L74.108,210.378z M76.878,225.598c1.496,0,2.397-0.578,2.702-1.729c0.305-1.152-0.292-1.733-1.787-1.733
		l-0.71,0.002l-0.912,3.462L76.878,225.598L76.878,225.598z M80.776,216.436c0.24-0.914-0.13-1.372-1.113-1.372h-0.71l-0.725,2.745
		h0.708C79.92,217.809,80.534,217.349,80.776,216.436L80.776,216.436z M90.672,210.38h6.79c1.26,0,2.382,0.17,3.366,0.506
		c0.985,0.34,1.783,0.836,2.396,1.494c0.614,0.655,1.016,1.467,1.204,2.432s0.116,2.073-0.215,3.326
		c-0.263,0.997-0.623,1.84-1.083,2.537c-0.46,0.695-0.917,1.273-1.373,1.73c-0.53,0.517-1.09,0.954-1.675,1.312l1.957,6.565h-7.383
		l-1.62-5.044l-1.332,5.043l-6.29-0.004L90.672,210.38L90.672,210.38z M94.376,220.167H94.7c0.75,0,1.428-0.167,2.04-0.506
		c0.61-0.337,1.02-0.904,1.23-1.7c0.21-0.795,0.1-1.36-0.332-1.7c-0.433-0.338-1.022-0.507-1.77-0.507h-0.326L94.376,220.167
		L94.376,220.167z M115.062,210.38h4.724L122,230.285h-6.202l-0.177-1.79h-5.964l-1.122,1.79h-6.2l12.728-19.903L115.062,210.38z
		 M115.125,224.108l-0.406-3.489l-2.252,3.489H115.125L115.125,224.108z M133.02,215.604h-5.432l3.387-5.222h12.607l-10.728,14.682
		l6.466,0.002l-3.36,5.223l-13.67-0.003L133.02,215.604L133.02,215.604z M144.468,210.382h6.674l-5.26,19.905h-6.67L144.468,210.382
		z M153.208,210.383h6.553l-3.876,14.683h5.433l-1.38,5.223H147.95L153.208,210.383z M162.378,225.513h2.155
		c0.63,0,1.086-0.12,1.366-0.356c0.277-0.238,0.475-0.577,0.59-1.017l3.635-13.755h6.497l-3.926,14.86
		c-0.49,1.85-1.252,3.152-2.288,3.91c-1.037,0.757-2.47,1.133-4.3,1.133h-4.99L162.378,225.513L162.378,225.513z M174.443,224.11
		c0.395,0.143,0.82,0.25,1.27,0.33c0.371,0.101,0.795,0.181,1.283,0.24c0.484,0.061,0.982,0.09,1.496,0.09
		c0.904,0,1.446-0.34,1.627-1.016c0.066-0.26-0.002-0.522-0.205-0.79c-0.25-0.317-0.521-0.616-0.812-0.896
		c-0.364-0.355-0.721-0.719-1.07-1.09c-0.39-0.413-0.725-0.874-0.996-1.373c-0.295-0.544-0.494-1.134-0.586-1.746
		c-0.105-0.646-0.049-1.39,0.17-2.224c0.25-0.935,0.637-1.76,1.159-2.477c0.509-0.703,1.139-1.31,1.86-1.79
		c0.729-0.484,1.527-0.853,2.369-1.091c0.861-0.249,1.754-0.374,2.65-0.372c0.475,0,0.94,0.023,1.4,0.073
		c0.456,0.053,0.867,0.095,1.232,0.136c0.416,0.06,0.824,0.119,1.222,0.18l-1.476,5.58c-0.149-0.021-0.324-0.04-0.516-0.061
		c-0.152-0.02-0.326-0.04-0.518-0.06c-0.19-0.021-0.395-0.03-0.61-0.03c-0.149,0.001-0.298,0.007-0.447,0.017
		c-0.18,0.01-0.354,0.034-0.522,0.073c-0.17,0.04-0.325,0.11-0.467,0.21c-0.146,0.099-0.248,0.247-0.289,0.417
		c-0.041,0.16,0.041,0.358,0.24,0.601c0.204,0.237,0.453,0.517,0.754,0.834c0.301,0.32,0.627,0.686,0.98,1.104
		c0.35,0.42,0.646,0.897,0.89,1.434c0.24,0.54,0.407,1.145,0.493,1.819c0.086,0.676,0.02,1.435-0.202,2.271
		c-0.229,0.876-0.586,1.695-1.063,2.462c-0.477,0.767-1.082,1.434-1.812,2c-0.73,0.567-1.593,1.015-2.583,1.342
		c-0.993,0.328-2.108,0.492-3.35,0.492c-0.75,0-1.433-0.034-2.054-0.104c-0.548-0.06-1.093-0.145-1.632-0.256
		c-0.497-0.089-0.988-0.208-1.47-0.357l1.58-5.97L174.443,224.11z M194.714,220.353c0.398-1.541,1.064-3.001,1.968-4.312
		c0.89-1.28,1.928-2.38,3.116-3.295c1.166-0.903,2.469-1.614,3.859-2.105c1.391-0.484,2.793-0.729,4.211-0.729
		c1.123,0,2.092,0.109,2.909,0.33c0.818,0.218,1.505,0.467,2.062,0.745c0.645,0.317,1.184,0.666,1.615,1.045l-4.56,5.52
		c-0.267-0.25-0.552-0.479-0.853-0.686c-0.346-0.183-0.704-0.337-1.073-0.463c-0.425-0.149-0.933-0.225-1.522-0.225
		c-0.609,0-1.199,0.11-1.77,0.328c-1.146,0.438-2.133,1.214-2.83,2.223c-0.346,0.493-0.602,1.044-0.756,1.626
		c-0.152,0.578-0.184,1.12-0.09,1.627c0.094,0.511,0.285,0.952,0.578,1.328c0.295,0.38,0.68,0.678,1.15,0.896
		c0.475,0.22,1.025,0.328,1.657,0.328c0.591,0.005,1.179-0.075,1.745-0.238c0.477-0.138,0.938-0.317,1.383-0.536
		c0.451-0.22,0.865-0.479,1.238-0.777l1.642,5.522c-0.646,0.438-1.38,0.826-2.196,1.163c-0.705,0.28-1.529,0.538-2.479,0.776
		s-1.995,0.357-3.138,0.357c-1.535,0-2.885-0.255-4.049-0.762c-1.168-0.508-2.101-1.221-2.804-2.134
		c-0.704-0.917-1.149-2.016-1.345-3.299C194.196,223.323,194.304,221.907,194.714,220.353L194.714,220.353z"/>
	<path fill="#FFFFFF" d="M211.074,220.354c0.388-1.452,1.025-2.826,1.885-4.06c0.861-1.255,1.903-2.376,3.092-3.326
		c1.176-0.938,2.484-1.692,3.885-2.238c1.402-0.546,2.814-0.819,4.232-0.817c1.42,0,2.684,0.272,3.797,0.819
		c1.117,0.549,2.018,1.293,2.699,2.238c0.69,0.944,1.133,2.054,1.338,3.326c0.205,1.273,0.119,2.628-0.26,4.06
		c-0.389,1.452-1.025,2.826-1.884,4.061c-0.863,1.255-1.906,2.375-3.096,3.327c-1.175,0.938-2.484,1.69-3.886,2.234
		c-1.402,0.548-2.813,0.82-4.231,0.82c-1.417,0-2.685-0.272-3.8-0.82c-1.115-0.547-2.016-1.292-2.7-2.237
		c-0.685-0.944-1.13-2.054-1.335-3.327c-0.206-1.273-0.118-2.626,0.26-4.061L211.074,220.354z M217.274,220.354
		c-0.153,0.58-0.188,1.12-0.104,1.627c0.084,0.509,0.261,0.95,0.535,1.328c0.273,0.378,0.633,0.677,1.076,0.896
		c0.446,0.22,0.952,0.328,1.524,0.328c0.569,0.002,1.136-0.11,1.694-0.327c0.559-0.22,1.082-0.521,1.551-0.896
		c0.473-0.378,0.887-0.819,1.236-1.328c0.344-0.493,0.6-1.043,0.756-1.625c0.149-0.578,0.186-1.12,0.104-1.626
		c-0.072-0.478-0.255-0.933-0.533-1.328c-0.279-0.382-0.65-0.689-1.078-0.895c-0.443-0.22-0.953-0.33-1.522-0.33
		c-0.57,0-1.136,0.11-1.695,0.33c-0.56,0.217-1.082,0.519-1.55,0.894c-0.477,0.381-0.887,0.822-1.236,1.33
		c-0.346,0.493-0.602,1.043-0.756,1.624L217.274,220.354z M236,210.388l5.166,0.002l3.406,7.67l2.028-7.67h6.17l-5.261,19.903
		h-5.194l-3.387-7.641l-2.017,7.641h-6.17l5.26-19.905H236z M254.835,210.39l11.604,0.002l-1.38,5.223h-5.315l-0.582,2.206h5.227
		l-1.311,4.955h-5.226l-1.985,7.521h-6.289l5.254-19.905L254.835,210.39z"/>
</g>
</svg>
